STARTFONT 2.1
FONT -FontForge-Verdana-Bold-R-Normal--20-190-75-75-P-119-ISO10646-1
SIZE 19 75 75
FONTBOUNDINGBOX 46 27 -11 -6
COMMENT "Generated by fontforge, http://fontforge.sourceforge.net"
COMMENT "(c) 2006 Microsoft Corporation. All Rights Reserved."
STARTPROPERTIES 40
FOUNDRY "FontForge"
FAMILY_NAME "Verdana"
WEIGHT_NAME "Bold"
SLANT "R"
SETWIDTH_NAME "Normal"
ADD_STYLE_NAME ""
PIXEL_SIZE 20
POINT_SIZE 190
RESOLUTION_X 75
RESOLUTION_Y 75
SPACING "P"
AVERAGE_WIDTH 119
CHARSET_REGISTRY "ISO10646"
CHARSET_ENCODING "1"
FONTNAME_REGISTRY ""
CHARSET_COLLECTIONS "ISO8859-2 ISO8859-5 ISO8859-7 ISO8859-9 ISO8859-4 ISO10646-1"
FONT_NAME "Verdana-Bold"
FACE_NAME "Verdana Bold"
COPYRIGHT "(c) 2006 Microsoft Corporation. All Rights Reserved."
FONT_VERSION "5.01x"
FONT_ASCENT 16
FONT_DESCENT 4
UNDERLINE_POSITION -2
UNDERLINE_THICKNESS 3
X_HEIGHT 10
CAP_HEIGHT 14
RAW_ASCENT 800
RAW_DESCENT 200
NORM_SPACE 7
RELATIVE_WEIGHT 70
RELATIVE_SETWIDTH 50
SUPERSCRIPT_X 0
SUPERSCRIPT_Y 9
SUPERSCRIPT_SIZE 13
SUBSCRIPT_X 0
SUBSCRIPT_Y 2
SUBSCRIPT_SIZE 13
FIGURE_WIDTH 14
AVG_LOWERCASE_WIDTH 131
AVG_UPPERCASE_WIDTH 158
ENDPROPERTIES
CHARS 919
STARTCHAR space
ENCODING 32
SWIDTH 341 0
DWIDTH 7 0
BBX 1 1 0 0
BITMAP
00
ENDCHAR
STARTCHAR exclam
ENCODING 33
SWIDTH 402 0
DWIDTH 8 0
BBX 4 15 2 0
BITMAP
F0
F0
F0
F0
F0
F0
F0
F0
F0
F0
00
00
F0
F0
F0
ENDCHAR
STARTCHAR quotedbl
ENCODING 34
SWIDTH 587 0
DWIDTH 12 0
BBX 8 6 2 10
BITMAP
E7
E7
E7
E7
E7
E7
ENDCHAR
STARTCHAR numbersign
ENCODING 35
SWIDTH 867 0
DWIDTH 17 0
BBX 15 15 1 0
BITMAP
0318
0318
0630
7FFE
7FFE
0630
0C60
0C60
0C60
FFFC
FFFC
18C0
18C0
3180
3180
ENDCHAR
STARTCHAR dollar
ENCODING 36
SWIDTH 710 0
DWIDTH 14 0
BBX 12 18 1 -3
BITMAP
0600
0600
1FC0
7FE0
FFE0
F660
F600
FF80
7FE0
0FF0
06F0
C6F0
FFF0
FFE0
7F80
0600
0600
0600
ENDCHAR
STARTCHAR percent
ENCODING 37
SWIDTH 1271 0
DWIDTH 25 0
BBX 23 15 1 0
BITMAP
3E0180
7F0300
E38700
E38600
E38C00
E38C00
E398F8
7F39FC
3E338E
00638E
00638E
00C38E
01C38E
0181FC
0300F8
ENDCHAR
STARTCHAR ampersand
ENCODING 38
SWIDTH 862 0
DWIDTH 17 0
BBX 16 15 1 0
BITMAP
1F80
3FC0
7FE0
79E0
79E0
39E0
1FDE
3F1E
779E
F3DE
F1FE
F8FC
FFFC
7FFC
1F9F
ENDCHAR
STARTCHAR quotesingle
ENCODING 39
SWIDTH 332 0
DWIDTH 7 0
BBX 3 6 2 10
BITMAP
E0
E0
E0
E0
E0
E0
ENDCHAR
STARTCHAR parenleft
ENCODING 40
SWIDTH 543 0
DWIDTH 11 0
BBX 7 20 2 -4
BITMAP
1E
3C
38
78
70
70
E0
E0
E0
E0
E0
E0
E0
E0
70
70
78
38
3C
1E
ENDCHAR
STARTCHAR parenright
ENCODING 41
SWIDTH 543 0
DWIDTH 11 0
BBX 7 20 2 -4
BITMAP
F0
78
38
3C
1C
1C
0E
0E
0E
0E
0E
0E
0E
0E
1C
1C
3C
38
78
F0
ENDCHAR
STARTCHAR asterisk
ENCODING 42
SWIDTH 710 0
DWIDTH 14 0
BBX 10 10 2 6
BITMAP
0C00
4C80
EDC0
7F80
1E00
1E00
7F80
EDC0
4C80
0C00
ENDCHAR
STARTCHAR plus
ENCODING 43
SWIDTH 867 0
DWIDTH 17 0
BBX 13 13 2 0
BITMAP
0700
0700
0700
0700
0700
FFF8
FFF8
FFF8
0700
0700
0700
0700
0700
ENDCHAR
STARTCHAR comma
ENCODING 44
SWIDTH 361 0
DWIDTH 7 0
BBX 6 7 0 -3
BITMAP
3C
38
78
70
70
E0
E0
ENDCHAR
STARTCHAR hyphen
ENCODING 45
SWIDTH 479 0
DWIDTH 10 0
BBX 7 3 1 5
BITMAP
FE
FE
FE
ENDCHAR
STARTCHAR period
ENCODING 46
SWIDTH 361 0
DWIDTH 7 0
BBX 4 4 2 0
BITMAP
F0
F0
F0
F0
ENDCHAR
STARTCHAR slash
ENCODING 47
SWIDTH 689 0
DWIDTH 14 0
BBX 11 19 1 -3
BITMAP
00E0
01C0
01C0
01C0
0380
0380
0700
0700
0E00
0E00
0E00
1C00
1C00
3800
3800
7000
7000
7000
E000
ENDCHAR
STARTCHAR zero
ENCODING 48
SWIDTH 710 0
DWIDTH 14 0
BBX 12 15 1 0
BITMAP
1F80
3FC0
7FE0
79E0
F0F0
F0F0
F0F0
F0F0
F0F0
F0F0
F0F0
79E0
7FE0
3FC0
1F80
ENDCHAR
STARTCHAR one
ENCODING 49
SWIDTH 710 0
DWIDTH 14 0
BBX 10 15 3 0
BITMAP
1E00
1E00
FE00
FE00
FE00
1E00
1E00
1E00
1E00
1E00
1E00
1E00
FFC0
FFC0
FFC0
ENDCHAR
STARTCHAR two
ENCODING 50
SWIDTH 710 0
DWIDTH 14 0
BBX 11 15 2 0
BITMAP
7F00
FF80
FFC0
87C0
03C0
03C0
03C0
0780
0F00
1E00
3C00
7800
FFE0
FFE0
FFE0
ENDCHAR
STARTCHAR three
ENCODING 51
SWIDTH 710 0
DWIDTH 14 0
BBX 12 15 1 0
BITMAP
7F80
FFE0
FFF0
C0F0
00F0
00E0
0FE0
0F80
0FE0
00F0
00F0
C1F0
FFE0
FFE0
7F80
ENDCHAR
STARTCHAR four
ENCODING 52
SWIDTH 710 0
DWIDTH 14 0
BBX 12 15 1 0
BITMAP
07C0
07C0
0FC0
1FC0
1BC0
3BC0
33C0
63C0
E3C0
FFF0
FFF0
FFF0
03C0
03C0
03C0
ENDCHAR
STARTCHAR five
ENCODING 53
SWIDTH 710 0
DWIDTH 14 0
BBX 11 15 2 0
BITMAP
7FE0
7FE0
7FE0
7800
7800
7F80
7FC0
7FE0
03E0
01E0
01E0
C3E0
FFC0
FF80
7F00
ENDCHAR
STARTCHAR six
ENCODING 54
SWIDTH 710 0
DWIDTH 14 0
BBX 12 15 1 0
BITMAP
07E0
1FE0
3FE0
7C00
7800
F7C0
FFE0
FFF0
F1F0
F0F0
F0F0
79F0
7FE0
3FC0
1F80
ENDCHAR
STARTCHAR seven
ENCODING 55
SWIDTH 710 0
DWIDTH 14 0
BBX 11 15 2 0
BITMAP
FFE0
FFE0
FFE0
03E0
03C0
03C0
0780
0780
0F80
0F00
1F00
1E00
3E00
3C00
7C00
ENDCHAR
STARTCHAR eight
ENCODING 56
SWIDTH 710 0
DWIDTH 14 0
BBX 12 15 1 0
BITMAP
1F80
7FE0
FFF0
F0F0
F0F0
FCE0
7FC0
3FC0
77E0
F0F0
F0F0
F8F0
FFF0
7FE0
1F80
ENDCHAR
STARTCHAR nine
ENCODING 57
SWIDTH 710 0
DWIDTH 14 0
BBX 12 15 1 0
BITMAP
1F80
3FC0
7FE0
F9F0
F0F0
F0F0
F8F0
FFF0
7FF0
3EF0
01E0
03E0
7FC0
7F80
7E00
ENDCHAR
STARTCHAR colon
ENCODING 58
SWIDTH 402 0
DWIDTH 8 0
BBX 4 11 2 0
BITMAP
F0
F0
F0
F0
00
00
00
F0
F0
F0
F0
ENDCHAR
STARTCHAR semicolon
ENCODING 59
SWIDTH 402 0
DWIDTH 8 0
BBX 6 14 1 -3
BITMAP
78
78
78
78
00
00
00
3C
38
78
70
70
E0
E0
ENDCHAR
STARTCHAR less
ENCODING 60
SWIDTH 867 0
DWIDTH 17 0
BBX 13 13 2 0
BITMAP
0008
0078
01F8
07F0
3F80
FE00
F800
FE00
3F80
07F0
01F8
0078
0008
ENDCHAR
STARTCHAR equal
ENCODING 61
SWIDTH 867 0
DWIDTH 17 0
BBX 12 8 2 2
BITMAP
FFF0
FFF0
FFF0
0000
0000
FFF0
FFF0
FFF0
ENDCHAR
STARTCHAR greater
ENCODING 62
SWIDTH 867 0
DWIDTH 17 0
BBX 13 13 2 0
BITMAP
8000
F000
FC00
7F00
0FE0
03F8
00F8
03F8
0FE0
7F00
FC00
F000
8000
ENDCHAR
STARTCHAR question
ENCODING 63
SWIDTH 616 0
DWIDTH 12 0
BBX 10 15 1 0
BITMAP
7F00
FF80
FFC0
83C0
03C0
03C0
0780
1F00
3C00
3800
3800
0000
3C00
3C00
3C00
ENDCHAR
STARTCHAR at
ENCODING 64
SWIDTH 963 0
DWIDTH 19 0
BBX 17 17 1 -2
BITMAP
03F000
0FFC00
3C0E00
300700
63F300
67F180
CE3180
CC3180
CC3180
CC3180
CE3380
E7FF00
63FF00
700000
3C1000
1FF000
07F000
ENDCHAR
STARTCHAR A
ENCODING 65
SWIDTH 776 0
DWIDTH 16 0
BBX 16 15 0 0
BITMAP
03C0
07E0
07E0
0FF0
0FF0
0FF0
1E78
1E78
3E7C
3FFC
3FFC
7FFE
781E
781E
F00F
ENDCHAR
STARTCHAR B
ENCODING 66
SWIDTH 761 0
DWIDTH 15 0
BBX 12 15 2 0
BITMAP
FF80
FFC0
FFE0
F1E0
F1E0
F1E0
FFC0
FFC0
FFE0
F0F0
F0F0
F0F0
FFF0
FFE0
FF80
ENDCHAR
STARTCHAR C
ENCODING 67
SWIDTH 723 0
DWIDTH 14 0
BBX 12 15 1 0
BITMAP
0FC0
3FF0
3FF0
7C30
F810
F000
F000
F000
F000
F000
F810
7C30
7FF0
3FF0
0FC0
ENDCHAR
STARTCHAR D
ENCODING 68
SWIDTH 830 0
DWIDTH 17 0
BBX 14 15 2 0
BITMAP
FF80
FFE0
FFF0
F0F8
F078
F03C
F03C
F03C
F03C
F03C
F078
F0F8
FFF0
FFE0
FF80
ENDCHAR
STARTCHAR E
ENCODING 69
SWIDTH 683 0
DWIDTH 14 0
BBX 11 15 2 0
BITMAP
FFE0
FFE0
FFE0
F000
F000
F000
FFC0
FFC0
FFC0
F000
F000
F000
FFE0
FFE0
FFE0
ENDCHAR
STARTCHAR F
ENCODING 70
SWIDTH 650 0
DWIDTH 13 0
BBX 10 15 2 0
BITMAP
FFC0
FFC0
FFC0
F000
F000
F000
FFC0
FFC0
FFC0
F000
F000
F000
F000
F000
F000
ENDCHAR
STARTCHAR G
ENCODING 71
SWIDTH 811 0
DWIDTH 16 0
BBX 14 15 1 0
BITMAP
07F0
1FFC
3FFC
7C1C
7804
F000
F000
F1FC
F1FC
F1FC
F83C
7C3C
3FFC
1FFC
07F0
ENDCHAR
STARTCHAR H
ENCODING 72
SWIDTH 837 0
DWIDTH 17 0
BBX 13 15 2 0
BITMAP
F078
F078
F078
F078
F078
F078
FFF8
FFF8
FFF8
F078
F078
F078
F078
F078
F078
ENDCHAR
STARTCHAR I
ENCODING 73
SWIDTH 545 0
DWIDTH 11 0
BBX 8 15 2 0
BITMAP
FF
FF
FF
3C
3C
3C
3C
3C
3C
3C
3C
3C
FF
FF
FF
ENDCHAR
STARTCHAR J
ENCODING 74
SWIDTH 555 0
DWIDTH 11 0
BBX 9 15 0 0
BITMAP
3F80
3F80
3F80
0780
0780
0780
0780
0780
0780
0780
0780
0F80
FF80
FF00
FC00
ENDCHAR
STARTCHAR K
ENCODING 75
SWIDTH 770 0
DWIDTH 15 0
BBX 13 15 2 0
BITMAP
F0F8
F1F0
F1E0
F3C0
F780
FF80
FF00
FF00
FF80
F780
F3C0
F3E0
F1E0
F0F0
F0F8
ENDCHAR
STARTCHAR L
ENCODING 76
SWIDTH 637 0
DWIDTH 13 0
BBX 11 15 2 0
BITMAP
F000
F000
F000
F000
F000
F000
F000
F000
F000
F000
F000
F000
FFE0
FFE0
FFE0
ENDCHAR
STARTCHAR M
ENCODING 77
SWIDTH 947 0
DWIDTH 19 0
BBX 15 15 2 0
BITMAP
F83E
F83E
FC7E
FC7E
FE7E
FEFE
F6DE
F7DE
F7DE
F39E
F39E
F01E
F01E
F01E
F01E
ENDCHAR
STARTCHAR N
ENCODING 78
SWIDTH 846 0
DWIDTH 17 0
BBX 13 15 2 0
BITMAP
F878
FC78
FC78
FE78
FE78
FE78
F778
F778
F3F8
F3F8
F1F8
F1F8
F0F8
F0F8
F078
ENDCHAR
STARTCHAR O
ENCODING 79
SWIDTH 850 0
DWIDTH 17 0
BBX 15 15 1 0
BITMAP
0FE0
1FF0
3FF8
7C7C
F83E
F01E
F01E
F01E
F01E
F01E
F83E
7C7C
3FF8
1FF0
0FE0
ENDCHAR
STARTCHAR P
ENCODING 80
SWIDTH 732 0
DWIDTH 15 0
BBX 12 15 2 0
BITMAP
FF80
FFE0
FFF0
F1F0
F0F0
F0F0
F1F0
FFE0
FFC0
FF80
F000
F000
F000
F000
F000
ENDCHAR
STARTCHAR Q
ENCODING 81
SWIDTH 850 0
DWIDTH 17 0
BBX 15 19 1 -4
BITMAP
0FE0
1FF0
3FF8
7C7C
F83E
F01E
F01E
F01E
F01E
F01E
F83E
7C7C
3FF8
1FF8
0FE0
01E0
01FE
00FE
007E
ENDCHAR
STARTCHAR R
ENCODING 82
SWIDTH 782 0
DWIDTH 16 0
BBX 14 15 2 0
BITMAP
FFC0
FFE0
FFF0
F0F0
F0F0
F1F0
FFE0
FFC0
FF80
F7C0
F3E0
F1F0
F1F0
F0F8
F07C
ENDCHAR
STARTCHAR S
ENCODING 83
SWIDTH 710 0
DWIDTH 14 0
BBX 12 15 1 0
BITMAP
1FC0
7FE0
7FE0
F060
F000
FC00
FFC0
7FE0
1FF0
03F0
80F0
E0F0
FFE0
FFC0
3F80
ENDCHAR
STARTCHAR T
ENCODING 84
SWIDTH 681 0
DWIDTH 14 0
BBX 14 15 0 0
BITMAP
FFFC
FFFC
FFFC
0780
0780
0780
0780
0780
0780
0780
0780
0780
0780
0780
0780
ENDCHAR
STARTCHAR U
ENCODING 85
SWIDTH 812 0
DWIDTH 16 0
BBX 12 15 2 0
BITMAP
F0F0
F0F0
F0F0
F0F0
F0F0
F0F0
F0F0
F0F0
F0F0
F0F0
F0F0
F9F0
7FE0
7FE0
1F80
ENDCHAR
STARTCHAR V
ENCODING 86
SWIDTH 763 0
DWIDTH 15 0
BBX 15 15 0 0
BITMAP
F01E
783C
783C
783C
3C78
3C78
3C78
1EF0
1EF0
1EF0
0FE0
0FE0
0FE0
07C0
07C0
ENDCHAR
STARTCHAR W
ENCODING 87
SWIDTH 1128 0
DWIDTH 23 0
BBX 21 15 1 0
BITMAP
F07878
F0F878
78F8F0
78F8F0
78F8F0
79DCF0
3DDDE0
3DDDE0
3DDDE0
3D9DE0
1F8FC0
1F8FC0
1F8FC0
1F8FC0
0F0780
ENDCHAR
STARTCHAR X
ENCODING 88
SWIDTH 763 0
DWIDTH 15 0
BBX 15 15 0 0
BITMAP
F83E
7C7C
3CF8
3EF8
1FF0
0FE0
0FE0
07C0
0FE0
0FE0
1FF0
3EF8
3C78
7C7C
F83E
ENDCHAR
STARTCHAR Y
ENCODING 89
SWIDTH 736 0
DWIDTH 15 0
BBX 14 15 1 0
BITMAP
F87C
7878
7CF8
3CF0
3FF0
1FE0
1FC0
0FC0
0780
0780
0780
0780
0780
0780
0780
ENDCHAR
STARTCHAR Z
ENCODING 90
SWIDTH 691 0
DWIDTH 14 0
BBX 12 15 1 0
BITMAP
FFF0
FFF0
FFF0
01F0
03E0
07C0
0F80
0F00
1F00
3E00
7C00
F800
FFF0
FFF0
FFF0
ENDCHAR
STARTCHAR bracketleft
ENCODING 91
SWIDTH 543 0
DWIDTH 11 0
BBX 7 20 2 -4
BITMAP
FE
FE
E0
E0
E0
E0
E0
E0
E0
E0
E0
E0
E0
E0
E0
E0
E0
E0
FE
FE
ENDCHAR
STARTCHAR backslash
ENCODING 92
SWIDTH 689 0
DWIDTH 14 0
BBX 11 19 2 -3
BITMAP
E000
7000
7000
7000
3800
3800
1C00
1C00
0E00
0E00
0E00
0700
0700
0380
0380
01C0
01C0
01C0
00E0
ENDCHAR
STARTCHAR bracketright
ENCODING 93
SWIDTH 543 0
DWIDTH 11 0
BBX 7 20 2 -4
BITMAP
FE
FE
0E
0E
0E
0E
0E
0E
0E
0E
0E
0E
0E
0E
0E
0E
0E
0E
FE
FE
ENDCHAR
STARTCHAR asciicircum
ENCODING 94
SWIDTH 867 0
DWIDTH 17 0
BBX 14 8 2 7
BITMAP
0700
0780
0FC0
1DE0
3CE0
3870
7038
F03C
ENDCHAR
STARTCHAR underscore
ENCODING 95
SWIDTH 710 0
DWIDTH 14 0
BBX 14 2 0 -3
BITMAP
FFFC
FFFC
ENDCHAR
STARTCHAR grave
ENCODING 96
SWIDTH 710 0
DWIDTH 14 0
BBX 6 4 4 13
BITMAP
F0
70
38
1C
ENDCHAR
STARTCHAR a
ENCODING 97
SWIDTH 667 0
DWIDTH 13 0
BBX 10 11 1 0
BITMAP
7F00
7F80
43C0
03C0
3FC0
7FC0
F3C0
F3C0
F3C0
FFC0
7BC0
ENDCHAR
STARTCHAR b
ENCODING 98
SWIDTH 699 0
DWIDTH 14 0
BBX 11 16 2 0
BITMAP
F000
F000
F000
F000
F000
F780
FFC0
F3E0
F1E0
F1E0
F1E0
F1E0
F1E0
F3C0
FFC0
FF80
ENDCHAR
STARTCHAR c
ENCODING 99
SWIDTH 588 0
DWIDTH 12 0
BBX 10 11 1 0
BITMAP
1F80
3FC0
78C0
F040
F000
F000
F000
F040
78C0
3FC0
1F80
ENDCHAR
STARTCHAR d
ENCODING 100
SWIDTH 699 0
DWIDTH 14 0
BBX 11 16 1 0
BITMAP
01E0
01E0
01E0
01E0
01E0
1FE0
7FE0
79E0
F1E0
F1E0
F1E0
F1E0
F1E0
F9E0
7FE0
3DE0
ENDCHAR
STARTCHAR e
ENCODING 101
SWIDTH 664 0
DWIDTH 13 0
BBX 11 11 1 0
BITMAP
1F80
3FC0
71E0
F1E0
FFE0
FFE0
F000
F020
7860
3FE0
1FC0
ENDCHAR
STARTCHAR f
ENCODING 102
SWIDTH 422 0
DWIDTH 8 0
BBX 7 16 1 0
BITMAP
1E
3E
78
78
78
FE
FE
78
78
78
78
78
78
78
78
78
ENDCHAR
STARTCHAR g
ENCODING 103
SWIDTH 699 0
DWIDTH 14 0
BBX 11 15 1 -4
BITMAP
3FE0
7FE0
79E0
F1E0
F1E0
F1E0
F1E0
F1E0
F9E0
7FE0
3DE0
01E0
43C0
7FC0
7F00
ENDCHAR
STARTCHAR h
ENCODING 104
SWIDTH 712 0
DWIDTH 14 0
BBX 10 16 2 0
BITMAP
F000
F000
F000
F000
F000
F780
FFC0
F3C0
F3C0
F3C0
F3C0
F3C0
F3C0
F3C0
F3C0
F3C0
ENDCHAR
STARTCHAR i
ENCODING 105
SWIDTH 341 0
DWIDTH 7 0
BBX 4 16 2 0
BITMAP
F0
F0
F0
00
00
F0
F0
F0
F0
F0
F0
F0
F0
F0
F0
F0
ENDCHAR
STARTCHAR j
ENCODING 106
SWIDTH 402 0
DWIDTH 8 0
BBX 7 20 -1 -4
BITMAP
1E
1E
1E
00
00
7E
7E
1E
1E
1E
1E
1E
1E
1E
1E
1E
1E
1E
FC
F8
ENDCHAR
STARTCHAR k
ENCODING 107
SWIDTH 670 0
DWIDTH 13 0
BBX 11 16 2 0
BITMAP
F000
F000
F000
F000
F000
F3E0
F3C0
F780
FF00
FE00
FE00
FF00
F780
F380
F3C0
F3E0
ENDCHAR
STARTCHAR l
ENCODING 108
SWIDTH 341 0
DWIDTH 7 0
BBX 4 16 2 0
BITMAP
F0
F0
F0
F0
F0
F0
F0
F0
F0
F0
F0
F0
F0
F0
F0
F0
ENDCHAR
STARTCHAR m
ENCODING 109
SWIDTH 1058 0
DWIDTH 21 0
BBX 16 11 3 0
BITMAP
F71C
FFBE
F3CF
F3CF
F3CF
F3CF
F3CF
F3CF
F3CF
F3CF
F3CF
ENDCHAR
STARTCHAR n
ENCODING 110
SWIDTH 712 0
DWIDTH 14 0
BBX 10 11 2 0
BITMAP
F780
FFC0
F3C0
F3C0
F3C0
F3C0
F3C0
F3C0
F3C0
F3C0
F3C0
ENDCHAR
STARTCHAR o
ENCODING 111
SWIDTH 686 0
DWIDTH 14 0
BBX 12 11 1 0
BITMAP
1F80
3FC0
79E0
F0F0
F0F0
F0F0
F0F0
F0F0
79E0
3FC0
1F80
ENDCHAR
STARTCHAR p
ENCODING 112
SWIDTH 699 0
DWIDTH 14 0
BBX 11 15 2 -4
BITMAP
F780
FFC0
F3E0
F1E0
F1E0
F1E0
F1E0
F1E0
F3C0
FFC0
FF80
F000
F000
F000
F000
ENDCHAR
STARTCHAR q
ENCODING 113
SWIDTH 699 0
DWIDTH 14 0
BBX 11 15 1 -4
BITMAP
1FE0
7FE0
79E0
F1E0
F1E0
F1E0
F1E0
F1E0
F9E0
7FE0
3DE0
01E0
01E0
01E0
01E0
ENDCHAR
STARTCHAR r
ENCODING 114
SWIDTH 497 0
DWIDTH 10 0
BBX 8 11 2 0
BITMAP
F7
FF
F0
F0
F0
F0
F0
F0
F0
F0
F0
ENDCHAR
STARTCHAR s
ENCODING 115
SWIDTH 593 0
DWIDTH 12 0
BBX 10 11 1 0
BITMAP
1F80
7FC0
F0C0
F040
FF00
7F80
3FC0
83C0
C3C0
FF80
7F00
ENDCHAR
STARTCHAR t
ENCODING 116
SWIDTH 455 0
DWIDTH 9 0
BBX 8 14 1 0
BITMAP
78
78
78
FF
FF
78
78
78
78
78
78
78
7F
1F
ENDCHAR
STARTCHAR u
ENCODING 117
SWIDTH 712 0
DWIDTH 14 0
BBX 10 11 2 0
BITMAP
F3C0
F3C0
F3C0
F3C0
F3C0
F3C0
F3C0
F3C0
F3C0
FFC0
7BC0
ENDCHAR
STARTCHAR v
ENCODING 118
SWIDTH 649 0
DWIDTH 13 0
BBX 13 11 0 0
BITMAP
F078
78F0
78F0
78F0
3DE0
3DE0
1DC0
1FC0
1FC0
0F80
0F80
ENDCHAR
STARTCHAR w
ENCODING 119
SWIDTH 979 0
DWIDTH 20 0
BBX 20 11 0 0
BITMAP
F0F0F0
F8F1F0
78F1E0
79F9E0
79F9E0
3D9BC0
3D9FC0
3F9FC0
1F9F80
1F0F80
1F0F80
ENDCHAR
STARTCHAR x
ENCODING 120
SWIDTH 668 0
DWIDTH 13 0
BBX 13 11 0 0
BITMAP
F8F8
78F0
3DE0
1FC0
1FC0
0F80
1FC0
1FC0
3DE0
78F0
F8F8
ENDCHAR
STARTCHAR y
ENCODING 121
SWIDTH 650 0
DWIDTH 13 0
BBX 13 15 0 -4
BITMAP
F078
78F0
78F0
78F0
3DE0
3DE0
1FC0
1FC0
1F80
0F80
0F80
0F00
1F00
1E00
1E00
ENDCHAR
STARTCHAR z
ENCODING 122
SWIDTH 596 0
DWIDTH 12 0
BBX 10 11 1 0
BITMAP
FFC0
FFC0
0780
0780
0F00
1E00
3C00
7800
7800
FFC0
FFC0
ENDCHAR
STARTCHAR braceleft
ENCODING 123
SWIDTH 710 0
DWIDTH 14 0
BBX 11 20 1 -4
BITMAP
03E0
07E0
0F00
0E00
0E00
0E00
0E00
0E00
1C00
F800
F800
1C00
0E00
0E00
0E00
0E00
0E00
0F00
07E0
03E0
ENDCHAR
STARTCHAR bar
ENCODING 124
SWIDTH 543 0
DWIDTH 11 0
BBX 3 20 4 -4
BITMAP
E0
E0
E0
E0
E0
E0
E0
E0
E0
E0
E0
E0
E0
E0
E0
E0
E0
E0
E0
E0
ENDCHAR
STARTCHAR braceright
ENCODING 125
SWIDTH 710 0
DWIDTH 14 0
BBX 11 20 2 -4
BITMAP
F800
FC00
1E00
0E00
0E00
0E00
0E00
0E00
0700
03E0
03E0
0700
0E00
0E00
0E00
0E00
0E00
1E00
FC00
F800
ENDCHAR
STARTCHAR asciitilde
ENCODING 126
SWIDTH 867 0
DWIDTH 17 0
BBX 14 7 2 3
BITMAP
3C1C
7E1C
7F1C
E79C
E3F8
E1F8
E0F0
ENDCHAR
STARTCHAR space.dup1
ENCODING 160
SWIDTH 341 0
DWIDTH 7 0
BBX 1 1 0 0
BITMAP
00
ENDCHAR
STARTCHAR exclamdown
ENCODING 161
SWIDTH 402 0
DWIDTH 8 0
BBX 4 15 2 0
BITMAP
F0
F0
F0
00
00
F0
F0
F0
F0
F0
F0
F0
F0
F0
F0
ENDCHAR
STARTCHAR cent
ENCODING 162
SWIDTH 710 0
DWIDTH 14 0
BBX 10 17 2 -3
BITMAP
0200
0200
0200
1F80
3FC0
7AC0
F240
F200
F200
F200
F240
7AC0
3FC0
1F80
0200
0200
0200
ENDCHAR
STARTCHAR sterling
ENCODING 163
SWIDTH 710 0
DWIDTH 14 0
BBX 11 15 2 0
BITMAP
0FC0
1FC0
3FC0
3E40
3C00
3C00
3C00
FF80
FF80
FF80
3C00
7800
FFE0
FFE0
FFE0
ENDCHAR
STARTCHAR currency
ENCODING 164
SWIDTH 710 0
DWIDTH 14 0
BBX 10 10 2 1
BITMAP
C0C0
FFC0
7F80
7380
6180
6180
7380
7F80
FFC0
C0C0
ENDCHAR
STARTCHAR yen
ENCODING 165
SWIDTH 710 0
DWIDTH 14 0
BBX 14 15 0 0
BITMAP
F87C
7878
7CF8
3FF0
1FE0
1FE0
0FC0
0FC0
0780
3FF0
3FF0
0780
3FF0
3FF0
0780
ENDCHAR
STARTCHAR brokenbar
ENCODING 166
SWIDTH 543 0
DWIDTH 11 0
BBX 3 20 4 -4
BITMAP
E0
E0
E0
E0
E0
E0
E0
E0
00
00
00
00
E0
E0
E0
E0
E0
E0
E0
E0
ENDCHAR
STARTCHAR section
ENCODING 167
SWIDTH 710 0
DWIDTH 14 0
BBX 12 19 1 -4
BITMAP
1FE0
7FE0
FFE0
F000
F800
7F00
3FC0
7FE0
F1F0
F0F0
F8F0
FFE0
3FC0
0FE0
01F0
00F0
7FF0
7FE0
7F80
ENDCHAR
STARTCHAR dieresis
ENCODING 168
SWIDTH 710 0
DWIDTH 14 0
BBX 8 3 3 13
BITMAP
E7
E7
E7
ENDCHAR
STARTCHAR copyright
ENCODING 169
SWIDTH 963 0
DWIDTH 19 0
BBX 17 17 1 -2
BITMAP
03E000
0FF800
3C1E00
300600
61E300
67F300
CE1180
CC0180
CC0180
CC0180
CE1180
67F300
63E300
300600
3C1E00
0FF800
03E000
ENDCHAR
STARTCHAR ordfeminine
ENCODING 170
SWIDTH 597 0
DWIDTH 12 0
BBX 9 9 1 6
BITMAP
7E00
7F80
4380
3F80
7F80
E380
E380
FF80
7B80
ENDCHAR
STARTCHAR guillemotleft
ENCODING 171
SWIDTH 849 0
DWIDTH 17 0
BBX 12 10 2 1
BITMAP
0410
0C30
1C70
79E0
F3C0
F3C0
79E0
1C70
0C30
0410
ENDCHAR
STARTCHAR logicalnot
ENCODING 172
SWIDTH 867 0
DWIDTH 17 0
BBX 13 8 2 0
BITMAP
FFF8
FFF8
FFF8
0038
0038
0038
0038
0038
ENDCHAR
STARTCHAR hyphen.dup2
ENCODING 173
SWIDTH 479 0
DWIDTH 10 0
BBX 7 3 1 5
BITMAP
FE
FE
FE
ENDCHAR
STARTCHAR registered
ENCODING 174
SWIDTH 963 0
DWIDTH 19 0
BBX 17 17 1 -2
BITMAP
03E000
0FF800
3C1E00
300600
67E300
67F300
C63180
C63180
C7E180
C7C180
C6E180
667300
663B00
300600
3C1E00
0FF800
03E000
ENDCHAR
STARTCHAR overscore
ENCODING 175
SWIDTH 710 0
DWIDTH 14 0
BBX 14 2 0 16
BITMAP
FFFC
FFFC
ENDCHAR
STARTCHAR degree
ENCODING 176
SWIDTH 587 0
DWIDTH 12 0
BBX 8 8 2 7
BITMAP
3C
7E
E7
C3
C3
E7
7E
3C
ENDCHAR
STARTCHAR plusminus
ENCODING 177
SWIDTH 867 0
DWIDTH 17 0
BBX 13 14 2 0
BITMAP
0700
0700
0700
0700
0700
FFF8
FFF8
FFF8
0700
0700
0700
FFF8
FFF8
FFF8
ENDCHAR
STARTCHAR twosuperior
ENCODING 178
SWIDTH 597 0
DWIDTH 12 0
BBX 8 9 2 6
BITMAP
FC
FE
8E
0E
0C
3C
70
FF
FF
ENDCHAR
STARTCHAR threesuperior
ENCODING 179
SWIDTH 597 0
DWIDTH 12 0
BBX 8 9 2 6
BITMAP
7E
FF
87
3E
3E
07
87
FF
FC
ENDCHAR
STARTCHAR acute
ENCODING 180
SWIDTH 710 0
DWIDTH 14 0
BBX 6 4 5 13
BITMAP
3C
38
70
E0
ENDCHAR
STARTCHAR mu1
ENCODING 181
SWIDTH 721 0
DWIDTH 14 0
BBX 10 15 2 -4
BITMAP
F3C0
F3C0
F3C0
F3C0
F3C0
F3C0
F3C0
F3C0
F3C0
FFC0
FFC0
F000
F000
F000
F000
ENDCHAR
STARTCHAR paragraph
ENCODING 182
SWIDTH 710 0
DWIDTH 14 0
BBX 11 19 1 -4
BITMAP
1FE0
7FE0
FF60
FF60
FF60
FF60
FF60
7F60
1F60
0360
0360
0360
0360
0360
0360
0360
0360
0360
0360
ENDCHAR
STARTCHAR middot
ENCODING 183
SWIDTH 361 0
DWIDTH 7 0
BBX 4 4 2 5
BITMAP
F0
F0
F0
F0
ENDCHAR
STARTCHAR cedilla
ENCODING 184
SWIDTH 710 0
DWIDTH 14 0
BBX 6 4 4 -4
BITMAP
0C
0C
FC
F0
ENDCHAR
STARTCHAR onesuperior
ENCODING 185
SWIDTH 597 0
DWIDTH 12 0
BBX 7 9 3 6
BITMAP
38
F8
F8
38
38
38
38
FE
FE
ENDCHAR
STARTCHAR ordmasculine
ENCODING 186
SWIDTH 597 0
DWIDTH 12 0
BBX 10 9 1 6
BITMAP
3F00
7F80
F3C0
E1C0
E1C0
E1C0
F3C0
7F80
3F00
ENDCHAR
STARTCHAR guillemotright
ENCODING 187
SWIDTH 849 0
DWIDTH 17 0
BBX 12 10 3 1
BITMAP
8200
C300
E380
79E0
3CF0
3CF0
79E0
E380
C300
8200
ENDCHAR
STARTCHAR onequarter
ENCODING 188
SWIDTH 1181 0
DWIDTH 24 0
BBX 21 15 2 0
BITMAP
380C00
F81800
F81800
383000
387000
386000
38E1E0
38C3E0
3987E0
018EE0
030CE0
030FF8
060FF8
0600E0
0C00E0
ENDCHAR
STARTCHAR onehalf
ENCODING 189
SWIDTH 1181 0
DWIDTH 24 0
BBX 20 15 2 0
BITMAP
381800
F81800
F83000
383000
386000
386000
38CFC0
38CFE0
3988E0
0380E0
0300E0
0701C0
060700
0E0FF0
0C0FF0
ENDCHAR
STARTCHAR threequarters
ENCODING 190
SWIDTH 1181 0
DWIDTH 24 0
BBX 21 15 2 0
BITMAP
FC0E00
FE0C00
861C00
3C1800
3E3800
0E3000
8F60E0
FE61E0
FCC3E0
00C7E0
018EE0
018FF8
030FF8
0300E0
0600E0
ENDCHAR
STARTCHAR questiondown
ENCODING 191
SWIDTH 616 0
DWIDTH 12 0
BBX 10 15 1 0
BITMAP
0F00
0F00
0F00
0000
0700
0700
0F00
3E00
7800
F000
F000
F040
FFC0
7FC0
3F80
ENDCHAR
STARTCHAR Agrave
ENCODING 192
SWIDTH 776 0
DWIDTH 16 0
BBX 16 21 0 0
BITMAP
0700
0380
01C0
00C0
0000
0000
03C0
07E0
07E0
0FF0
0FF0
0FF0
1E78
1E78
3E7C
3FFC
3FFC
7FFE
781E
781E
F00F
ENDCHAR
STARTCHAR Aacute
ENCODING 193
SWIDTH 776 0
DWIDTH 16 0
BBX 16 21 0 0
BITMAP
00E0
01C0
0380
0300
0000
0000
03C0
07E0
07E0
0FF0
0FF0
0FF0
1E78
1E78
3E7C
3FFC
3FFC
7FFE
781E
781E
F00F
ENDCHAR
STARTCHAR Acircumflex
ENCODING 194
SWIDTH 776 0
DWIDTH 16 0
BBX 16 21 0 0
BITMAP
03C0
03E0
0760
0E30
0000
0000
03C0
07E0
07E0
0FF0
0FF0
0FF0
1E78
1E78
3E7C
3FFC
3FFC
7FFE
781E
781E
F00F
ENDCHAR
STARTCHAR Atilde
ENCODING 195
SWIDTH 776 0
DWIDTH 16 0
BBX 16 20 0 0
BITMAP
0F30
0FF0
18E0
0000
0000
03C0
07E0
07E0
0FF0
0FF0
0FF0
1E78
1E78
3E7C
3FFC
3FFC
7FFE
781E
781E
F00F
ENDCHAR
STARTCHAR Adieresis
ENCODING 196
SWIDTH 776 0
DWIDTH 16 0
BBX 16 20 0 0
BITMAP
0738
0738
0738
0000
0000
03C0
07E0
07E0
0FF0
0FF0
0FF0
1E78
1E78
3E7C
3FFC
3FFC
7FFE
781E
781E
F00F
ENDCHAR
STARTCHAR Aring
ENCODING 197
SWIDTH 776 0
DWIDTH 16 0
BBX 16 20 0 0
BITMAP
03C0
07E0
0C30
0C30
0C30
07E0
07E0
07E0
0FF0
0FF0
0FF0
1E78
1E78
3E7C
3FFC
3FFC
7FFE
781E
781E
F00F
ENDCHAR
STARTCHAR AE
ENCODING 198
SWIDTH 1093 0
DWIDTH 22 0
BBX 21 15 0 0
BITMAP
03FFF8
07FFF8
07FFF8
07BC00
0F3C00
0F3C00
1F3FF0
1E3FF0
1FFFF0
3FFC00
3FFC00
7C3C00
783FF8
783FF8
F83FF8
ENDCHAR
STARTCHAR Ccedilla
ENCODING 199
SWIDTH 723 0
DWIDTH 14 0
BBX 12 19 1 -4
BITMAP
0FC0
3FF0
3FF0
7C30
F810
F000
F000
F000
F000
F000
F810
7C30
7FF0
3FF0
0FC0
0180
0180
1F00
1E00
ENDCHAR
STARTCHAR Egrave
ENCODING 200
SWIDTH 683 0
DWIDTH 14 0
BBX 11 21 2 0
BITMAP
3C00
1E00
0E00
0700
0000
0000
FFE0
FFE0
FFE0
F000
F000
F000
FFC0
FFC0
FFC0
F000
F000
F000
FFE0
FFE0
FFE0
ENDCHAR
STARTCHAR Eacute
ENCODING 201
SWIDTH 683 0
DWIDTH 14 0
BBX 11 21 2 0
BITMAP
0780
0700
0E00
1C00
0000
0000
FFE0
FFE0
FFE0
F000
F000
F000
FFC0
FFC0
FFC0
F000
F000
F000
FFE0
FFE0
FFE0
ENDCHAR
STARTCHAR Ecircumflex
ENCODING 202
SWIDTH 683 0
DWIDTH 14 0
BBX 11 21 2 0
BITMAP
0E00
1F00
3B80
71C0
0000
0000
FFE0
FFE0
FFE0
F000
F000
F000
FFC0
FFC0
FFC0
F000
F000
F000
FFE0
FFE0
FFE0
ENDCHAR
STARTCHAR Edieresis
ENCODING 203
SWIDTH 683 0
DWIDTH 14 0
BBX 11 20 2 0
BITMAP
39C0
39C0
39C0
0000
0000
FFE0
FFE0
FFE0
F000
F000
F000
FFC0
FFC0
FFC0
F000
F000
F000
FFE0
FFE0
FFE0
ENDCHAR
STARTCHAR Igrave
ENCODING 204
SWIDTH 545 0
DWIDTH 11 0
BBX 8 21 2 0
BITMAP
70
78
38
1C
00
00
FF
FF
FF
3C
3C
3C
3C
3C
3C
3C
3C
3C
FF
FF
FF
ENDCHAR
STARTCHAR Iacute
ENCODING 205
SWIDTH 545 0
DWIDTH 11 0
BBX 8 21 2 0
BITMAP
0E
1C
38
30
00
00
FF
FF
FF
3C
3C
3C
3C
3C
3C
3C
3C
3C
FF
FF
FF
ENDCHAR
STARTCHAR Icircumflex
ENCODING 206
SWIDTH 545 0
DWIDTH 11 0
BBX 8 21 2 0
BITMAP
3C
7C
6E
C7
00
00
FF
FF
FF
3C
3C
3C
3C
3C
3C
3C
3C
3C
FF
FF
FF
ENDCHAR
STARTCHAR Idieresis
ENCODING 207
SWIDTH 545 0
DWIDTH 11 0
BBX 8 20 2 0
BITMAP
E7
E7
E7
00
00
FF
FF
FF
3C
3C
3C
3C
3C
3C
3C
3C
3C
FF
FF
FF
ENDCHAR
STARTCHAR Eth
ENCODING 208
SWIDTH 830 0
DWIDTH 17 0
BBX 16 15 0 0
BITMAP
3FE0
3FF8
3FFC
3C3E
3C1E
3C0F
FF8F
FF8F
FF8F
3C0F
3C1E
3C3E
3FFC
3FF8
3FE0
ENDCHAR
STARTCHAR Ntilde
ENCODING 209
SWIDTH 846 0
DWIDTH 17 0
BBX 13 20 2 0
BITMAP
0E60
1FE0
31C0
0000
0000
F878
FC78
FC78
FE78
FE78
FE78
F778
F778
F3F8
F3F8
F1F8
F1F8
F0F8
F0F8
F078
ENDCHAR
STARTCHAR Ograve
ENCODING 210
SWIDTH 850 0
DWIDTH 17 0
BBX 15 21 1 0
BITMAP
0700
0380
0180
01C0
0000
0000
0FE0
1FF0
3FF8
7C7C
F83E
F01E
F01E
F01E
F01E
F01E
F83E
7C7C
3FF8
1FF0
0FE0
ENDCHAR
STARTCHAR Oacute
ENCODING 211
SWIDTH 850 0
DWIDTH 17 0
BBX 15 21 1 0
BITMAP
00E0
01C0
0380
0300
0000
0000
0FE0
1FF0
3FF8
7C7C
F83E
F01E
F01E
F01E
F01E
F01E
F83E
7C7C
3FF8
1FF0
0FE0
ENDCHAR
STARTCHAR Ocircumflex
ENCODING 212
SWIDTH 850 0
DWIDTH 17 0
BBX 15 21 1 0
BITMAP
03C0
07C0
06E0
0C70
0000
0000
0FE0
1FF0
3FF8
7C7C
F83E
F01E
F01E
F01E
F01E
F01E
F83E
7C7C
3FF8
1FF0
0FE0
ENDCHAR
STARTCHAR Otilde
ENCODING 213
SWIDTH 850 0
DWIDTH 17 0
BBX 15 20 1 0
BITMAP
0730
0FF0
18E0
0000
0000
0FE0
1FF0
3FF8
7C7C
F83E
F01E
F01E
F01E
F01E
F01E
F83E
7C7C
3FF8
1FF0
0FE0
ENDCHAR
STARTCHAR Odieresis
ENCODING 214
SWIDTH 850 0
DWIDTH 17 0
BBX 15 20 1 0
BITMAP
1CE0
1CE0
1CE0
0000
0000
0FE0
1FF0
3FF8
7C7C
F83E
F01E
F01E
F01E
F01E
F01E
F83E
7C7C
3FF8
1FF0
0FE0
ENDCHAR
STARTCHAR multiply
ENCODING 215
SWIDTH 867 0
DWIDTH 17 0
BBX 11 11 3 1
BITMAP
C060
E0E0
71C0
3B80
1F00
0E00
1F00
3B80
71C0
E0E0
C060
ENDCHAR
STARTCHAR Oslash
ENCODING 216
SWIDTH 850 0
DWIDTH 17 0
BBX 15 17 1 -1
BITMAP
000E
0FEC
1FF8
3FF8
7C7C
F87E
F0DE
F19E
F31E
F31E
F61E
FC3E
7C7C
3FF8
3FF0
6FE0
C000
ENDCHAR
STARTCHAR Ugrave
ENCODING 217
SWIDTH 812 0
DWIDTH 16 0
BBX 12 21 2 0
BITMAP
1C00
0E00
0600
0700
0000
0000
F0F0
F0F0
F0F0
F0F0
F0F0
F0F0
F0F0
F0F0
F0F0
F0F0
F0F0
F9F0
7FE0
7FE0
1F80
ENDCHAR
STARTCHAR Uacute
ENCODING 218
SWIDTH 812 0
DWIDTH 16 0
BBX 12 21 2 0
BITMAP
0380
0700
0E00
0C00
0000
0000
F0F0
F0F0
F0F0
F0F0
F0F0
F0F0
F0F0
F0F0
F0F0
F0F0
F0F0
F9F0
7FE0
7FE0
1F80
ENDCHAR
STARTCHAR Ucircumflex
ENCODING 219
SWIDTH 812 0
DWIDTH 16 0
BBX 12 21 2 0
BITMAP
0700
0F80
1DC0
38E0
0000
0000
F0F0
F0F0
F0F0
F0F0
F0F0
F0F0
F0F0
F0F0
F0F0
F0F0
F0F0
F9F0
7FE0
7FE0
1F80
ENDCHAR
STARTCHAR Udieresis
ENCODING 220
SWIDTH 812 0
DWIDTH 16 0
BBX 12 20 2 0
BITMAP
39C0
39C0
39C0
0000
0000
F0F0
F0F0
F0F0
F0F0
F0F0
F0F0
F0F0
F0F0
F0F0
F0F0
F0F0
F9F0
7FE0
7FE0
1F80
ENDCHAR
STARTCHAR Yacute
ENCODING 221
SWIDTH 736 0
DWIDTH 15 0
BBX 14 21 1 0
BITMAP
01E0
01C0
0380
0700
0000
0000
F87C
7878
7CF8
3CF0
3FF0
1FE0
1FC0
0FC0
0780
0780
0780
0780
0780
0780
0780
ENDCHAR
STARTCHAR Thorn
ENCODING 222
SWIDTH 734 0
DWIDTH 15 0
BBX 12 15 2 0
BITMAP
F000
F000
FF80
FFE0
FFF0
F1F0
F0F0
F0F0
F1F0
FFE0
FFC0
FF80
F000
F000
F000
ENDCHAR
STARTCHAR germandbls
ENCODING 223
SWIDTH 712 0
DWIDTH 14 0
BBX 11 16 2 0
BITMAP
1F00
7F80
73C0
F3C0
F3C0
F380
F700
F780
F3C0
F1E0
F1E0
F1E0
F1E0
F3C0
FFC0
FF00
ENDCHAR
STARTCHAR agrave
ENCODING 224
SWIDTH 667 0
DWIDTH 13 0
BBX 10 17 1 0
BITMAP
1C00
0E00
0700
0300
0000
0000
7F00
7F80
43C0
03C0
3FC0
7FC0
F3C0
F3C0
F3C0
FFC0
7BC0
ENDCHAR
STARTCHAR aacute
ENCODING 225
SWIDTH 667 0
DWIDTH 13 0
BBX 10 17 1 0
BITMAP
0700
0E00
0C00
1C00
0000
0000
7F00
7F80
43C0
03C0
3FC0
7FC0
F3C0
F3C0
F3C0
FFC0
7BC0
ENDCHAR
STARTCHAR acircumflex
ENCODING 226
SWIDTH 667 0
DWIDTH 13 0
BBX 10 17 1 0
BITMAP
1C00
3E00
3700
6380
0000
0000
7F00
7F80
43C0
03C0
3FC0
7FC0
F3C0
F3C0
F3C0
FFC0
7BC0
ENDCHAR
STARTCHAR atilde
ENCODING 227
SWIDTH 667 0
DWIDTH 13 0
BBX 10 16 1 0
BITMAP
3980
7F80
6700
0000
0000
7F00
7F80
43C0
03C0
3FC0
7FC0
F3C0
F3C0
F3C0
FFC0
7BC0
ENDCHAR
STARTCHAR adieresis
ENCODING 228
SWIDTH 667 0
DWIDTH 13 0
BBX 10 16 1 0
BITMAP
7380
7380
7380
0000
0000
7F00
7F80
43C0
03C0
3FC0
7FC0
F3C0
F3C0
F3C0
FFC0
7BC0
ENDCHAR
STARTCHAR aring
ENCODING 229
SWIDTH 667 0
DWIDTH 13 0
BBX 10 17 1 0
BITMAP
1E00
3F00
3300
3300
3300
1E00
7F00
7F80
43C0
03C0
3FC0
7FC0
F3C0
F3C0
F3C0
FFC0
7BC0
ENDCHAR
STARTCHAR ae
ENCODING 230
SWIDTH 1018 0
DWIDTH 20 0
BBX 18 11 1 0
BITMAP
7F3F00
7FFF80
41E3C0
01E3C0
1FFFC0
7FFFC0
F9E000
F1E040
F1F0C0
FF7FC0
3C3F80
ENDCHAR
STARTCHAR ccedilla
ENCODING 231
SWIDTH 588 0
DWIDTH 12 0
BBX 10 15 1 -4
BITMAP
1F80
3FC0
78C0
F040
F000
F000
F000
F040
78C0
3FC0
1F80
0300
0300
3E00
3C00
ENDCHAR
STARTCHAR egrave
ENCODING 232
SWIDTH 664 0
DWIDTH 13 0
BBX 11 17 1 0
BITMAP
3C00
1C00
0E00
0600
0000
0000
1F80
3FC0
71E0
F1E0
FFE0
FFE0
F000
F020
7860
3FE0
1FC0
ENDCHAR
STARTCHAR eacute
ENCODING 233
SWIDTH 664 0
DWIDTH 13 0
BBX 11 17 1 0
BITMAP
0780
0F00
0E00
1C00
0000
0000
1F80
3FC0
71E0
F1E0
FFE0
FFE0
F000
F020
7860
3FE0
1FC0
ENDCHAR
STARTCHAR ecircumflex
ENCODING 234
SWIDTH 664 0
DWIDTH 13 0
BBX 11 17 1 0
BITMAP
0E00
1F00
3B80
7180
0000
0000
1F80
3FC0
71E0
F1E0
FFE0
FFE0
F000
F020
7860
3FE0
1FC0
ENDCHAR
STARTCHAR edieresis
ENCODING 235
SWIDTH 664 0
DWIDTH 13 0
BBX 11 16 1 0
BITMAP
39C0
39C0
39C0
0000
0000
1F80
3FC0
71E0
F1E0
FFE0
FFE0
F000
F020
7860
3FE0
1FC0
ENDCHAR
STARTCHAR igrave
ENCODING 236
SWIDTH 341 0
DWIDTH 7 0
BBX 5 17 1 0
BITMAP
E0
F0
70
38
00
00
78
78
78
78
78
78
78
78
78
78
78
ENDCHAR
STARTCHAR iacute
ENCODING 237
SWIDTH 341 0
DWIDTH 7 0
BBX 6 17 2 0
BITMAP
3C
38
70
60
00
00
F0
F0
F0
F0
F0
F0
F0
F0
F0
F0
F0
ENDCHAR
STARTCHAR icircumflex
ENCODING 238
SWIDTH 341 0
DWIDTH 7 0
BBX 8 17 0 0
BITMAP
3C
3C
7E
E7
00
00
3C
3C
3C
3C
3C
3C
3C
3C
3C
3C
3C
ENDCHAR
STARTCHAR idieresis
ENCODING 239
SWIDTH 341 0
DWIDTH 7 0
BBX 8 16 0 0
BITMAP
E7
E7
E7
00
00
3C
3C
3C
3C
3C
3C
3C
3C
3C
3C
3C
ENDCHAR
STARTCHAR eth
ENCODING 240
SWIDTH 679 0
DWIDTH 14 0
BBX 12 16 1 0
BITMAP
1E40
0FE0
3FC0
31C0
01E0
1FE0
7FF0
79F0
F0F0
F0F0
F0F0
F0F0
F0E0
79E0
3FC0
1F80
ENDCHAR
STARTCHAR ntilde
ENCODING 241
SWIDTH 712 0
DWIDTH 14 0
BBX 10 16 2 0
BITMAP
3CC0
7FC0
6380
0000
0000
F780
FFC0
F3C0
F3C0
F3C0
F3C0
F3C0
F3C0
F3C0
F3C0
F3C0
ENDCHAR
STARTCHAR ograve
ENCODING 242
SWIDTH 686 0
DWIDTH 14 0
BBX 12 17 1 0
BITMAP
1E00
0E00
0700
0300
0000
0000
1F80
3FC0
79E0
F0F0
F0F0
F0F0
F0F0
F0F0
79E0
3FC0
1F80
ENDCHAR
STARTCHAR oacute
ENCODING 243
SWIDTH 686 0
DWIDTH 14 0
BBX 12 17 1 0
BITMAP
0380
0780
0700
0E00
0000
0000
1F80
3FC0
79E0
F0F0
F0F0
F0F0
F0F0
F0F0
79E0
3FC0
1F80
ENDCHAR
STARTCHAR ocircumflex
ENCODING 244
SWIDTH 686 0
DWIDTH 14 0
BBX 12 17 1 0
BITMAP
0700
0F80
1DC0
38C0
0000
0000
1F80
3FC0
79E0
F0F0
F0F0
F0F0
F0F0
F0F0
79E0
3FC0
1F80
ENDCHAR
STARTCHAR otilde
ENCODING 245
SWIDTH 686 0
DWIDTH 14 0
BBX 12 16 1 0
BITMAP
1C60
3FC0
33C0
0000
0000
1F80
3FC0
79E0
F0F0
F0F0
F0F0
F0F0
F0F0
79E0
3FC0
1F80
ENDCHAR
STARTCHAR odieresis
ENCODING 246
SWIDTH 686 0
DWIDTH 14 0
BBX 12 16 1 0
BITMAP
1CE0
1CE0
1CE0
0000
0000
1F80
3FC0
79E0
F0F0
F0F0
F0F0
F0F0
F0F0
79E0
3FC0
1F80
ENDCHAR
STARTCHAR divide
ENCODING 247
SWIDTH 867 0
DWIDTH 17 0
BBX 13 13 2 0
BITMAP
0700
0700
0700
0000
0000
FFF8
FFF8
FFF8
0000
0000
0700
0700
0700
ENDCHAR
STARTCHAR oslash
ENCODING 248
SWIDTH 686 0
DWIDTH 14 0
BBX 12 13 1 -1
BITMAP
0010
1FA0
3FC0
79E0
F1F0
F3F0
F2F0
F4F0
F8F0
71E0
3FC0
5F80
8000
ENDCHAR
STARTCHAR ugrave
ENCODING 249
SWIDTH 712 0
DWIDTH 14 0
BBX 10 17 2 0
BITMAP
3C00
1E00
0E00
0700
0000
0000
F3C0
F3C0
F3C0
F3C0
F3C0
F3C0
F3C0
F3C0
F3C0
FFC0
7BC0
ENDCHAR
STARTCHAR uacute
ENCODING 250
SWIDTH 712 0
DWIDTH 14 0
BBX 10 17 2 0
BITMAP
0700
0E00
0E00
1C00
0000
0000
F3C0
F3C0
F3C0
F3C0
F3C0
F3C0
F3C0
F3C0
F3C0
FFC0
7BC0
ENDCHAR
STARTCHAR ucircumflex
ENCODING 251
SWIDTH 712 0
DWIDTH 14 0
BBX 10 17 2 0
BITMAP
0E00
1F00
3B80
71C0
0000
0000
F3C0
F3C0
F3C0
F3C0
F3C0
F3C0
F3C0
F3C0
F3C0
FFC0
7BC0
ENDCHAR
STARTCHAR udieresis
ENCODING 252
SWIDTH 712 0
DWIDTH 14 0
BBX 10 16 2 0
BITMAP
7380
7380
7380
0000
0000
F3C0
F3C0
F3C0
F3C0
F3C0
F3C0
F3C0
F3C0
F3C0
FFC0
7BC0
ENDCHAR
STARTCHAR yacute
ENCODING 253
SWIDTH 650 0
DWIDTH 13 0
BBX 13 21 0 -4
BITMAP
01C0
0380
0300
0700
0000
0000
F078
78F0
78F0
78F0
3DE0
3DE0
1FC0
1FC0
1F80
0F80
0F80
0F00
1F00
1E00
1E00
ENDCHAR
STARTCHAR thorn
ENCODING 254
SWIDTH 699 0
DWIDTH 14 0
BBX 11 20 2 -4
BITMAP
F000
F000
F000
F000
F000
F780
FFC0
F3E0
F1E0
F1E0
F1E0
F1E0
F1E0
F3C0
FFC0
FF80
F000
F000
F000
F000
ENDCHAR
STARTCHAR ydieresis
ENCODING 255
SWIDTH 650 0
DWIDTH 13 0
BBX 13 20 0 -4
BITMAP
1CE0
1CE0
1CE0
0000
0000
F078
78F0
78F0
78F0
3DE0
3DE0
1FC0
1FC0
1F80
0F80
0F80
0F00
1F00
1E00
1E00
ENDCHAR
STARTCHAR Amacron
ENCODING 256
SWIDTH 776 0
DWIDTH 16 0
BBX 16 19 0 0
BITMAP
07F8
07F8
0000
0000
03C0
07E0
07E0
0FF0
0FF0
0FF0
1E78
1E78
3E7C
3FFC
3FFC
7FFE
781E
781E
F00F
ENDCHAR
STARTCHAR amacron
ENCODING 257
SWIDTH 667 0
DWIDTH 13 0
BBX 10 15 1 0
BITMAP
7F80
7F80
0000
0000
7F00
7F80
43C0
03C0
3FC0
7FC0
F3C0
F3C0
F3C0
FFC0
7BC0
ENDCHAR
STARTCHAR Abreve
ENCODING 258
SWIDTH 776 0
DWIDTH 16 0
BBX 16 20 0 0
BITMAP
0618
0630
07F0
03E0
0000
03C0
07E0
07E0
0FF0
0FF0
0FF0
1E78
1E78
3E7C
3FFC
3FFC
7FFE
781E
781E
F00F
ENDCHAR
STARTCHAR abreve
ENCODING 259
SWIDTH 667 0
DWIDTH 13 0
BBX 10 16 1 0
BITMAP
7180
3180
3F80
1F00
0000
7F00
7F80
43C0
03C0
3FC0
7FC0
F3C0
F3C0
F3C0
FFC0
7BC0
ENDCHAR
STARTCHAR Aogonek
ENCODING 260
SWIDTH 776 0
DWIDTH 16 0
BBX 17 19 0 -4
BITMAP
03C000
07E000
07E000
0FF000
0FF000
0FF000
1E7800
1E7800
3E7C00
3FFC00
3FFC00
7FFE00
781E00
781E00
F01F00
001800
001800
001F80
000F80
ENDCHAR
STARTCHAR aogonek
ENCODING 261
SWIDTH 667 0
DWIDTH 13 0
BBX 12 15 1 -4
BITMAP
7F00
7F80
43C0
03C0
1FC0
7FC0
F3C0
F3C0
F3C0
FFC0
7BC0
0300
0300
03F0
01F0
ENDCHAR
STARTCHAR Cacute
ENCODING 262
SWIDTH 723 0
DWIDTH 14 0
BBX 12 21 1 0
BITMAP
01E0
01C0
0380
0700
0000
0000
0FC0
3FF0
3FF0
7C30
F810
F000
F000
F000
F000
F000
F810
7C30
7FF0
3FF0
0FC0
ENDCHAR
STARTCHAR cacute
ENCODING 263
SWIDTH 588 0
DWIDTH 12 0
BBX 10 17 1 0
BITMAP
03C0
0780
0700
0E00
0000
0000
1F80
3FC0
78C0
F040
F000
F000
F000
F040
78C0
3FC0
1F80
ENDCHAR
STARTCHAR Ccircumflex
ENCODING 264
SWIDTH 723 0
DWIDTH 14 0
BBX 12 21 1 0
BITMAP
0380
07C0
0EE0
1C70
0000
0000
0FC0
3FF0
3FF0
7C30
F810
F000
F000
F000
F000
F000
F810
7C30
7FF0
3FF0
0FC0
ENDCHAR
STARTCHAR ccircumflex
ENCODING 265
SWIDTH 588 0
DWIDTH 12 0
BBX 10 17 1 0
BITMAP
0F00
0F80
1D80
38C0
0000
0000
1F80
3FC0
78C0
F040
F000
F000
F000
F040
78C0
3FC0
1F80
ENDCHAR
STARTCHAR Cdot
ENCODING 266
SWIDTH 723 0
DWIDTH 14 0
BBX 12 20 1 0
BITMAP
0780
0780
0780
0000
0000
0FC0
3FF0
3FF0
7C30
F810
F000
F000
F000
F000
F000
F810
7C30
7FF0
3FF0
0FC0
ENDCHAR
STARTCHAR cdot
ENCODING 267
SWIDTH 588 0
DWIDTH 12 0
BBX 10 16 1 0
BITMAP
0780
0780
0780
0000
0000
1F80
3FC0
78C0
F040
F000
F000
F000
F040
78C0
3FC0
1F80
ENDCHAR
STARTCHAR Ccaron
ENCODING 268
SWIDTH 723 0
DWIDTH 14 0
BBX 12 21 1 0
BITMAP
0C70
0EE0
07C0
0380
0000
0000
0FC0
3FF0
3FF0
7C30
F810
F000
F000
F000
F000
F000
F810
7C30
7FF0
3FF0
0FC0
ENDCHAR
STARTCHAR ccaron
ENCODING 269
SWIDTH 588 0
DWIDTH 12 0
BBX 10 17 1 0
BITMAP
38C0
1980
0F80
0F00
0000
0000
1F80
3FC0
78C0
F040
F000
F000
F000
F040
78C0
3FC0
1F80
ENDCHAR
STARTCHAR Dcaron
ENCODING 270
SWIDTH 830 0
DWIDTH 17 0
BBX 14 21 2 0
BITMAP
38C0
1DC0
0F80
0700
0000
0000
FF80
FFE0
FFF0
F0F8
F078
F03C
F03C
F03C
F03C
F03C
F078
F0F8
FFF0
FFE0
FF80
ENDCHAR
STARTCHAR dcaron
ENCODING 271
SWIDTH 879 0
DWIDTH 18 0
BBX 17 16 1 0
BITMAP
01E780
01E700
01E700
01E600
01EE00
1FEC00
7FE000
79E000
F1E000
F1E000
F1E000
F1E000
F1E000
F9E000
7FE000
3DE000
ENDCHAR
STARTCHAR Dslash
ENCODING 272
SWIDTH 830 0
DWIDTH 17 0
BBX 16 15 0 0
BITMAP
3FE0
3FF8
3FFC
3C3E
3C1E
3C0F
FF8F
FF8F
FF8F
3C0F
3C1E
3C3E
3FFC
3FF8
3FE0
ENDCHAR
STARTCHAR dcroat
ENCODING 273
SWIDTH 699 0
DWIDTH 14 0
BBX 12 16 1 0
BITMAP
01E0
0FF0
0FF0
01E0
01E0
1FE0
7FE0
79E0
F1E0
F1E0
F1E0
F1E0
F1E0
F9E0
7FE0
3DE0
ENDCHAR
STARTCHAR Emacron
ENCODING 274
SWIDTH 683 0
DWIDTH 14 0
BBX 11 19 2 0
BITMAP
3FC0
3FC0
0000
0000
FFE0
FFE0
FFE0
F000
F000
F000
FFC0
FFC0
FFC0
F000
F000
F000
FFE0
FFE0
FFE0
ENDCHAR
STARTCHAR emacron
ENCODING 275
SWIDTH 664 0
DWIDTH 13 0
BBX 11 15 1 0
BITMAP
3FC0
3FC0
0000
0000
1F80
3FC0
71E0
F1E0
FFE0
FFE0
F000
F020
7860
3FE0
1FC0
ENDCHAR
STARTCHAR Ebreve
ENCODING 276
SWIDTH 683 0
DWIDTH 14 0
BBX 11 20 2 0
BITMAP
30C0
38C0
1F80
0F00
0000
FFE0
FFE0
FFE0
F000
F000
F000
FFC0
FFC0
FFC0
F000
F000
F000
FFE0
FFE0
FFE0
ENDCHAR
STARTCHAR ebreve
ENCODING 277
SWIDTH 664 0
DWIDTH 13 0
BBX 11 16 1 0
BITMAP
30C0
31C0
1F80
0F00
0000
1F80
3FC0
71E0
F1E0
FFE0
FFE0
F000
F020
7860
3FE0
1FC0
ENDCHAR
STARTCHAR Edot
ENCODING 278
SWIDTH 683 0
DWIDTH 14 0
BBX 11 20 2 0
BITMAP
0F00
0F00
0F00
0000
0000
FFE0
FFE0
FFE0
F000
F000
F000
FFC0
FFC0
FFC0
F000
F000
F000
FFE0
FFE0
FFE0
ENDCHAR
STARTCHAR edot
ENCODING 279
SWIDTH 664 0
DWIDTH 13 0
BBX 11 16 1 0
BITMAP
0F00
0F00
0F00
0000
0000
1F80
3FC0
71E0
F1E0
FFE0
FFE0
F000
F020
7860
3FE0
1FC0
ENDCHAR
STARTCHAR Eogonek
ENCODING 280
SWIDTH 683 0
DWIDTH 14 0
BBX 12 19 2 -4
BITMAP
FFE0
FFE0
FFE0
F000
F000
F000
FFC0
FFC0
FFC0
F000
F000
F000
FFE0
FFE0
FFE0
0300
0300
03F0
01F0
ENDCHAR
STARTCHAR eogonek
ENCODING 281
SWIDTH 664 0
DWIDTH 13 0
BBX 12 15 1 -4
BITMAP
1F80
3FC0
71E0
F1E0
FFE0
FFE0
F000
F020
7860
3FE0
1FC0
0300
0300
03F0
01F0
ENDCHAR
STARTCHAR Ecaron
ENCODING 282
SWIDTH 683 0
DWIDTH 14 0
BBX 11 21 2 0
BITMAP
71C0
3B80
1F00
0E00
0000
0000
FFE0
FFE0
FFE0
F000
F000
F000
FFC0
FFC0
FFC0
F000
F000
F000
FFE0
FFE0
FFE0
ENDCHAR
STARTCHAR ecaron
ENCODING 283
SWIDTH 664 0
DWIDTH 13 0
BBX 11 17 1 0
BITMAP
38C0
1DC0
0F80
0700
0000
0000
1F80
3FC0
71E0
F1E0
FFE0
FFE0
F000
F020
7860
3FE0
1FC0
ENDCHAR
STARTCHAR Gcircumflex
ENCODING 284
SWIDTH 811 0
DWIDTH 16 0
BBX 14 21 1 0
BITMAP
03C0
03E0
0660
0E30
0000
0000
07F0
1FFC
3FFC
7C1C
7804
F000
F000
F1FC
F1FC
F1FC
F83C
7C3C
3FFC
1FFC
07F0
ENDCHAR
STARTCHAR gcircumflex
ENCODING 285
SWIDTH 699 0
DWIDTH 14 0
BBX 11 21 1 -4
BITMAP
0700
0F80
1DC0
38E0
0000
0000
3FE0
7FE0
79E0
F1E0
F1E0
F1E0
F1E0
F1E0
F9E0
7FE0
3DE0
01E0
43C0
7FC0
7F00
ENDCHAR
STARTCHAR Gbreve
ENCODING 286
SWIDTH 811 0
DWIDTH 16 0
BBX 14 20 1 0
BITMAP
0638
0630
07F0
03E0
0000
07F0
1FFC
3FFC
7C1C
7804
F000
F000
F1FC
F1FC
F1FC
F83C
7C3C
3FFC
1FFC
07F0
ENDCHAR
STARTCHAR gbreve
ENCODING 287
SWIDTH 699 0
DWIDTH 14 0
BBX 11 20 1 -4
BITMAP
30C0
31C0
1F80
0F00
0000
3FE0
7FE0
79E0
F1E0
F1E0
F1E0
F1E0
F1E0
F9E0
7FE0
3DE0
01E0
43C0
7FC0
7F00
ENDCHAR
STARTCHAR Gdot
ENCODING 288
SWIDTH 811 0
DWIDTH 16 0
BBX 14 20 1 0
BITMAP
01E0
01E0
01E0
0000
0000
07F0
1FFC
3FFC
7C1C
7804
F000
F000
F1FC
F1FC
F1FC
F83C
7C3C
3FFC
1FFC
07F0
ENDCHAR
STARTCHAR gdot
ENCODING 289
SWIDTH 699 0
DWIDTH 14 0
BBX 11 20 1 -4
BITMAP
0F00
0F00
0F00
0000
0000
3FE0
7FE0
79E0
F1E0
F1E0
F1E0
F1E0
F1E0
F9E0
7FE0
3DE0
01E0
43C0
7FC0
7F00
ENDCHAR
STARTCHAR Gcedilla
ENCODING 290
SWIDTH 811 0
DWIDTH 16 0
BBX 14 19 1 -4
BITMAP
07F0
1FFC
3FFC
7C1C
7804
F000
F000
F1FC
F1FC
F1FC
F83C
7C3C
3FFC
1FFC
07F0
00C0
00C0
0F80
0F00
ENDCHAR
STARTCHAR gcedilla
ENCODING 291
SWIDTH 699 0
DWIDTH 14 0
BBX 11 20 1 -4
BITMAP
0380
0700
0F00
1E00
0000
3FE0
7FE0
79E0
F1E0
F1E0
F1E0
F1E0
F1E0
F9E0
7FE0
3DE0
01E0
43C0
7FC0
7F00
ENDCHAR
STARTCHAR Hcircumflex
ENCODING 292
SWIDTH 837 0
DWIDTH 17 0
BBX 13 21 2 0
BITMAP
0700
0F80
1DC0
18E0
0000
0000
F078
F078
F078
F078
F078
F078
FFF8
FFF8
FFF8
F078
F078
F078
F078
F078
F078
ENDCHAR
STARTCHAR hcircumflex
ENCODING 293
SWIDTH 712 0
DWIDTH 14 0
BBX 10 21 2 0
BITMAP
1C00
3E00
7700
6380
0000
F000
F000
F000
F000
F000
F780
FFC0
F3C0
F3C0
F3C0
F3C0
F3C0
F3C0
F3C0
F3C0
F3C0
ENDCHAR
STARTCHAR Hbar
ENCODING 294
SWIDTH 837 0
DWIDTH 17 0
BBX 15 15 1 0
BITMAP
783C
783C
FFFE
FFFE
783C
783C
7FFC
7FFC
7FFC
783C
783C
783C
783C
783C
783C
ENDCHAR
STARTCHAR hbar
ENCODING 295
SWIDTH 712 0
DWIDTH 14 0
BBX 11 16 1 0
BITMAP
7800
FF00
FF00
7800
7800
7BC0
7FE0
79E0
79E0
79E0
79E0
79E0
79E0
79E0
79E0
79E0
ENDCHAR
STARTCHAR Itilde
ENCODING 296
SWIDTH 545 0
DWIDTH 11 0
BBX 8 20 2 0
BITMAP
73
FF
CE
00
00
FF
FF
FF
3C
3C
3C
3C
3C
3C
3C
3C
3C
FF
FF
FF
ENDCHAR
STARTCHAR itilde
ENCODING 297
SWIDTH 341 0
DWIDTH 7 0
BBX 8 16 0 0
BITMAP
73
FF
CE
00
00
3C
3C
3C
3C
3C
3C
3C
3C
3C
3C
3C
ENDCHAR
STARTCHAR Imacron
ENCODING 298
SWIDTH 545 0
DWIDTH 11 0
BBX 8 19 2 0
BITMAP
FF
FF
00
00
FF
FF
FF
3C
3C
3C
3C
3C
3C
3C
3C
3C
FF
FF
FF
ENDCHAR
STARTCHAR imacron
ENCODING 299
SWIDTH 341 0
DWIDTH 7 0
BBX 6 15 1 0
BITMAP
FC
FC
00
00
78
78
78
78
78
78
78
78
78
78
78
ENDCHAR
STARTCHAR Ibreve
ENCODING 300
SWIDTH 545 0
DWIDTH 11 0
BBX 8 20 2 0
BITMAP
63
63
3E
1C
00
FF
FF
FF
3C
3C
3C
3C
3C
3C
3C
3C
3C
FF
FF
FF
ENDCHAR
STARTCHAR ibreve
ENCODING 301
SWIDTH 341 0
DWIDTH 7 0
BBX 6 16 1 0
BITMAP
CC
CC
FC
78
00
78
78
78
78
78
78
78
78
78
78
78
ENDCHAR
STARTCHAR Iogonek
ENCODING 302
SWIDTH 545 0
DWIDTH 11 0
BBX 10 19 2 -4
BITMAP
FF00
FF00
FF00
3C00
3C00
3C00
3C00
3C00
3C00
3C00
3C00
3C00
FF00
FF00
FF00
0C00
0C00
0FC0
07C0
ENDCHAR
STARTCHAR iogonek
ENCODING 303
SWIDTH 341 0
DWIDTH 7 0
BBX 5 20 2 -4
BITMAP
F0
F0
F0
00
00
F0
F0
F0
F0
F0
F0
F0
F0
F0
F0
F0
C0
C0
F8
78
ENDCHAR
STARTCHAR Idotaccent
ENCODING 304
SWIDTH 545 0
DWIDTH 11 0
BBX 8 20 2 0
BITMAP
3C
3C
3C
00
00
FF
FF
FF
3C
3C
3C
3C
3C
3C
3C
3C
3C
FF
FF
FF
ENDCHAR
STARTCHAR dotlessi
ENCODING 305
SWIDTH 341 0
DWIDTH 7 0
BBX 4 11 2 0
BITMAP
F0
F0
F0
F0
F0
F0
F0
F0
F0
F0
F0
ENDCHAR
STARTCHAR IJ
ENCODING 306
SWIDTH 1007 0
DWIDTH 20 0
BBX 16 15 2 0
BITMAP
FF3F
FF3F
FF3F
3C0F
3C0F
3C0F
3C0F
3C0F
3C0F
3C0F
3C0F
3C0F
FF7F
FF7E
FF7C
ENDCHAR
STARTCHAR ij
ENCODING 307
SWIDTH 727 0
DWIDTH 15 0
BBX 11 20 2 -4
BITMAP
F1E0
F1E0
F1E0
0000
0000
F7E0
F7E0
F1E0
F1E0
F1E0
F1E0
F1E0
F1E0
F1E0
F1E0
F1E0
01E0
01E0
0FC0
0F80
ENDCHAR
STARTCHAR Jcircumflex
ENCODING 308
SWIDTH 555 0
DWIDTH 11 0
BBX 9 21 0 0
BITMAP
0E00
1F00
3B80
7180
0000
0000
3F80
3F80
3F80
0780
0780
0780
0780
0780
0780
0780
0780
0F80
FF80
FF00
FC00
ENDCHAR
STARTCHAR jcircumflex
ENCODING 309
SWIDTH 402 0
DWIDTH 8 0
BBX 8 21 -1 -4
BITMAP
3C
3C
7E
E7
00
00
7E
7E
1E
1E
1E
1E
1E
1E
1E
1E
1E
1E
1E
FC
F8
ENDCHAR
STARTCHAR Kcedilla
ENCODING 310
SWIDTH 770 0
DWIDTH 15 0
BBX 13 19 2 -4
BITMAP
F0F8
F1F0
F1E0
F3C0
F780
FF80
FF00
FF00
FF80
F780
F3C0
F3E0
F1E0
F0F0
F0F8
0300
0700
3E00
3C00
ENDCHAR
STARTCHAR kcedilla
ENCODING 311
SWIDTH 670 0
DWIDTH 13 0
BBX 11 20 2 -4
BITMAP
F000
F000
F000
F000
F000
F3E0
F3C0
F780
FF00
FE00
FE00
FF00
F780
F380
F3C0
F3E0
0600
0E00
7C00
7800
ENDCHAR
STARTCHAR kgreenlandic
ENCODING 312
SWIDTH 670 0
DWIDTH 13 0
BBX 11 11 2 0
BITMAP
F3E0
F3C0
F780
FF00
FE00
FE00
FF00
F780
F380
F3C0
F3E0
ENDCHAR
STARTCHAR Lacute
ENCODING 313
SWIDTH 637 0
DWIDTH 13 0
BBX 11 21 2 0
BITMAP
0E00
1C00
3800
3000
0000
0000
F000
F000
F000
F000
F000
F000
F000
F000
F000
F000
F000
F000
FFE0
FFE0
FFE0
ENDCHAR
STARTCHAR lacute
ENCODING 314
SWIDTH 341 0
DWIDTH 7 0
BBX 5 21 2 0
BITMAP
38
70
E0
C0
00
F0
F0
F0
F0
F0
F0
F0
F0
F0
F0
F0
F0
F0
F0
F0
F0
ENDCHAR
STARTCHAR Lcedilla
ENCODING 315
SWIDTH 637 0
DWIDTH 13 0
BBX 11 19 2 -4
BITMAP
F000
F000
F000
F000
F000
F000
F000
F000
F000
F000
F000
F000
FFE0
FFE0
FFE0
0300
0300
3F00
3C00
ENDCHAR
STARTCHAR lcedilla
ENCODING 316
SWIDTH 341 0
DWIDTH 7 0
BBX 6 20 1 -4
BITMAP
78
78
78
78
78
78
78
78
78
78
78
78
78
78
78
78
0C
0C
FC
F0
ENDCHAR
STARTCHAR Lcaron
ENCODING 317
SWIDTH 637 0
DWIDTH 13 0
BBX 11 16 2 0
BITMAP
01E0
F1C0
F1C0
F180
F380
F300
F000
F000
F000
F000
F000
F000
F000
FFE0
FFE0
FFE0
ENDCHAR
STARTCHAR lcaron
ENCODING 318
SWIDTH 522 0
DWIDTH 10 0
BBX 10 16 2 0
BITMAP
F3C0
F380
F380
F300
F700
F600
F000
F000
F000
F000
F000
F000
F000
F000
F000
F000
ENDCHAR
STARTCHAR Ldot
ENCODING 319
SWIDTH 637 0
DWIDTH 13 0
BBX 11 15 2 0
BITMAP
F000
F000
F000
F000
F000
F1E0
F1E0
F1E0
F1E0
F000
F000
F000
FFE0
FFE0
FFE0
ENDCHAR
STARTCHAR ldot
ENCODING 320
SWIDTH 556 0
DWIDTH 11 0
BBX 10 16 2 0
BITMAP
F000
F000
F000
F000
F000
F000
F3C0
F3C0
F3C0
F3C0
F000
F000
F000
F000
F000
F000
ENDCHAR
STARTCHAR Lslash
ENCODING 321
SWIDTH 642 0
DWIDTH 13 0
BBX 13 15 0 0
BITMAP
3C00
3C00
3C80
3D80
3F80
3E00
3C00
3C00
3C00
7C00
FC00
BC00
3FF8
3FF8
3FF8
ENDCHAR
STARTCHAR lslash
ENCODING 322
SWIDTH 351 0
DWIDTH 7 0
BBX 8 16 0 0
BITMAP
3C
3C
3C
3C
3C
3D
3F
3E
3C
7C
FC
BC
3C
3C
3C
3C
ENDCHAR
STARTCHAR Nacute
ENCODING 323
SWIDTH 846 0
DWIDTH 17 0
BBX 13 21 2 0
BITMAP
01C0
0380
0380
0700
0000
0000
F878
FC78
FC78
FE78
FE78
FE78
F778
F778
F3F8
F3F8
F1F8
F1F8
F0F8
F0F8
F078
ENDCHAR
STARTCHAR nacute
ENCODING 324
SWIDTH 712 0
DWIDTH 14 0
BBX 10 17 2 0
BITMAP
0780
0700
0E00
1C00
0000
0000
F780
FFC0
F3C0
F3C0
F3C0
F3C0
F3C0
F3C0
F3C0
F3C0
F3C0
ENDCHAR
STARTCHAR Ncedilla
ENCODING 325
SWIDTH 846 0
DWIDTH 17 0
BBX 13 19 2 -4
BITMAP
F878
FC78
FC78
FE78
FE78
FE78
F778
F778
F3F8
F3F8
F1F8
F1F8
F0F8
F0F8
F078
0300
0300
3F00
3C00
ENDCHAR
STARTCHAR ncedilla
ENCODING 326
SWIDTH 712 0
DWIDTH 14 0
BBX 10 15 2 -4
BITMAP
F780
FFC0
F3C0
F3C0
F3C0
F3C0
F3C0
F3C0
F3C0
F3C0
F3C0
0600
0E00
7C00
7800
ENDCHAR
STARTCHAR Ncaron
ENCODING 327
SWIDTH 846 0
DWIDTH 17 0
BBX 13 21 2 0
BITMAP
1C60
0CC0
07C0
0780
0000
0000
F878
FC78
FC78
FE78
FE78
FE78
F778
F778
F3F8
F3F8
F1F8
F1F8
F0F8
F0F8
F078
ENDCHAR
STARTCHAR ncaron
ENCODING 328
SWIDTH 712 0
DWIDTH 14 0
BBX 10 17 2 0
BITMAP
31C0
3B80
1F00
0E00
0000
0000
F780
FFC0
F3C0
F3C0
F3C0
F3C0
F3C0
F3C0
F3C0
F3C0
F3C0
ENDCHAR
STARTCHAR napostrophe
ENCODING 329
SWIDTH 825 0
DWIDTH 16 0
BBX 15 16 0 0
BITMAP
7800
7000
7000
6000
E000
C7BC
07FE
079E
079E
079E
079E
079E
079E
079E
079E
079E
ENDCHAR
STARTCHAR Eng
ENCODING 330
SWIDTH 846 0
DWIDTH 17 0
BBX 13 19 2 -4
BITMAP
F878
FC78
FC78
FE78
FE78
FF78
F778
F7F8
F3F8
F3F8
F1F8
F1F8
F0F8
F0F8
F078
0078
0078
03F0
03E0
ENDCHAR
STARTCHAR eng
ENCODING 331
SWIDTH 712 0
DWIDTH 14 0
BBX 10 15 2 -4
BITMAP
F780
FFC0
F3C0
F3C0
F3C0
F3C0
F3C0
F3C0
F3C0
F3C0
F3C0
03C0
03C0
1F80
1F00
ENDCHAR
STARTCHAR Omacron
ENCODING 332
SWIDTH 850 0
DWIDTH 17 0
BBX 15 19 1 0
BITMAP
1FE0
1FE0
0000
0000
0FE0
1FF0
3FF8
7C7C
F83E
F01E
F01E
F01E
F01E
F01E
F83E
7C7C
3FF8
1FF0
0FE0
ENDCHAR
STARTCHAR omacron
ENCODING 333
SWIDTH 686 0
DWIDTH 14 0
BBX 12 15 1 0
BITMAP
1FE0
1FE0
0000
0000
1F80
3FC0
79E0
F0F0
F0F0
F0F0
F0F0
F0F0
79E0
3FC0
1F80
ENDCHAR
STARTCHAR Obreve
ENCODING 334
SWIDTH 850 0
DWIDTH 17 0
BBX 15 20 1 0
BITMAP
1860
0C60
0FE0
07C0
0000
0FE0
1FF0
3FF8
7C7C
F83E
F01E
F01E
F01E
F01E
F01E
F83E
7C7C
3FF8
1FF0
0FE0
ENDCHAR
STARTCHAR obreve
ENCODING 335
SWIDTH 686 0
DWIDTH 14 0
BBX 12 16 1 0
BITMAP
1860
18E0
1FC0
0F80
0000
1F80
3FC0
79E0
F0F0
F0F0
F0F0
F0F0
F0F0
79E0
3FC0
1F80
ENDCHAR
STARTCHAR Odblacute
ENCODING 336
SWIDTH 850 0
DWIDTH 17 0
BBX 15 21 1 0
BITMAP
03B8
0330
0770
0660
0000
0000
0FE0
1FF0
3FF8
7C7C
F83E
F01E
F01E
F01E
F01E
F01E
F83E
7C7C
3FF8
1FF0
0FE0
ENDCHAR
STARTCHAR odblacute
ENCODING 337
SWIDTH 686 0
DWIDTH 14 0
BBX 12 17 1 0
BITMAP
0770
0EE0
0CC0
1980
0000
0000
1F80
3FC0
79E0
F0F0
F0F0
F0F0
F0F0
F0F0
79E0
3FC0
1F80
ENDCHAR
STARTCHAR OE
ENCODING 338
SWIDTH 1135 0
DWIDTH 23 0
BBX 21 15 1 0
BITMAP
07FFF8
1FFFF8
3FFFF8
7C3C00
783C00
F03C00
F03FF0
F03FF0
F03FF0
F03C00
783C00
7C3C00
3FFFF8
1FFFF8
07FFF8
ENDCHAR
STARTCHAR oe
ENCODING 339
SWIDTH 1067 0
DWIDTH 21 0
BBX 19 11 1 0
BITMAP
1F8F80
3FFFC0
79F1E0
F0F1E0
F0FFE0
F0FFE0
F0F000
F0F020
79F860
3FFFE0
1F8FC0
ENDCHAR
STARTCHAR Racute
ENCODING 340
SWIDTH 782 0
DWIDTH 16 0
BBX 14 21 2 0
BITMAP
03C0
0780
0700
0E00
0000
0000
FFC0
FFE0
FFF0
F0F0
F0F0
F1F0
FFE0
FFC0
FF80
F7C0
F3E0
F1F0
F1F0
F0F8
F07C
ENDCHAR
STARTCHAR racute
ENCODING 341
SWIDTH 497 0
DWIDTH 10 0
BBX 8 17 2 0
BITMAP
0E
1C
38
30
00
00
F7
FF
F0
F0
F0
F0
F0
F0
F0
F0
F0
ENDCHAR
STARTCHAR Rcedilla
ENCODING 342
SWIDTH 782 0
DWIDTH 16 0
BBX 14 19 2 -4
BITMAP
FFC0
FFE0
FFF0
F0F0
F0F0
F1F0
FFE0
FFC0
FF80
F7C0
F3E0
F1F0
F1F0
F0F8
F07C
0300
0700
3E00
3C00
ENDCHAR
STARTCHAR rcedilla
ENCODING 343
SWIDTH 497 0
DWIDTH 10 0
BBX 9 15 1 -4
BITMAP
7B80
7F80
7800
7800
7800
7800
7800
7800
7800
7800
7800
0C00
0C00
FC00
F000
ENDCHAR
STARTCHAR Rcaron
ENCODING 344
SWIDTH 782 0
DWIDTH 16 0
BBX 14 21 2 0
BITMAP
38C0
1980
0F80
0F00
0000
0000
FFC0
FFE0
FFF0
F0F0
F0F0
F1F0
FFE0
FFC0
FF80
F7C0
F3E0
F1F0
F1F0
F0F8
F07C
ENDCHAR
STARTCHAR rcaron
ENCODING 345
SWIDTH 497 0
DWIDTH 10 0
BBX 8 17 2 0
BITMAP
C7
EE
7C
38
00
00
F7
FF
F0
F0
F0
F0
F0
F0
F0
F0
F0
ENDCHAR
STARTCHAR Sacute
ENCODING 346
SWIDTH 710 0
DWIDTH 14 0
BBX 12 21 1 0
BITMAP
0380
0700
0700
0E00
0000
0000
1FC0
7FE0
7FE0
F060
F000
FC00
FFC0
7FE0
1FF0
03F0
80F0
E0F0
FFE0
FFC0
3F80
ENDCHAR
STARTCHAR sacute
ENCODING 347
SWIDTH 593 0
DWIDTH 12 0
BBX 10 17 1 0
BITMAP
0780
0700
0E00
0C00
0000
0000
1F80
7FC0
F0C0
F040
FF00
7F80
3FC0
83C0
C3C0
FF80
7F00
ENDCHAR
STARTCHAR Scircumflex
ENCODING 348
SWIDTH 710 0
DWIDTH 14 0
BBX 12 21 1 0
BITMAP
0F00
1F00
1980
31C0
0000
0000
1FC0
7FE0
7FE0
F060
F000
FC00
FFC0
7FE0
1FF0
03F0
80F0
E0F0
FFE0
FFC0
3F80
ENDCHAR
STARTCHAR scircumflex
ENCODING 349
SWIDTH 593 0
DWIDTH 12 0
BBX 10 17 1 0
BITMAP
0E00
1F00
3B80
71C0
0000
0000
1F80
7FC0
F0C0
F040
FF00
7F80
3FC0
83C0
C3C0
FF80
7F00
ENDCHAR
STARTCHAR Scedilla
ENCODING 350
SWIDTH 710 0
DWIDTH 14 0
BBX 12 19 1 -4
BITMAP
1FC0
7FE0
7FE0
F060
F000
FC00
FF80
7FE0
1FF0
03F0
80F0
E0F0
FFE0
FFE0
3F80
0180
0180
1F80
1E00
ENDCHAR
STARTCHAR scedilla
ENCODING 351
SWIDTH 593 0
DWIDTH 12 0
BBX 10 15 1 -4
BITMAP
1F80
7FC0
F0C0
F040
FF00
7F80
3FC0
83C0
C3C0
FF80
7F00
0300
0300
3F00
3C00
ENDCHAR
STARTCHAR Scaron
ENCODING 352
SWIDTH 710 0
DWIDTH 14 0
BBX 12 21 1 0
BITMAP
18E0
1DC0
0F80
0700
0000
0000
1FC0
7FE0
7FE0
F060
F000
FC00
FFC0
7FE0
1FF0
03F0
80F0
E0F0
FFE0
FFC0
3F80
ENDCHAR
STARTCHAR scaron
ENCODING 353
SWIDTH 593 0
DWIDTH 12 0
BBX 10 17 1 0
BITMAP
71C0
3B80
1F00
0E00
0000
0000
1F80
7FC0
F0C0
F040
FF00
7F80
3FC0
83C0
C3C0
FF80
7F00
ENDCHAR
STARTCHAR Tcedilla
ENCODING 354
SWIDTH 681 0
DWIDTH 14 0
BBX 14 19 0 -4
BITMAP
FFFC
FFFC
FFFC
0780
0780
0780
0780
0780
0780
0780
0780
0780
0780
0780
0780
00C0
00C0
01C0
0F00
ENDCHAR
STARTCHAR tcedilla
ENCODING 355
SWIDTH 455 0
DWIDTH 9 0
BBX 8 18 1 -4
BITMAP
78
78
78
FF
FF
78
78
78
78
78
78
78
7F
1F
06
06
7E
7C
ENDCHAR
STARTCHAR Tcaron
ENCODING 356
SWIDTH 681 0
DWIDTH 14 0
BBX 14 21 0 0
BITMAP
1C60
0EC0
07C0
0380
0000
0000
FFFC
FFFC
FFFC
0780
0780
0780
0780
0780
0780
0780
0780
0780
0780
0780
0780
ENDCHAR
STARTCHAR tcaron
ENCODING 357
SWIDTH 465 0
DWIDTH 9 0
BBX 10 18 1 0
BITMAP
01C0
0180
0180
0380
7B00
7800
7800
FE00
FE00
7800
7800
7800
7800
7800
7800
7800
7E00
3E00
ENDCHAR
STARTCHAR Tbar
ENCODING 358
SWIDTH 681 0
DWIDTH 14 0
BBX 14 15 0 0
BITMAP
FFFC
FFFC
FFFC
0780
0780
0780
0780
3FF0
3FF0
0780
0780
0780
0780
0780
0780
ENDCHAR
STARTCHAR tbar
ENCODING 359
SWIDTH 455 0
DWIDTH 9 0
BBX 8 14 1 0
BITMAP
78
78
78
FF
FF
78
78
FE
FE
78
78
78
3F
1F
ENDCHAR
STARTCHAR Utilde
ENCODING 360
SWIDTH 812 0
DWIDTH 16 0
BBX 12 20 2 0
BITMAP
1E60
3FE0
33C0
0000
0000
F0F0
F0F0
F0F0
F0F0
F0F0
F0F0
F0F0
F0F0
F0F0
F0F0
F0F0
F9F0
7FE0
7FE0
1F80
ENDCHAR
STARTCHAR utilde
ENCODING 361
SWIDTH 712 0
DWIDTH 14 0
BBX 10 16 2 0
BITMAP
3CC0
3FC0
6380
0000
0000
F3C0
F3C0
F3C0
F3C0
F3C0
F3C0
F3C0
F3C0
F3C0
FFC0
7BC0
ENDCHAR
STARTCHAR Umacron
ENCODING 362
SWIDTH 812 0
DWIDTH 16 0
BBX 12 19 2 0
BITMAP
3FC0
3FC0
0000
0000
F0F0
F0F0
F0F0
F0F0
F0F0
F0F0
F0F0
F0F0
F0F0
F0F0
F0F0
F9F0
7FE0
7FE0
1F80
ENDCHAR
STARTCHAR umacron
ENCODING 363
SWIDTH 712 0
DWIDTH 14 0
BBX 10 15 2 0
BITMAP
7F80
7F80
0000
0000
F3C0
F3C0
F3C0
F3C0
F3C0
F3C0
F3C0
F3C0
F3C0
FFC0
7BC0
ENDCHAR
STARTCHAR Ubreve
ENCODING 364
SWIDTH 812 0
DWIDTH 16 0
BBX 12 20 2 0
BITMAP
30C0
38C0
1F80
0F00
0000
F0F0
F0F0
F0F0
F0F0
F0F0
F0F0
F0F0
F0F0
F0F0
F0F0
F0F0
F9F0
7FE0
7FE0
1F80
ENDCHAR
STARTCHAR ubreve
ENCODING 365
SWIDTH 712 0
DWIDTH 14 0
BBX 10 16 2 0
BITMAP
6180
6380
3F00
1E00
0000
F3C0
F3C0
F3C0
F3C0
F3C0
F3C0
F3C0
F3C0
F3C0
FFC0
7BC0
ENDCHAR
STARTCHAR Uring
ENCODING 366
SWIDTH 812 0
DWIDTH 16 0
BBX 12 20 2 0
BITMAP
0F00
1F80
1980
1980
1F80
FFF0
F0F0
F0F0
F0F0
F0F0
F0F0
F0F0
F0F0
F0F0
F0F0
F0F0
F9F0
7FE0
7FE0
1F80
ENDCHAR
STARTCHAR uring
ENCODING 367
SWIDTH 712 0
DWIDTH 14 0
BBX 10 17 2 0
BITMAP
1E00
3F00
3300
3300
3F00
1E00
F3C0
F3C0
F3C0
F3C0
F3C0
F3C0
F3C0
F3C0
F3C0
FFC0
7BC0
ENDCHAR
STARTCHAR Udblacute
ENCODING 368
SWIDTH 812 0
DWIDTH 16 0
BBX 12 21 2 0
BITMAP
0EE0
1DC0
1980
3B80
0000
0000
F0F0
F0F0
F0F0
F0F0
F0F0
F0F0
F0F0
F0F0
F0F0
F0F0
F0F0
F9F0
7FE0
7FE0
1F80
ENDCHAR
STARTCHAR udblacute
ENCODING 369
SWIDTH 712 0
DWIDTH 14 0
BBX 10 17 2 0
BITMAP
1DC0
3B80
3300
7700
0000
0000
F3C0
F3C0
F3C0
F3C0
F3C0
F3C0
F3C0
F3C0
F3C0
FFC0
7BC0
ENDCHAR
STARTCHAR Uogonek
ENCODING 370
SWIDTH 812 0
DWIDTH 16 0
BBX 13 19 2 -4
BITMAP
F0F0
F0F0
F0F0
F0F0
F0F0
F0F0
F0F0
F0F0
F0F0
F0F0
F0F0
F9F0
7FE0
7FE0
1F80
0180
0180
01F8
00F8
ENDCHAR
STARTCHAR uogonek
ENCODING 371
SWIDTH 712 0
DWIDTH 14 0
BBX 12 15 2 -4
BITMAP
F3C0
F3C0
F3C0
F3C0
F3C0
F3C0
F3C0
F3C0
F3C0
FFC0
7BC0
0300
0300
03F0
01F0
ENDCHAR
STARTCHAR Wcircumflex
ENCODING 372
SWIDTH 1128 0
DWIDTH 23 0
BBX 21 21 1 0
BITMAP
007000
00F800
01DC00
018E00
000000
000000
F07878
F0F878
78F8F0
78F8F0
78F8F0
79DCF0
3DDDE0
3DDDE0
3DDDE0
3D9DE0
1F8FC0
1F8FC0
1F8FC0
1F8FC0
0F0780
ENDCHAR
STARTCHAR wcircumflex
ENCODING 373
SWIDTH 979 0
DWIDTH 20 0
BBX 20 17 0 0
BITMAP
007000
00F800
01DC00
038C00
000000
000000
F0F0F0
F8F1F0
78F1E0
79F9E0
79F9E0
3D9BC0
3D9FC0
3F9FC0
1F9F80
1F0F80
1F0F80
ENDCHAR
STARTCHAR Ycircumflex
ENCODING 374
SWIDTH 736 0
DWIDTH 15 0
BBX 14 21 1 0
BITMAP
0700
0F80
0DC0
18E0
0000
0000
F87C
7878
7CF8
3CF0
3FF0
1FE0
1FC0
0FC0
0780
0780
0780
0780
0780
0780
0780
ENDCHAR
STARTCHAR ycircumflex
ENCODING 375
SWIDTH 650 0
DWIDTH 13 0
BBX 13 21 0 -4
BITMAP
0780
0F80
0CC0
18E0
0000
0000
F078
78F0
78F0
78F0
3DE0
3DE0
1FC0
1FC0
1F80
0F80
0F80
0F00
1F00
1E00
1E00
ENDCHAR
STARTCHAR Ydieresis
ENCODING 376
SWIDTH 736 0
DWIDTH 15 0
BBX 14 20 1 0
BITMAP
1CE0
1CE0
1CE0
0000
0000
F87C
7878
7CF8
3CF0
3FF0
1FE0
1FC0
0FC0
0780
0780
0780
0780
0780
0780
0780
ENDCHAR
STARTCHAR Zacute
ENCODING 377
SWIDTH 691 0
DWIDTH 14 0
BBX 12 21 1 0
BITMAP
01C0
0380
0700
0600
0000
0000
FFF0
FFF0
FFF0
01F0
03E0
07C0
0F80
0F00
1F00
3E00
7C00
F800
FFF0
FFF0
FFF0
ENDCHAR
STARTCHAR zacute
ENCODING 378
SWIDTH 596 0
DWIDTH 12 0
BBX 10 17 1 0
BITMAP
0380
0700
0E00
0C00
0000
0000
FFC0
FFC0
0780
0780
0F00
1E00
3C00
7800
7800
FFC0
FFC0
ENDCHAR
STARTCHAR Zdot
ENCODING 379
SWIDTH 691 0
DWIDTH 14 0
BBX 12 20 1 0
BITMAP
0F00
0F00
0F00
0000
0000
FFF0
FFF0
FFF0
01F0
03E0
07C0
0F80
0F00
1F00
3E00
7C00
F800
FFF0
FFF0
FFF0
ENDCHAR
STARTCHAR zdot
ENCODING 380
SWIDTH 596 0
DWIDTH 12 0
BBX 10 16 1 0
BITMAP
1E00
1E00
1E00
0000
0000
FFC0
FFC0
0780
0780
0F00
1E00
3C00
7800
7800
FFC0
FFC0
ENDCHAR
STARTCHAR Zcaron
ENCODING 381
SWIDTH 691 0
DWIDTH 14 0
BBX 12 21 1 0
BITMAP
38C0
1DC0
0F80
0700
0000
0000
FFF0
FFF0
FFF0
01F0
03E0
07C0
0F80
0F00
1F00
3E00
7C00
F800
FFF0
FFF0
FFF0
ENDCHAR
STARTCHAR zcaron
ENCODING 382
SWIDTH 596 0
DWIDTH 12 0
BBX 10 17 1 0
BITMAP
7180
3B80
1F00
0E00
0000
0000
FFC0
FFC0
0780
0780
0F00
1E00
3C00
7800
7800
FFC0
FFC0
ENDCHAR
STARTCHAR longs
ENCODING 383
SWIDTH 344 0
DWIDTH 7 0
BBX 7 16 2 0
BITMAP
3E
7E
F0
F0
F0
F0
F0
F0
F0
F0
F0
F0
F0
F0
F0
F0
ENDCHAR
STARTCHAR uni018F
ENCODING 399
SWIDTH 805 0
DWIDTH 16 0
BBX 14 15 1 0
BITMAP
0FC0
3FF0
3FF8
3078
207C
003C
FFFC
FFFC
FFFC
F03C
F03C
7878
7FF8
3FF0
0FC0
ENDCHAR
STARTCHAR florin
ENCODING 402
SWIDTH 710 0
DWIDTH 14 0
BBX 13 17 1 -2
BITMAP
00F8
03F8
07C0
0780
0780
0780
1FE0
1FE0
0F00
0F00
0F00
0F00
0F00
0F00
1E00
FC00
F800
ENDCHAR
STARTCHAR Ohorn
ENCODING 416
SWIDTH 913 0
DWIDTH 18 0
BBX 18 15 1 0
BITMAP
0FE0C0
1FF0C0
3FF8C0
7C7FC0
F83F80
F01E00
F01E00
F01E00
F01E00
F01E00
F83E00
7C7C00
3FF800
1FF000
0FE000
ENDCHAR
STARTCHAR ohorn
ENCODING 417
SWIDTH 686 0
DWIDTH 14 0
BBX 13 14 1 0
BITMAP
0018
0018
0018
1FF8
3FF0
79E0
F0F0
F0F0
F0F0
F0F0
F0F0
79E0
3FC0
1F80
ENDCHAR
STARTCHAR Uhorn
ENCODING 431
SWIDTH 846 0
DWIDTH 17 0
BBX 16 18 2 0
BITMAP
0003
0003
0003
F07F
F07E
F078
F078
F078
F078
F078
F078
F078
F078
F078
F8F8
7FF0
3FE0
1FC0
ENDCHAR
STARTCHAR uhorn
ENCODING 432
SWIDTH 741 0
DWIDTH 15 0
BBX 13 14 2 0
BITMAP
0018
0018
0018
F3F8
F3F0
F3C0
F3C0
F3C0
F3C0
F3C0
F3C0
F3C0
FFC0
7BC0
ENDCHAR
STARTCHAR Aringacute
ENCODING 506
SWIDTH 776 0
DWIDTH 16 0
BBX 16 20 0 0
BITMAP
00F0
01E0
01C0
07E0
0FF0
0C30
0C30
07E0
07E0
07E0
0FF0
0FF0
1E78
1E78
3E7C
3FFC
3FFC
7FFE
781E
F81F
ENDCHAR
STARTCHAR aringacute
ENCODING 507
SWIDTH 667 0
DWIDTH 13 0
BBX 10 19 1 0
BITMAP
0780
0700
0C00
1E00
3F00
3300
3300
1E00
7F00
7F80
43C0
03C0
3FC0
7FC0
F3C0
F3C0
F3C0
FFC0
7BC0
ENDCHAR
STARTCHAR AEacute
ENCODING 508
SWIDTH 1093 0
DWIDTH 22 0
BBX 21 21 0 0
BITMAP
000780
000F00
000E00
001C00
000000
000000
03FFF8
07FFF8
07FFF8
07BC00
0F3C00
0F3C00
1F3FF0
1E3FF0
1FFFF0
3FFC00
3FFC00
7C3C00
783FF8
783FF8
F83FF8
ENDCHAR
STARTCHAR aeacute
ENCODING 509
SWIDTH 1018 0
DWIDTH 20 0
BBX 18 17 1 0
BITMAP
003C00
003800
007000
00E000
000000
000000
7F3F00
7FFF80
41E3C0
01E3C0
1FFFC0
7FFFC0
F9E000
F1E040
F1F0C0
FF7FC0
3C3F80
ENDCHAR
STARTCHAR Oslashacute
ENCODING 510
SWIDTH 850 0
DWIDTH 17 0
BBX 15 22 1 -1
BITMAP
00E0
01C0
0380
0300
0000
000E
0FEC
1FF8
3FF8
7C7C
F87E
F0DE
F19E
F31E
F31E
F61E
FC3E
7C7C
3FF8
3FF0
6FE0
C000
ENDCHAR
STARTCHAR oslashacute
ENCODING 511
SWIDTH 686 0
DWIDTH 14 0
BBX 12 18 1 -1
BITMAP
0380
0780
0700
0E00
0000
0010
1FA0
3FC0
79E0
F1F0
F3F0
F2F0
F4F0
F8F0
71E0
3FC0
5F80
8000
ENDCHAR
STARTCHAR Scommaaccent
ENCODING 536
SWIDTH 710 0
DWIDTH 14 0
BBX 12 19 1 -4
BITMAP
1FC0
7FE0
7FE0
F060
F000
FC00
FFC0
7FE0
1FF0
03F0
80F0
E0F0
FFE0
FFC0
3F80
0000
0700
0600
0400
ENDCHAR
STARTCHAR scommaaccent
ENCODING 537
SWIDTH 593 0
DWIDTH 12 0
BBX 10 15 1 -4
BITMAP
1F80
7FC0
F0C0
F040
FF00
7F80
3FC0
83C0
C3C0
FF80
7F00
0000
0E00
0C00
0C00
ENDCHAR
STARTCHAR Tcommaaccent
ENCODING 538
SWIDTH 681 0
DWIDTH 14 0
BBX 14 19 0 -4
BITMAP
FFFC
FFFC
FFFC
0780
0780
0780
0780
0780
0780
0780
0780
0780
0780
0780
0780
0000
0380
0300
0600
ENDCHAR
STARTCHAR tcommaaccent
ENCODING 539
SWIDTH 455 0
DWIDTH 9 0
BBX 8 18 1 -4
BITMAP
78
78
78
FF
FF
78
78
78
78
78
78
78
7F
1F
00
1C
18
30
ENDCHAR
STARTCHAR uni0259
ENCODING 601
SWIDTH 664 0
DWIDTH 13 0
BBX 11 11 1 0
BITMAP
7F00
FF80
83C0
01E0
01E0
FFE0
FFE0
F1E0
F1C0
7F80
3F00
ENDCHAR
STARTCHAR circumflex
ENCODING 710
SWIDTH 710 0
DWIDTH 14 0
BBX 9 4 3 13
BITMAP
1C00
3E00
7700
E380
ENDCHAR
STARTCHAR caron
ENCODING 711
SWIDTH 710 0
DWIDTH 14 0
BBX 9 4 3 13
BITMAP
E380
7700
3E00
1C00
ENDCHAR
STARTCHAR macron
ENCODING 713
SWIDTH 710 0
DWIDTH 14 0
BBX 8 2 3 13
BITMAP
FF
FF
ENDCHAR
STARTCHAR breve
ENCODING 728
SWIDTH 710 0
DWIDTH 14 0
BBX 8 4 3 12
BITMAP
C3
C7
7E
3C
ENDCHAR
STARTCHAR dotaccent
ENCODING 729
SWIDTH 710 0
DWIDTH 14 0
BBX 4 3 5 13
BITMAP
F0
F0
F0
ENDCHAR
STARTCHAR ring
ENCODING 730
SWIDTH 710 0
DWIDTH 14 0
BBX 6 6 4 11
BITMAP
78
FC
CC
CC
FC
78
ENDCHAR
STARTCHAR ogonek
ENCODING 731
SWIDTH 710 0
DWIDTH 14 0
BBX 6 4 4 -4
BITMAP
C0
C0
FC
7C
ENDCHAR
STARTCHAR tilde
ENCODING 732
SWIDTH 710 0
DWIDTH 14 0
BBX 9 3 3 13
BITMAP
7980
FF80
CF00
ENDCHAR
STARTCHAR hungarumlaut
ENCODING 733
SWIDTH 710 0
DWIDTH 14 0
BBX 9 4 3 13
BITMAP
3B80
7700
6600
EE00
ENDCHAR
STARTCHAR gravecomb
ENCODING 768
SWIDTH 0 0
DWIDTH 0 0
BBX 5 4 -9 13
BITMAP
E0
70
70
38
ENDCHAR
STARTCHAR acutecomb
ENCODING 769
SWIDTH 0 0
DWIDTH 0 0
BBX 5 4 -8 13
BITMAP
38
70
E0
C0
ENDCHAR
STARTCHAR tildecomb
ENCODING 771
SWIDTH 0 0
DWIDTH 0 0
BBX 9 3 -11 13
BITMAP
3980
7F80
C700
ENDCHAR
STARTCHAR hookabovecomb
ENCODING 777
SWIDTH 0 0
DWIDTH 0 0
BBX 4 4 -8 13
BITMAP
E0
30
30
60
ENDCHAR
STARTCHAR dotbelowcomb
ENCODING 803
SWIDTH 0 0
DWIDTH 0 0
BBX 3 3 -8 -4
BITMAP
E0
E0
E0
ENDCHAR
STARTCHAR semicolon.dup3
ENCODING 894
SWIDTH 402 0
DWIDTH 8 0
BBX 6 14 1 -3
BITMAP
78
78
78
78
00
00
00
3C
38
78
70
70
E0
E0
ENDCHAR
STARTCHAR tonos
ENCODING 900
SWIDTH 710 0
DWIDTH 14 0
BBX 4 4 5 13
BITMAP
F0
F0
F0
60
ENDCHAR
STARTCHAR dieresistonos
ENCODING 901
SWIDTH 710 0
DWIDTH 14 0
BBX 11 4 1 13
BITMAP
0E00
EEE0
EEE0
E4E0
ENDCHAR
STARTCHAR Alphatonos
ENCODING 902
SWIDTH 797 0
DWIDTH 16 0
BBX 16 15 0 0
BITMAP
E3E0
E3E0
E7F0
E7F0
0FF0
0F78
0F78
1E7C
1E3C
1FFC
3FFE
3FFE
7C1E
780F
780F
ENDCHAR
STARTCHAR anoteleia
ENCODING 903
SWIDTH 402 0
DWIDTH 8 0
BBX 4 4 2 7
BITMAP
F0
F0
F0
F0
ENDCHAR
STARTCHAR Epsilontonos
ENCODING 904
SWIDTH 847 0
DWIDTH 17 0
BBX 16 15 0 0
BITMAP
F7FF
F7FF
F7FF
6780
0780
0780
07FE
07FE
07FE
0780
0780
0780
07FF
07FF
07FF
ENDCHAR
STARTCHAR Etatonos
ENCODING 905
SWIDTH 1000 0
DWIDTH 20 0
BBX 18 15 0 0
BITMAP
F783C0
F783C0
F783C0
6783C0
0783C0
0783C0
07FFC0
07FFC0
07FFC0
0783C0
0783C0
0783C0
0783C0
0783C0
0783C0
ENDCHAR
STARTCHAR Iotatonos
ENCODING 906
SWIDTH 705 0
DWIDTH 14 0
BBX 13 15 0 0
BITMAP
F7F8
F7F8
F7F8
61E0
01E0
01E0
01E0
01E0
01E0
01E0
01E0
01E0
07F8
07F8
07F8
ENDCHAR
STARTCHAR Omicrontonos
ENCODING 908
SWIDTH 968 0
DWIDTH 19 0
BBX 19 15 -1 0
BITMAP
E07E00
E1FF80
E3FFC0
E7C3C0
0781E0
0781E0
0F01E0
0F01E0
0F01E0
0781E0
0781E0
07C3C0
03FFC0
01FF80
007E00
ENDCHAR
STARTCHAR Upsilontonos
ENCODING 910
SWIDTH 939 0
DWIDTH 19 0
BBX 19 15 0 0
BITMAP
F7C3E0
F3C3C0
F3E7C0
61E780
01FF80
00FF00
00FE00
007E00
003C00
003C00
003C00
003C00
003C00
003C00
003C00
ENDCHAR
STARTCHAR Omegatonos
ENCODING 911
SWIDTH 970 0
DWIDTH 19 0
BBX 19 15 0 0
BITMAP
E0FE00
E3FF80
E7FFC0
E783C0
0F01E0
0F01E0
0F01E0
0F01E0
0701C0
0783C0
03C780
00C600
0FC7E0
0FC7E0
0FC7E0
ENDCHAR
STARTCHAR iotadieresistonos
ENCODING 912
SWIDTH 341 0
DWIDTH 7 0
BBX 9 17 -1 0
BITMAP
1C00
DD80
DD80
C980
0000
0000
1E00
1E00
1E00
1E00
1E00
1E00
1E00
1E00
1E00
1E00
1E00
ENDCHAR
STARTCHAR Alpha
ENCODING 913
SWIDTH 776 0
DWIDTH 16 0
BBX 16 15 0 0
BITMAP
03C0
07E0
07E0
0FF0
0FF0
0FF0
1E78
1E78
3E7C
3FFC
3FFC
7FFE
781E
781E
F00F
ENDCHAR
STARTCHAR Beta
ENCODING 914
SWIDTH 761 0
DWIDTH 15 0
BBX 12 15 2 0
BITMAP
FF80
FFC0
FFE0
F1E0
F1E0
F1E0
FFC0
FFC0
FFE0
F0F0
F0F0
F0F0
FFF0
FFE0
FF80
ENDCHAR
STARTCHAR Gamma
ENCODING 915
SWIDTH 637 0
DWIDTH 13 0
BBX 11 15 2 0
BITMAP
FFE0
FFE0
FFE0
F000
F000
F000
F000
F000
F000
F000
F000
F000
F000
F000
F000
ENDCHAR
STARTCHAR Delta
ENCODING 916
SWIDTH 805 0
DWIDTH 16 0
BBX 16 15 0 0
BITMAP
03C0
07E0
07E0
0FF0
0FF0
0FF0
1E78
1E78
3E7C
3C3C
3C3C
7C3E
7FFE
7FFE
FFFF
ENDCHAR
STARTCHAR Epsilon
ENCODING 917
SWIDTH 683 0
DWIDTH 14 0
BBX 11 15 2 0
BITMAP
FFE0
FFE0
FFE0
F000
F000
F000
FFC0
FFC0
FFC0
F000
F000
F000
FFE0
FFE0
FFE0
ENDCHAR
STARTCHAR Zeta
ENCODING 918
SWIDTH 691 0
DWIDTH 14 0
BBX 12 15 1 0
BITMAP
FFF0
FFF0
FFF0
01F0
03E0
07C0
0F80
0F00
1F00
3E00
7C00
F800
FFF0
FFF0
FFF0
ENDCHAR
STARTCHAR Eta
ENCODING 919
SWIDTH 837 0
DWIDTH 17 0
BBX 13 15 2 0
BITMAP
F078
F078
F078
F078
F078
F078
FFF8
FFF8
FFF8
F078
F078
F078
F078
F078
F078
ENDCHAR
STARTCHAR Theta
ENCODING 920
SWIDTH 850 0
DWIDTH 17 0
BBX 15 15 1 0
BITMAP
0FE0
1FF0
3FF8
7C7C
F83E
F01E
F7DE
F7DE
F7DE
F01E
F83E
7C7C
3FF8
1FF0
0FE0
ENDCHAR
STARTCHAR Iota
ENCODING 921
SWIDTH 545 0
DWIDTH 11 0
BBX 8 15 2 0
BITMAP
FF
FF
FF
3C
3C
3C
3C
3C
3C
3C
3C
3C
FF
FF
FF
ENDCHAR
STARTCHAR Kappa
ENCODING 922
SWIDTH 770 0
DWIDTH 15 0
BBX 13 15 2 0
BITMAP
F0F8
F1F0
F1E0
F3C0
F780
FF80
FF00
FF00
FF80
F780
F3C0
F3E0
F1E0
F0F0
F0F8
ENDCHAR
STARTCHAR Lambda
ENCODING 923
SWIDTH 776 0
DWIDTH 16 0
BBX 16 15 0 0
BITMAP
03C0
07E0
07E0
0FF0
0FF0
0FF0
1E78
1E78
1E78
3C3C
3C3C
7C3E
781E
781E
F00F
ENDCHAR
STARTCHAR Mu
ENCODING 924
SWIDTH 947 0
DWIDTH 19 0
BBX 15 15 2 0
BITMAP
F83E
F83E
FC7E
FC7E
FE7E
FEFE
F6DE
F7DE
F7DE
F39E
F39E
F01E
F01E
F01E
F01E
ENDCHAR
STARTCHAR Nu
ENCODING 925
SWIDTH 846 0
DWIDTH 17 0
BBX 13 15 2 0
BITMAP
F878
FC78
FC78
FE78
FE78
FE78
F778
F778
F3F8
F3F8
F1F8
F1F8
F0F8
F0F8
F078
ENDCHAR
STARTCHAR Xi
ENCODING 926
SWIDTH 714 0
DWIDTH 14 0
BBX 12 15 1 0
BITMAP
FFF0
FFF0
FFF0
0000
0000
0000
7FE0
7FE0
7FE0
0000
0000
0000
FFF0
FFF0
FFF0
ENDCHAR
STARTCHAR Omicron
ENCODING 927
SWIDTH 850 0
DWIDTH 17 0
BBX 15 15 1 0
BITMAP
0FE0
1FF0
3FF8
7C7C
F83E
F01E
F01E
F01E
F01E
F01E
F83E
7C7C
3FF8
1FF0
0FE0
ENDCHAR
STARTCHAR Pi
ENCODING 928
SWIDTH 837 0
DWIDTH 17 0
BBX 13 15 2 0
BITMAP
FFF8
FFF8
FFF8
F078
F078
F078
F078
F078
F078
F078
F078
F078
F078
F078
F078
ENDCHAR
STARTCHAR Rho
ENCODING 929
SWIDTH 732 0
DWIDTH 15 0
BBX 12 15 2 0
BITMAP
FF80
FFE0
FFF0
F1F0
F0F0
F0F0
F1F0
FFE0
FFC0
FF80
F000
F000
F000
F000
F000
ENDCHAR
STARTCHAR Sigma
ENCODING 931
SWIDTH 683 0
DWIDTH 14 0
BBX 12 15 1 0
BITMAP
FFF0
FFF0
FFF0
7800
3C00
1E00
0F00
0F00
1E00
3C00
7800
F000
FFF0
FFF0
FFF0
ENDCHAR
STARTCHAR Tau
ENCODING 932
SWIDTH 681 0
DWIDTH 14 0
BBX 14 15 0 0
BITMAP
FFFC
FFFC
FFFC
0780
0780
0780
0780
0780
0780
0780
0780
0780
0780
0780
0780
ENDCHAR
STARTCHAR Upsilon
ENCODING 933
SWIDTH 736 0
DWIDTH 15 0
BBX 14 15 1 0
BITMAP
F87C
7878
7CF8
3CF0
3FF0
1FE0
1FC0
0FC0
0780
0780
0780
0780
0780
0780
0780
ENDCHAR
STARTCHAR Phi
ENCODING 934
SWIDTH 952 0
DWIDTH 19 0
BBX 18 15 0 0
BITMAP
01E000
01E000
0FFC00
3FFF00
7FFF80
F9E7C0
F1E3C0
F1E3C0
F1E3C0
F9E7C0
7FFF80
3FFF00
0FFC00
01E000
01E000
ENDCHAR
STARTCHAR Chi
ENCODING 935
SWIDTH 763 0
DWIDTH 15 0
BBX 15 15 0 0
BITMAP
F83E
7C7C
3CF8
3EF8
1FF0
0FE0
0FE0
07C0
0FE0
0FE0
1FF0
3EF8
3C78
7C7C
F83E
ENDCHAR
STARTCHAR Psi
ENCODING 936
SWIDTH 976 0
DWIDTH 20 0
BBX 18 15 1 0
BITMAP
F1E3C0
F1E3C0
F1E3C0
F1E3C0
F1E3C0
F1E3C0
F1E3C0
F1E3C0
F9E780
7FFF80
3FFF00
0FFC00
01E000
01E000
01E000
ENDCHAR
STARTCHAR Omega
ENCODING 937
SWIDTH 843 0
DWIDTH 17 0
BBX 15 15 1 0
BITMAP
0FE0
3FF8
7FFC
783C
F01E
F01E
F01E
F01E
701C
783C
3C78
0C60
FC7E
FC7E
FC7E
ENDCHAR
STARTCHAR Iotadieresis
ENCODING 938
SWIDTH 545 0
DWIDTH 11 0
BBX 8 20 2 0
BITMAP
E7
E7
E7
00
00
FF
FF
FF
3C
3C
3C
3C
3C
3C
3C
3C
3C
FF
FF
FF
ENDCHAR
STARTCHAR Upsilondieresis
ENCODING 939
SWIDTH 736 0
DWIDTH 15 0
BBX 14 20 1 0
BITMAP
1CE0
1CE0
1CE0
0000
0000
F87C
7878
7CF8
3CF0
3FF0
1FE0
1FC0
0FC0
0780
0780
0780
0780
0780
0780
0780
ENDCHAR
STARTCHAR alphatonos
ENCODING 940
SWIDTH 699 0
DWIDTH 14 0
BBX 11 17 1 0
BITMAP
0F00
0E00
0E00
0E00
0000
0000
3DE0
7FE0
79E0
F1E0
F1E0
F1E0
F1E0
F1E0
F9E0
7FE0
3DE0
ENDCHAR
STARTCHAR epsilontonos
ENCODING 941
SWIDTH 584 0
DWIDTH 12 0
BBX 10 17 1 0
BITMAP
1E00
0E00
0E00
0E00
0000
0000
3FC0
FFC0
F040
F000
7F00
7F00
F000
F000
F040
7FC0
3F80
ENDCHAR
STARTCHAR etatonos
ENCODING 942
SWIDTH 712 0
DWIDTH 14 0
BBX 10 21 2 -4
BITMAP
1E00
0E00
0E00
0E00
0000
0000
F780
FFC0
F3C0
F3C0
F3C0
F3C0
F3C0
F3C0
F3C0
F3C0
F3C0
03C0
03C0
03C0
03C0
ENDCHAR
STARTCHAR iotatonos
ENCODING 943
SWIDTH 341 0
DWIDTH 7 0
BBX 4 17 2 0
BITMAP
F0
70
70
70
00
00
F0
F0
F0
F0
F0
F0
F0
F0
F0
F0
F0
ENDCHAR
STARTCHAR upsilondieresistonos
ENCODING 944
SWIDTH 706 0
DWIDTH 14 0
BBX 11 17 2 0
BITMAP
0E00
EEE0
EEE0
E4E0
0000
0000
F3C0
F3C0
F3C0
F3C0
F3C0
F3C0
F3C0
F3C0
F3C0
7F80
3F00
ENDCHAR
STARTCHAR alpha
ENCODING 945
SWIDTH 699 0
DWIDTH 14 0
BBX 11 11 1 0
BITMAP
3DE0
7FE0
79E0
F1E0
F1E0
F1E0
F1E0
F1E0
F9E0
7FE0
3DE0
ENDCHAR
STARTCHAR beta
ENCODING 946
SWIDTH 716 0
DWIDTH 14 0
BBX 11 20 2 -4
BITMAP
1F00
7F80
F3C0
F3C0
F3C0
F380
FF00
FF80
F3C0
F1E0
F1E0
F1E0
F1E0
F3E0
FFC0
FF80
F000
F000
F000
F000
ENDCHAR
STARTCHAR gamma
ENCODING 947
SWIDTH 650 0
DWIDTH 13 0
BBX 14 15 -1 -4
BITMAP
F87C
7878
7C78
3CF0
3CF0
1FE0
1FE0
0FC0
0FC0
0FC0
0780
0780
0780
0780
0780
ENDCHAR
STARTCHAR delta
ENCODING 948
SWIDTH 686 0
DWIDTH 14 0
BBX 12 16 1 0
BITMAP
7FE0
7FE0
3E00
1F00
0F80
1FC0
3FE0
79E0
F0F0
F0F0
F0F0
F0F0
F0F0
79E0
3FC0
1F80
ENDCHAR
STARTCHAR epsilon
ENCODING 949
SWIDTH 584 0
DWIDTH 12 0
BBX 10 11 1 0
BITMAP
3FC0
FFC0
F040
F000
7F00
7F00
F000
F000
F040
7FC0
3F80
ENDCHAR
STARTCHAR zeta
ENCODING 950
SWIDTH 549 0
DWIDTH 11 0
BBX 10 20 1 -4
BITMAP
7FC0
7FC0
0780
0F00
1E00
3C00
7C00
7800
7000
F000
F000
F000
F000
F800
7F80
3FC0
01C0
01C0
01C0
0780
ENDCHAR
STARTCHAR eta
ENCODING 951
SWIDTH 712 0
DWIDTH 14 0
BBX 10 15 2 -4
BITMAP
F780
FFC0
F3C0
F3C0
F3C0
F3C0
F3C0
F3C0
F3C0
F3C0
F3C0
03C0
03C0
03C0
03C0
ENDCHAR
STARTCHAR theta
ENCODING 952
SWIDTH 700 0
DWIDTH 14 0
BBX 12 16 1 0
BITMAP
1F80
3FC0
79E0
70E0
F0F0
F0F0
F0F0
FFF0
FFF0
F0F0
F0F0
F0F0
70E0
79E0
3FC0
1F80
ENDCHAR
STARTCHAR iota
ENCODING 953
SWIDTH 341 0
DWIDTH 7 0
BBX 4 11 2 0
BITMAP
F0
F0
F0
F0
F0
F0
F0
F0
F0
F0
F0
ENDCHAR
STARTCHAR kappa
ENCODING 954
SWIDTH 670 0
DWIDTH 13 0
BBX 11 11 2 0
BITMAP
F1C0
F3C0
F7C0
F700
FE00
FF00
FF00
F780
F3C0
F3C0
F1E0
ENDCHAR
STARTCHAR lambda
ENCODING 955
SWIDTH 650 0
DWIDTH 13 0
BBX 13 16 0 0
BITMAP
1E00
1E00
0F00
0F00
0F80
0F80
0F80
0FC0
1FC0
1FE0
3DE0
3DE0
78F0
78F0
78F0
F078
ENDCHAR
STARTCHAR mu
ENCODING 956
SWIDTH 721 0
DWIDTH 14 0
BBX 10 15 2 -4
BITMAP
F3C0
F3C0
F3C0
F3C0
F3C0
F3C0
F3C0
F3C0
F3C0
FFC0
FFC0
F000
F000
F000
F000
ENDCHAR
STARTCHAR nu
ENCODING 957
SWIDTH 649 0
DWIDTH 13 0
BBX 13 11 0 0
BITMAP
F078
78F0
78F0
78F0
3DE0
3DE0
1DC0
1FC0
1FC0
0F80
0F80
ENDCHAR
STARTCHAR xi
ENCODING 958
SWIDTH 580 0
DWIDTH 12 0
BBX 11 20 1 -4
BITMAP
FFC0
FFC0
3C00
7800
7800
7800
3C00
1FC0
3FC0
7800
F000
F000
F000
F800
7FC0
3FE0
00E0
00E0
00E0
03C0
ENDCHAR
STARTCHAR omicron
ENCODING 959
SWIDTH 686 0
DWIDTH 14 0
BBX 12 11 1 0
BITMAP
1F80
3FC0
79E0
F0F0
F0F0
F0F0
F0F0
F0F0
79E0
3FC0
1F80
ENDCHAR
STARTCHAR pi
ENCODING 960
SWIDTH 719 0
DWIDTH 14 0
BBX 10 11 2 0
BITMAP
FFC0
FFC0
F3C0
F3C0
F3C0
F3C0
F3C0
F3C0
F3C0
F3C0
F3C0
ENDCHAR
STARTCHAR rho
ENCODING 961
SWIDTH 699 0
DWIDTH 14 0
BBX 11 15 2 -4
BITMAP
1F00
7FC0
7BC0
F1E0
F1E0
F1E0
F1E0
F1E0
F3C0
FFC0
FF80
F000
F000
F000
F000
ENDCHAR
STARTCHAR sigma1
ENCODING 962
SWIDTH 562 0
DWIDTH 11 0
BBX 10 15 1 -4
BITMAP
1F80
3FC0
78C0
F040
F000
F000
F000
F000
7800
7F80
1FC0
01C0
01C0
01C0
0780
ENDCHAR
STARTCHAR sigma
ENCODING 963
SWIDTH 725 0
DWIDTH 14 0
BBX 14 11 1 0
BITMAP
1FFC
3FFC
79E0
F0F0
F0F0
F0F0
F0F0
F0F0
79E0
3FC0
1F80
ENDCHAR
STARTCHAR tau
ENCODING 964
SWIDTH 535 0
DWIDTH 11 0
BBX 12 11 0 0
BITMAP
FFF0
FFF0
0F00
0F00
0F00
0F00
0F00
0F00
0F00
0F00
0F00
ENDCHAR
STARTCHAR upsilon
ENCODING 965
SWIDTH 706 0
DWIDTH 14 0
BBX 10 11 2 0
BITMAP
F3C0
F3C0
F3C0
F3C0
F3C0
F3C0
F3C0
F3C0
F3C0
7F80
3F00
ENDCHAR
STARTCHAR phi
ENCODING 966
SWIDTH 914 0
DWIDTH 18 0
BBX 16 15 1 -4
BITMAP
3BF0
7BFC
F3DE
F3CF
F3CF
F3CF
F3CF
F3CF
7BDE
3FFC
0FF0
03C0
03C0
03C0
03C0
ENDCHAR
STARTCHAR chi
ENCODING 967
SWIDTH 635 0
DWIDTH 13 0
BBX 13 15 0 -4
BITMAP
F078
78F0
78F0
3DE0
1DC0
1FC0
0F80
0F80
0F80
1FC0
1DC0
3DE0
78F0
78F0
F078
ENDCHAR
STARTCHAR psi
ENCODING 968
SWIDTH 941 0
DWIDTH 19 0
BBX 16 15 2 -4
BITMAP
F3CF
F3CF
F3CF
F3CF
F3CF
F3CF
F3CF
F3CF
7BDE
7FFE
1FF8
03C0
03C0
03C0
03C0
ENDCHAR
STARTCHAR omega
ENCODING 969
SWIDTH 894 0
DWIDTH 18 0
BBX 16 11 1 0
BITMAP
3C3C
781E
781E
F3CF
F3CF
F3CF
F3CF
F3CF
73CE
7FFE
3E7C
ENDCHAR
STARTCHAR iotadieresis
ENCODING 970
SWIDTH 341 0
DWIDTH 7 0
BBX 8 16 0 0
BITMAP
E7
E7
E7
00
00
3C
3C
3C
3C
3C
3C
3C
3C
3C
3C
3C
ENDCHAR
STARTCHAR upsilondieresis
ENCODING 971
SWIDTH 706 0
DWIDTH 14 0
BBX 10 16 2 0
BITMAP
7380
7380
7380
0000
0000
F3C0
F3C0
F3C0
F3C0
F3C0
F3C0
F3C0
F3C0
F3C0
7F80
3F00
ENDCHAR
STARTCHAR omicrontonos
ENCODING 972
SWIDTH 686 0
DWIDTH 14 0
BBX 12 17 1 0
BITMAP
0F00
0E00
0E00
0E00
0000
0000
1F80
3FC0
79E0
F0F0
F0F0
F0F0
F0F0
F0F0
79E0
3FC0
1F80
ENDCHAR
STARTCHAR upsilontonos
ENCODING 973
SWIDTH 706 0
DWIDTH 14 0
BBX 10 17 2 0
BITMAP
1E00
1E00
1C00
0C00
0000
0000
F3C0
F3C0
F3C0
F3C0
F3C0
F3C0
F3C0
F3C0
F3C0
7F80
3F00
ENDCHAR
STARTCHAR omegatonos
ENCODING 974
SWIDTH 894 0
DWIDTH 18 0
BBX 16 17 1 0
BITMAP
03C0
03C0
0380
0180
0000
0000
3C3C
781E
781E
F3CF
F3CF
F3CF
F3CF
F3CF
73CE
7FFE
3E7C
ENDCHAR
STARTCHAR afii10023
ENCODING 1025
SWIDTH 683 0
DWIDTH 14 0
BBX 11 20 2 0
BITMAP
39C0
39C0
39C0
0000
0000
FFE0
FFE0
FFE0
F000
F000
F000
FFC0
FFC0
FFC0
F000
F000
F000
FFE0
FFE0
FFE0
ENDCHAR
STARTCHAR afii10051
ENCODING 1026
SWIDTH 910 0
DWIDTH 18 0
BBX 16 15 1 0
BITMAP
FFF8
FFF8
FFF8
0F00
0F00
0F00
0FFC
0FFE
0FFF
0F0F
0F0F
0F0F
0F3F
0F3E
0F3C
ENDCHAR
STARTCHAR afii10052
ENCODING 1027
SWIDTH 637 0
DWIDTH 13 0
BBX 11 21 2 0
BITMAP
01C0
0380
0700
0600
0000
0000
FFE0
FFE0
FFE0
F000
F000
F000
F000
F000
F000
F000
F000
F000
F000
F000
F000
ENDCHAR
STARTCHAR afii10053
ENCODING 1028
SWIDTH 741 0
DWIDTH 15 0
BBX 13 15 1 0
BITMAP
07F0
1FF8
3FF8
7C18
F800
F000
FFC0
FFC0
FFC0
F000
F800
7C18
3FF8
1FF8
07E0
ENDCHAR
STARTCHAR afii10054
ENCODING 1029
SWIDTH 710 0
DWIDTH 14 0
BBX 12 15 1 0
BITMAP
1FC0
7FE0
7FE0
F060
F000
FC00
FFC0
7FE0
1FF0
03F0
80F0
E0F0
FFE0
FFC0
3F80
ENDCHAR
STARTCHAR afii10055
ENCODING 1030
SWIDTH 545 0
DWIDTH 11 0
BBX 8 15 2 0
BITMAP
FF
FF
FF
3C
3C
3C
3C
3C
3C
3C
3C
3C
FF
FF
FF
ENDCHAR
STARTCHAR afii10056
ENCODING 1031
SWIDTH 545 0
DWIDTH 11 0
BBX 8 20 2 0
BITMAP
E7
E7
E7
00
00
FF
FF
FF
3C
3C
3C
3C
3C
3C
3C
3C
3C
FF
FF
FF
ENDCHAR
STARTCHAR afii10057
ENCODING 1032
SWIDTH 555 0
DWIDTH 11 0
BBX 9 15 0 0
BITMAP
3F80
3F80
3F80
0780
0780
0780
0780
0780
0780
0780
0780
0F80
FF80
FF00
FC00
ENDCHAR
STARTCHAR afii10058
ENCODING 1033
SWIDTH 1222 0
DWIDTH 24 0
BBX 23 15 0 0
BITMAP
1FFC00
1FFC00
1FFC00
1E3C00
1E3C00
1E3C00
1E3FF8
1E3FFC
1E3FFE
1C3C1E
3C3C1E
3C3C3E
F83FFC
F83FFC
F03FF0
ENDCHAR
STARTCHAR afii10059
ENCODING 1034
SWIDTH 1214 0
DWIDTH 24 0
BBX 21 15 2 0
BITMAP
F07800
F07800
F07800
F07800
F07800
F07800
FFFFE0
FFFFF0
FFFFF8
F07878
F07878
F07878
F07FF8
F07FF0
F07FC0
ENDCHAR
STARTCHAR afii10060
ENCODING 1035
SWIDTH 936 0
DWIDTH 19 0
BBX 17 15 1 0
BITMAP
FFF800
FFF800
FFF800
0F0000
0F0000
0FFE00
0FFF00
0FFF80
0F0F80
0F0780
0F0780
0F0780
0F0780
0F0780
0F0780
ENDCHAR
STARTCHAR afii10061
ENCODING 1036
SWIDTH 770 0
DWIDTH 15 0
BBX 13 21 2 0
BITMAP
03C0
0780
0700
0E00
0000
0000
F0F0
F1F0
F1F0
F3C0
F3C0
F780
FF80
FF00
FF80
F780
F7C0
F3E0
F1E0
F1F0
F0F8
ENDCHAR
STARTCHAR uni040D
ENCODING 1037
SWIDTH 845 0
DWIDTH 17 0
BBX 13 21 2 0
BITMAP
3C00
1C00
0E00
0600
0000
0000
F0F8
F0F8
F1F8
F1F8
F3F8
F3F8
F778
F778
FE78
FE78
FC78
FC78
F878
F878
F078
ENDCHAR
STARTCHAR afii10062
ENCODING 1038
SWIDTH 736 0
DWIDTH 15 0
BBX 15 19 0 0
BITMAP
3838
1FF0
0FE0
0000
F83E
783C
7C3C
3C78
3E78
1EF0
0FF0
0FF0
07E0
07E0
03C0
07C0
3F80
3F80
3E00
ENDCHAR
STARTCHAR afii10145
ENCODING 1039
SWIDTH 837 0
DWIDTH 17 0
BBX 13 18 2 -3
BITMAP
F078
F078
F078
F078
F078
F078
F078
F078
F078
F078
F078
F078
FFF8
FFF8
FFF8
0780
0780
0780
ENDCHAR
STARTCHAR afii10017
ENCODING 1040
SWIDTH 776 0
DWIDTH 16 0
BBX 16 15 0 0
BITMAP
03C0
07E0
07E0
0FF0
0FF0
0FF0
1E78
1E78
3E7C
3FFC
3FFC
7FFE
781E
781E
F00F
ENDCHAR
STARTCHAR afii10018
ENCODING 1041
SWIDTH 757 0
DWIDTH 15 0
BBX 12 15 2 0
BITMAP
FFE0
FFE0
FFE0
F000
F000
F000
FFC0
FFE0
FFF0
F0F0
F0F0
F0F0
FFF0
FFE0
FF80
ENDCHAR
STARTCHAR afii10019
ENCODING 1042
SWIDTH 761 0
DWIDTH 15 0
BBX 12 15 2 0
BITMAP
FF80
FFC0
FFE0
F1E0
F1E0
F1E0
FFC0
FFC0
FFE0
F0F0
F0F0
F0F0
FFF0
FFE0
FF80
ENDCHAR
STARTCHAR afii10020
ENCODING 1043
SWIDTH 637 0
DWIDTH 13 0
BBX 11 15 2 0
BITMAP
FFE0
FFE0
FFE0
F000
F000
F000
F000
F000
F000
F000
F000
F000
F000
F000
F000
ENDCHAR
STARTCHAR afii10021
ENCODING 1044
SWIDTH 841 0
DWIDTH 17 0
BBX 16 18 0 -3
BITMAP
1FFC
1FFC
1FFC
1E3C
1E3C
1E3C
3E3C
3C3C
3C3C
3C3C
3C3C
783C
FFFF
FFFF
FFFF
F00F
F00F
F00F
ENDCHAR
STARTCHAR afii10022
ENCODING 1045
SWIDTH 683 0
DWIDTH 14 0
BBX 11 15 2 0
BITMAP
FFE0
FFE0
FFE0
F000
F000
F000
FFC0
FFC0
FFC0
F000
F000
F000
FFE0
FFE0
FFE0
ENDCHAR
STARTCHAR afii10024
ENCODING 1046
SWIDTH 1115 0
DWIDTH 22 0
BBX 22 15 0 0
BITMAP
787878
7C78F8
7E79F8
1E79E0
1F79E0
0F7BC0
0FFFC0
07FF80
0FFFC0
1F7BE0
1E79E0
3E79F0
3C78F0
7C78F8
F8787C
ENDCHAR
STARTCHAR afii10025
ENCODING 1047
SWIDTH 706 0
DWIDTH 14 0
BBX 12 15 1 0
BITMAP
3F80
FFE0
FFF0
C0F0
00F0
00E0
1FE0
1F80
1FE0
00F0
00F0
C1F0
FFF0
FFE0
7F80
ENDCHAR
STARTCHAR afii10026
ENCODING 1048
SWIDTH 845 0
DWIDTH 17 0
BBX 13 15 2 0
BITMAP
F0F8
F0F8
F1F8
F1F8
F3F8
F3F8
F778
F778
FE78
FE78
FC78
FC78
F878
F878
F078
ENDCHAR
STARTCHAR afii10027
ENCODING 1049
SWIDTH 845 0
DWIDTH 17 0
BBX 13 19 2 0
BITMAP
7070
3FE0
1FC0
0000
F0F8
F0F8
F1F8
F1F8
F3F8
F3F8
F778
F778
FE78
FE78
FC78
FC78
F878
F878
F078
ENDCHAR
STARTCHAR afii10028
ENCODING 1050
SWIDTH 770 0
DWIDTH 15 0
BBX 13 15 2 0
BITMAP
F0F0
F1F0
F1F0
F3C0
F3C0
F780
FF80
FF00
FF80
F780
F7C0
F3E0
F1E0
F1F0
F0F8
ENDCHAR
STARTCHAR afii10029
ENCODING 1051
SWIDTH 845 0
DWIDTH 17 0
BBX 15 15 0 0
BITMAP
1FFE
1FFE
1FFE
1E1E
1E1E
1E1E
1E1E
1E1E
1E1E
1C1E
3C1E
3C1E
F81E
F81E
F01E
ENDCHAR
STARTCHAR afii10030
ENCODING 1052
SWIDTH 947 0
DWIDTH 19 0
BBX 15 15 2 0
BITMAP
F83E
F83E
FC7E
FC7E
FE7E
FEFE
F6DE
F7DE
F7DE
F39E
F39E
F01E
F01E
F01E
F01E
ENDCHAR
STARTCHAR afii10031
ENCODING 1053
SWIDTH 837 0
DWIDTH 17 0
BBX 13 15 2 0
BITMAP
F078
F078
F078
F078
F078
F078
FFF8
FFF8
FFF8
F078
F078
F078
F078
F078
F078
ENDCHAR
STARTCHAR afii10032
ENCODING 1054
SWIDTH 850 0
DWIDTH 17 0
BBX 15 15 1 0
BITMAP
0FE0
1FF0
3FF8
7C7C
F83E
F01E
F01E
F01E
F01E
F01E
F83E
7C7C
3FF8
1FF0
0FE0
ENDCHAR
STARTCHAR afii10033
ENCODING 1055
SWIDTH 837 0
DWIDTH 17 0
BBX 13 15 2 0
BITMAP
FFF8
FFF8
FFF8
F078
F078
F078
F078
F078
F078
F078
F078
F078
F078
F078
F078
ENDCHAR
STARTCHAR afii10034
ENCODING 1056
SWIDTH 732 0
DWIDTH 15 0
BBX 12 15 2 0
BITMAP
FF80
FFE0
FFF0
F1F0
F0F0
F0F0
F1F0
FFE0
FFC0
FF80
F000
F000
F000
F000
F000
ENDCHAR
STARTCHAR afii10035
ENCODING 1057
SWIDTH 723 0
DWIDTH 14 0
BBX 12 15 1 0
BITMAP
0FC0
3FF0
3FF0
7C30
F810
F000
F000
F000
F000
F000
F810
7C30
7FF0
3FF0
0FC0
ENDCHAR
STARTCHAR afii10036
ENCODING 1058
SWIDTH 681 0
DWIDTH 14 0
BBX 14 15 0 0
BITMAP
FFFC
FFFC
FFFC
0780
0780
0780
0780
0780
0780
0780
0780
0780
0780
0780
0780
ENDCHAR
STARTCHAR afii10037
ENCODING 1059
SWIDTH 736 0
DWIDTH 15 0
BBX 15 15 0 0
BITMAP
F83E
783C
7C3C
3C78
3E78
1EF0
0FF0
0FF0
07E0
07E0
03C0
07C0
3F80
3F80
3E00
ENDCHAR
STARTCHAR afii10038
ENCODING 1060
SWIDTH 952 0
DWIDTH 19 0
BBX 18 15 0 0
BITMAP
01E000
01E000
0FFC00
3FFF00
7FFF80
F9E7C0
F1E3C0
F1E3C0
F1E3C0
F9E7C0
7FFF80
3FFF00
0FFC00
01E000
01E000
ENDCHAR
STARTCHAR afii10039
ENCODING 1061
SWIDTH 763 0
DWIDTH 15 0
BBX 15 15 0 0
BITMAP
F83E
7C7C
3CF8
3EF8
1FF0
0FE0
0FE0
07C0
0FE0
0FE0
1FF0
3EF8
3C78
7C7C
F83E
ENDCHAR
STARTCHAR afii10040
ENCODING 1062
SWIDTH 849 0
DWIDTH 17 0
BBX 14 18 2 -3
BITMAP
F0F0
F0F0
F0F0
F0F0
F0F0
F0F0
F0F0
F0F0
F0F0
F0F0
F0F0
F0F0
FFFC
FFFC
FFFC
003C
003C
003C
ENDCHAR
STARTCHAR afii10041
ENCODING 1063
SWIDTH 787 0
DWIDTH 16 0
BBX 13 15 1 0
BITMAP
F078
F078
F078
F078
F078
F078
F878
FFF8
7FF8
3FF8
0078
0078
0078
0078
0078
ENDCHAR
STARTCHAR afii10042
ENCODING 1064
SWIDTH 1163 0
DWIDTH 23 0
BBX 20 15 2 0
BITMAP
F0F0F0
F0F0F0
F0F0F0
F0F0F0
F0F0F0
F0F0F0
F0F0F0
F0F0F0
F0F0F0
F0F0F0
F0F0F0
F0F0F0
FFFFF0
FFFFF0
FFFFF0
ENDCHAR
STARTCHAR afii10043
ENCODING 1065
SWIDTH 1177 0
DWIDTH 24 0
BBX 22 18 2 -3
BITMAP
F0F0F0
F0F0F0
F0F0F0
F0F0F0
F0F0F0
F0F0F0
F0F0F0
F0F0F0
F0F0F0
F0F0F0
F0F0F0
F0F0F0
FFFFFC
FFFFFC
FFFFFC
00003C
00003C
00003C
ENDCHAR
STARTCHAR afii10044
ENCODING 1066
SWIDTH 907 0
DWIDTH 18 0
BBX 17 15 0 0
BITMAP
FF0000
FF0000
FF0000
0F0000
0F0000
0F0000
0FFE00
0FFF00
0FFF80
0F0780
0F0780
0F0F80
0FFF00
0FFF00
0FFC00
ENDCHAR
STARTCHAR afii10045
ENCODING 1067
SWIDTH 1062 0
DWIDTH 21 0
BBX 17 15 2 0
BITMAP
F00780
F00780
F00780
F00780
F00780
F00780
FFC780
FFE780
FFF780
F0F780
F0F780
F0F780
FFF780
FFE780
FF8780
ENDCHAR
STARTCHAR afii10046
ENCODING 1068
SWIDTH 757 0
DWIDTH 15 0
BBX 12 15 2 0
BITMAP
F000
F000
F000
F000
F000
F000
FFC0
FFE0
FFF0
F0F0
F0F0
F0F0
FFF0
FFE0
FF80
ENDCHAR
STARTCHAR afii10047
ENCODING 1069
SWIDTH 741 0
DWIDTH 15 0
BBX 13 15 1 0
BITMAP
3F80
FFC0
FFE0
C1F0
00F8
0078
1FF8
1FF8
1FF8
0078
00F0
C1F0
FFE0
FFC0
3F00
ENDCHAR
STARTCHAR afii10048
ENCODING 1070
SWIDTH 1195 0
DWIDTH 24 0
BBX 21 15 2 0
BITMAP
F03F80
F07FC0
F0FFE0
F1F1F0
F1E0F8
F3C078
FFC078
FFC078
FFC078
F3C078
F3E0F8
F1F1F0
F0FFE0
F07FC0
F03F80
ENDCHAR
STARTCHAR afii10049
ENCODING 1071
SWIDTH 794 0
DWIDTH 16 0
BBX 14 15 0 0
BITMAP
0FFC
1FFC
3FFC
3C3C
3C3C
3C3C
3FFC
1FFC
0FFC
0F3C
1F3C
3E3C
3C3C
7C3C
F83C
ENDCHAR
STARTCHAR afii10065
ENCODING 1072
SWIDTH 667 0
DWIDTH 13 0
BBX 10 11 1 0
BITMAP
7F00
7F80
43C0
03C0
3FC0
7FC0
F3C0
F3C0
F3C0
FFC0
7BC0
ENDCHAR
STARTCHAR afii10066
ENCODING 1073
SWIDTH 696 0
DWIDTH 14 0
BBX 12 16 1 0
BITMAP
07E0
1FE0
3C00
7800
7000
F7C0
FFE0
F1E0
F0F0
F0F0
F0F0
F0F0
70F0
79E0
3FC0
1F80
ENDCHAR
STARTCHAR afii10067
ENCODING 1074
SWIDTH 677 0
DWIDTH 14 0
BBX 11 11 2 0
BITMAP
FF80
FFC0
F3C0
F3C0
FF80
FFC0
F1E0
F1E0
F1E0
FFC0
FF80
ENDCHAR
STARTCHAR afii10068
ENCODING 1075
SWIDTH 531 0
DWIDTH 11 0
BBX 9 11 2 0
BITMAP
FF80
FF80
F000
F000
F000
F000
F000
F000
F000
F000
F000
ENDCHAR
STARTCHAR afii10069
ENCODING 1076
SWIDTH 691 0
DWIDTH 14 0
BBX 13 14 0 -3
BITMAP
1FF0
1FF0
1CF0
1CF0
1CF0
38F0
38F0
38F0
70F0
FFF8
FFF8
E038
E038
E038
ENDCHAR
STARTCHAR afii10070
ENCODING 1077
SWIDTH 664 0
DWIDTH 13 0
BBX 11 11 1 0
BITMAP
1F80
3FC0
71E0
F1E0
FFE0
FFE0
F000
F020
7860
3FE0
1FC0
ENDCHAR
STARTCHAR afii10072
ENCODING 1078
SWIDTH 999 0
DWIDTH 20 0
BBX 20 11 0 0
BITMAP
F0F0F0
F8F1F0
3CF3C0
1CF380
1FFF80
1FFF80
1EF780
3EF7C0
3CF3C0
7CF3E0
F8F1F0
ENDCHAR
STARTCHAR afii10073
ENCODING 1079
SWIDTH 587 0
DWIDTH 12 0
BBX 10 11 1 0
BITMAP
7F00
7FC0
43C0
03C0
3F80
3F80
03C0
83C0
C3C0
FF80
7F00
ENDCHAR
STARTCHAR afii10074
ENCODING 1080
SWIDTH 720 0
DWIDTH 14 0
BBX 10 11 2 0
BITMAP
F3C0
F3C0
F7C0
F7C0
F7C0
FFC0
FBC0
FBC0
F3C0
F3C0
F3C0
ENDCHAR
STARTCHAR afii10075
ENCODING 1081
SWIDTH 720 0
DWIDTH 14 0
BBX 10 16 2 0
BITMAP
7380
7380
3F00
1E00
0000
F3C0
F3C0
F7C0
F7C0
F7C0
FFC0
FBC0
FBC0
F3C0
F3C0
F3C0
ENDCHAR
STARTCHAR afii10076
ENCODING 1082
SWIDTH 670 0
DWIDTH 13 0
BBX 11 11 2 0
BITMAP
F1C0
F3C0
F3C0
F780
FF00
FF00
FF00
F780
F780
F3C0
F3E0
ENDCHAR
STARTCHAR afii10077
ENCODING 1083
SWIDTH 709 0
DWIDTH 14 0
BBX 12 11 0 0
BITMAP
1FF0
1FF0
1CF0
1CF0
1CF0
1CF0
1CF0
3CF0
38F0
F8F0
E0F0
ENDCHAR
STARTCHAR afii10078
ENCODING 1084
SWIDTH 830 0
DWIDTH 17 0
BBX 13 11 2 0
BITMAP
F8F8
F8F8
F8F8
FDF8
FDF8
FFF8
F778
F778
F278
F078
F078
ENDCHAR
STARTCHAR afii10079
ENCODING 1085
SWIDTH 719 0
DWIDTH 14 0
BBX 10 11 2 0
BITMAP
F3C0
F3C0
F3C0
F3C0
FFC0
FFC0
F3C0
F3C0
F3C0
F3C0
F3C0
ENDCHAR
STARTCHAR afii10080
ENCODING 1086
SWIDTH 686 0
DWIDTH 14 0
BBX 12 11 1 0
BITMAP
1F80
3FC0
79E0
F0F0
F0F0
F0F0
F0F0
F0F0
79E0
3FC0
1F80
ENDCHAR
STARTCHAR afii10081
ENCODING 1087
SWIDTH 719 0
DWIDTH 14 0
BBX 10 11 2 0
BITMAP
FFC0
FFC0
F3C0
F3C0
F3C0
F3C0
F3C0
F3C0
F3C0
F3C0
F3C0
ENDCHAR
STARTCHAR afii10082
ENCODING 1088
SWIDTH 699 0
DWIDTH 14 0
BBX 11 15 2 -4
BITMAP
F780
FFC0
F3E0
F1E0
F1E0
F1E0
F1E0
F1E0
F3C0
FFC0
FF80
F000
F000
F000
F000
ENDCHAR
STARTCHAR afii10083
ENCODING 1089
SWIDTH 598 0
DWIDTH 12 0
BBX 10 11 1 0
BITMAP
1F80
3FC0
78C0
F040
F000
F000
F000
F040
78C0
3FC0
1F80
ENDCHAR
STARTCHAR afii10084
ENCODING 1090
SWIDTH 535 0
DWIDTH 11 0
BBX 12 11 0 0
BITMAP
FFF0
FFF0
0F00
0F00
0F00
0F00
0F00
0F00
0F00
0F00
0F00
ENDCHAR
STARTCHAR afii10085
ENCODING 1091
SWIDTH 650 0
DWIDTH 13 0
BBX 13 15 0 -4
BITMAP
F078
78F0
78F0
78F0
3DE0
3DE0
1FC0
1FC0
1F80
0F80
0F80
0F00
1F00
1E00
1E00
ENDCHAR
STARTCHAR afii10086
ENCODING 1092
SWIDTH 965 0
DWIDTH 19 0
BBX 18 20 1 -4
BITMAP
01E000
01E000
01E000
01E000
01E000
1FFF00
7FFF80
79E7C0
F1E3C0
F1E3C0
F1E3C0
F1E3C0
F1E3C0
79E780
7FFF80
3FFE00
01E000
01E000
01E000
01E000
ENDCHAR
STARTCHAR afii10087
ENCODING 1093
SWIDTH 668 0
DWIDTH 13 0
BBX 13 11 0 0
BITMAP
F8F8
78F0
3DE0
1FC0
1FC0
0F80
1FC0
1FC0
3DE0
78F0
F8F8
ENDCHAR
STARTCHAR afii10088
ENCODING 1094
SWIDTH 729 0
DWIDTH 15 0
BBX 12 14 2 -3
BITMAP
F1E0
F1E0
F1E0
F1E0
F1E0
F1E0
F1E0
F1E0
F1E0
FFF0
FFF0
0070
0070
0070
ENDCHAR
STARTCHAR afii10089
ENCODING 1095
SWIDTH 684 0
DWIDTH 14 0
BBX 10 11 1 0
BITMAP
F3C0
F3C0
F3C0
F3C0
F3C0
F3C0
FFC0
7FC0
03C0
03C0
03C0
ENDCHAR
STARTCHAR afii10090
ENCODING 1096
SWIDTH 1002 0
DWIDTH 20 0
BBX 18 11 1 0
BITMAP
F1E3C0
F1E3C0
F1E3C0
F1E3C0
F1E3C0
F1E3C0
F1E3C0
F1E3C0
F1E3C0
FFFFC0
FFFFC0
ENDCHAR
STARTCHAR afii10091
ENCODING 1097
SWIDTH 1012 0
DWIDTH 20 0
BBX 19 14 1 -3
BITMAP
F1E3C0
F1E3C0
F1E3C0
F1E3C0
F1E3C0
F1E3C0
F1E3C0
F1E3C0
F1E3C0
FFFFE0
FFFFE0
0000E0
0000E0
0000E0
ENDCHAR
STARTCHAR afii10092
ENCODING 1098
SWIDTH 743 0
DWIDTH 15 0
BBX 14 11 0 0
BITMAP
FE00
FE00
1E00
1E00
1FF0
1FF8
1E3C
1E3C
1E3C
1FF8
1FF0
ENDCHAR
STARTCHAR afii10093
ENCODING 1099
SWIDTH 937 0
DWIDTH 19 0
BBX 15 11 2 0
BITMAP
F01E
F01E
F01E
F01E
FF9E
FFDE
F3DE
F3DE
F3DE
FF9E
FF1E
ENDCHAR
STARTCHAR afii10094
ENCODING 1100
SWIDTH 649 0
DWIDTH 13 0
BBX 10 11 2 0
BITMAP
F000
F000
F000
F000
FF80
FFC0
F3C0
F3C0
F3C0
FF80
FF00
ENDCHAR
STARTCHAR afii10095
ENCODING 1101
SWIDTH 605 0
DWIDTH 12 0
BBX 10 11 1 0
BITMAP
7E00
FF00
C780
83C0
3FC0
3FC0
03C0
83C0
C780
FF00
7E00
ENDCHAR
STARTCHAR afii10096
ENCODING 1102
SWIDTH 994 0
DWIDTH 20 0
BBX 17 11 2 0
BITMAP
F07C00
F1FF00
F1EF00
F3C780
FFC780
FFC780
F3C780
F3C780
F1EF00
F1FF00
F07C00
ENDCHAR
STARTCHAR afii10097
ENCODING 1103
SWIDTH 681 0
DWIDTH 14 0
BBX 11 11 0 0
BITMAP
1FE0
7FE0
79E0
79E0
79E0
3FE0
1FE0
3FE0
3DE0
7DE0
F9E0
ENDCHAR
STARTCHAR afii10071
ENCODING 1105
SWIDTH 664 0
DWIDTH 13 0
BBX 11 16 1 0
BITMAP
39C0
39C0
39C0
0000
0000
1F80
3FC0
71E0
F1E0
FFE0
FFE0
F000
F020
7860
3FE0
1FC0
ENDCHAR
STARTCHAR afii10099
ENCODING 1106
SWIDTH 712 0
DWIDTH 14 0
BBX 11 20 1 -4
BITMAP
7800
FF00
FF00
7800
7800
7BC0
7FC0
79E0
79E0
79E0
79E0
79E0
79E0
79E0
79E0
79E0
01E0
03C0
07C0
0780
ENDCHAR
STARTCHAR afii10100
ENCODING 1107
SWIDTH 531 0
DWIDTH 11 0
BBX 9 17 2 0
BITMAP
0780
0700
0E00
0C00
0000
0000
FF80
FF80
F000
F000
F000
F000
F000
F000
F000
F000
F000
ENDCHAR
STARTCHAR afii10101
ENCODING 1108
SWIDTH 605 0
DWIDTH 12 0
BBX 10 11 1 0
BITMAP
1F80
3FC0
78C0
F040
FF00
FF00
F000
F040
78C0
3FC0
1F80
ENDCHAR
STARTCHAR afii10102
ENCODING 1109
SWIDTH 593 0
DWIDTH 12 0
BBX 10 11 1 0
BITMAP
1F80
7FC0
F0C0
F040
FF00
7F80
3FC0
83C0
C3C0
FF80
7F00
ENDCHAR
STARTCHAR afii10103
ENCODING 1110
SWIDTH 341 0
DWIDTH 7 0
BBX 4 16 2 0
BITMAP
F0
F0
F0
00
00
F0
F0
F0
F0
F0
F0
F0
F0
F0
F0
F0
ENDCHAR
STARTCHAR afii10104
ENCODING 1111
SWIDTH 341 0
DWIDTH 7 0
BBX 8 16 0 0
BITMAP
E7
E7
E7
00
00
3C
3C
3C
3C
3C
3C
3C
3C
3C
3C
3C
ENDCHAR
STARTCHAR afii10105
ENCODING 1112
SWIDTH 402 0
DWIDTH 8 0
BBX 7 20 -1 -4
BITMAP
1E
1E
1E
00
00
7E
7E
1E
1E
1E
1E
1E
1E
1E
1E
1E
1E
1E
FC
F8
ENDCHAR
STARTCHAR afii10106
ENCODING 1113
SWIDTH 1012 0
DWIDTH 20 0
BBX 19 11 0 0
BITMAP
1FF000
1FF000
1CF000
1CF000
1CFF80
1CFFC0
1CF1E0
3CF1E0
38F1E0
F8FFC0
E0FF80
ENDCHAR
STARTCHAR afii10107
ENCODING 1114
SWIDTH 1019 0
DWIDTH 20 0
BBX 17 11 2 0
BITMAP
F1E000
F1E000
F1E000
F1E000
FFFF00
FFFF80
F1E780
F1E780
F1E780
F1FF00
F1FE00
ENDCHAR
STARTCHAR afii10108
ENCODING 1115
SWIDTH 712 0
DWIDTH 14 0
BBX 11 16 1 0
BITMAP
7800
FF00
FF00
7800
7800
7BC0
7FE0
79E0
79E0
79E0
79E0
79E0
79E0
79E0
79E0
79E0
ENDCHAR
STARTCHAR afii10109
ENCODING 1116
SWIDTH 670 0
DWIDTH 13 0
BBX 11 17 2 0
BITMAP
0380
0700
0E00
0C00
0000
0000
F1C0
F3C0
F3C0
F780
FF00
FF00
FF00
F780
F780
F3C0
F3E0
ENDCHAR
STARTCHAR uni045D
ENCODING 1117
SWIDTH 720 0
DWIDTH 14 0
BBX 10 17 2 0
BITMAP
7000
3800
1C00
0C00
0000
0000
F3C0
F3C0
F7C0
F7C0
F7C0
FFC0
FBC0
FBC0
F3C0
F3C0
F3C0
ENDCHAR
STARTCHAR afii10110
ENCODING 1118
SWIDTH 650 0
DWIDTH 13 0
BBX 13 20 0 -4
BITMAP
38E0
38E0
1FC0
0F80
0000
F078
78F0
78F0
78F0
3DE0
3DE0
1FC0
1FC0
1F80
0F80
0F80
0F00
1F00
1E00
1E00
ENDCHAR
STARTCHAR afii10193
ENCODING 1119
SWIDTH 719 0
DWIDTH 14 0
BBX 10 14 2 -3
BITMAP
F3C0
F3C0
F3C0
F3C0
F3C0
F3C0
F3C0
F3C0
F3C0
FFC0
FFC0
0E00
0E00
0E00
ENDCHAR
STARTCHAR afii10050
ENCODING 1168
SWIDTH 637 0
DWIDTH 13 0
BBX 11 19 2 0
BITMAP
01E0
01E0
01E0
01E0
FFE0
FFE0
FFE0
F000
F000
F000
F000
F000
F000
F000
F000
F000
F000
F000
F000
ENDCHAR
STARTCHAR afii10098
ENCODING 1169
SWIDTH 531 0
DWIDTH 11 0
BBX 9 15 2 0
BITMAP
0380
0380
0380
0380
FF80
FF80
F000
F000
F000
F000
F000
F000
F000
F000
F000
ENDCHAR
STARTCHAR uni0492
ENCODING 1170
SWIDTH 637 0
DWIDTH 13 0
BBX 13 15 0 0
BITMAP
3FF8
3FF8
3FF8
3C00
3C00
3C00
FF80
FF80
FF80
3C00
3C00
3C00
3C00
3C00
3C00
ENDCHAR
STARTCHAR uni0493
ENCODING 1171
SWIDTH 531 0
DWIDTH 11 0
BBX 10 11 1 0
BITMAP
7FC0
7FC0
7800
7800
FF00
FF00
7800
7800
7800
7800
7800
ENDCHAR
STARTCHAR uni0496
ENCODING 1174
SWIDTH 1115 0
DWIDTH 22 0
BBX 22 18 0 -3
BITMAP
787878
7C78F8
7C78F8
1E79E0
0E79C0
0F7BC0
0FFFC0
0FFF80
0FFFC0
1F7BE0
1E79E0
3E79F0
7C78FC
78787C
F8787C
00003C
00003C
00003C
ENDCHAR
STARTCHAR uni0497
ENCODING 1175
SWIDTH 999 0
DWIDTH 20 0
BBX 18 14 1 -3
BITMAP
E1E1C0
F1E3C0
39E700
39E700
1DEE00
1FFE00
3FFE00
3DEF00
79EF00
79E7C0
F9E7C0
0003C0
0003C0
0003C0
ENDCHAR
STARTCHAR uni049A
ENCODING 1178
SWIDTH 770 0
DWIDTH 15 0
BBX 13 18 2 -3
BITMAP
F0F0
F0F0
F1F0
F1C0
F380
F780
FF80
FF00
FF80
F780
F3C0
F3E0
F1F8
F1F8
F0F8
0078
0078
0078
ENDCHAR
STARTCHAR uni049B
ENCODING 1179
SWIDTH 670 0
DWIDTH 13 0
BBX 11 14 2 -3
BITMAP
F1C0
F1C0
F300
F300
F700
FE00
FF00
F700
F780
F3E0
F3E0
01E0
01E0
01E0
ENDCHAR
STARTCHAR uni049C
ENCODING 1180
SWIDTH 770 0
DWIDTH 15 0
BBX 13 15 2 0
BITMAP
F070
F0F0
F5F0
F5C0
F780
F780
FF80
FF00
FF80
F7C0
F7C0
F7E0
F5E0
F0F0
F0F8
ENDCHAR
STARTCHAR uni049D
ENCODING 1181
SWIDTH 670 0
DWIDTH 13 0
BBX 12 11 1 0
BITMAP
F0E0
F5E0
F580
F780
F780
FF80
FFC0
F7C0
F7E0
F5E0
F1F0
ENDCHAR
STARTCHAR uni04A2
ENCODING 1186
SWIDTH 837 0
DWIDTH 17 0
BBX 14 18 2 -3
BITMAP
F078
F078
F078
F078
F078
FFF8
FFF8
FFF8
F078
F078
F078
F078
F07C
F07C
F07C
003C
003C
003C
ENDCHAR
STARTCHAR uni04A3
ENCODING 1187
SWIDTH 719 0
DWIDTH 14 0
BBX 11 14 2 -3
BITMAP
F3C0
F3C0
F3C0
F3C0
FFC0
FFC0
F3C0
F3C0
F3C0
F3E0
F3E0
01E0
01E0
01E0
ENDCHAR
STARTCHAR uni04AE
ENCODING 1198
SWIDTH 736 0
DWIDTH 15 0
BBX 14 15 1 0
BITMAP
F87C
7878
7CF8
3CF0
3FF0
1FE0
1FC0
0FC0
0780
0780
0780
0780
0780
0780
0780
ENDCHAR
STARTCHAR uni04AF
ENCODING 1199
SWIDTH 650 0
DWIDTH 13 0
BBX 14 15 -1 -4
BITMAP
F87C
7878
7C78
3CF0
3CF0
1FE0
1FE0
0FC0
0FC0
0FC0
0780
0780
0780
0780
0780
ENDCHAR
STARTCHAR uni04B0
ENCODING 1200
SWIDTH 736 0
DWIDTH 15 0
BBX 14 15 1 0
BITMAP
F87C
7878
7CF8
3CF0
3FF0
1FE0
1FC0
0FC0
0780
0780
3FF0
3FF0
3FF0
0780
0780
ENDCHAR
STARTCHAR uni04B1
ENCODING 1201
SWIDTH 650 0
DWIDTH 13 0
BBX 13 15 1 -4
BITMAP
F0F8
78F0
78F0
79E0
3DE0
3FE0
3FC0
1FC0
1F80
1F80
0F00
7FE0
7FE0
0F00
0F00
ENDCHAR
STARTCHAR uni04B2
ENCODING 1202
SWIDTH 763 0
DWIDTH 15 0
BBX 15 18 0 -3
BITMAP
F83E
7C7C
3C78
3EF8
1FF0
0FE0
0FE0
07C0
0FE0
0FE0
1FF0
3EF8
3C7E
7C7E
F83E
001E
001E
001E
ENDCHAR
STARTCHAR uni04B3
ENCODING 1203
SWIDTH 668 0
DWIDTH 13 0
BBX 13 14 0 -3
BITMAP
F8F8
79F0
3DE0
3FC0
1FC0
0F80
1F80
1FC0
3DE0
7DF8
F8F8
0078
0078
0078
ENDCHAR
STARTCHAR uni04B8
ENCODING 1208
SWIDTH 787 0
DWIDTH 16 0
BBX 13 15 1 0
BITMAP
F078
F078
F078
F278
F278
F278
FA78
FFF8
7FF8
3FF8
0278
0278
0278
0078
0078
ENDCHAR
STARTCHAR uni04B9
ENCODING 1209
SWIDTH 684 0
DWIDTH 14 0
BBX 11 11 1 0
BITMAP
F1E0
F1E0
F1E0
F5E0
F5E0
F5E0
7FE0
3FE0
05E0
01E0
01E0
ENDCHAR
STARTCHAR uni04BA
ENCODING 1210
SWIDTH 787 0
DWIDTH 16 0
BBX 13 15 2 0
BITMAP
F000
F000
F000
F000
F000
FFE0
FFF0
FFF8
F0F8
F078
F078
F078
F078
F078
F078
ENDCHAR
STARTCHAR uni04BB
ENCODING 1211
SWIDTH 712 0
DWIDTH 14 0
BBX 10 16 2 0
BITMAP
F000
F000
F000
F000
F000
F780
FFC0
F3C0
F3C0
F3C0
F3C0
F3C0
F3C0
F3C0
F3C0
F3C0
ENDCHAR
STARTCHAR uni04D8
ENCODING 1240
SWIDTH 805 0
DWIDTH 16 0
BBX 14 15 1 0
BITMAP
0FC0
3FF0
3FF8
3078
207C
003C
FFFC
FFFC
FFFC
F03C
F03C
7878
7FF8
3FF0
0FC0
ENDCHAR
STARTCHAR uni04D9
ENCODING 1241
SWIDTH 664 0
DWIDTH 13 0
BBX 11 11 1 0
BITMAP
7F00
FF80
83C0
01E0
01E0
FFE0
FFE0
F1E0
F1C0
7F80
3F00
ENDCHAR
STARTCHAR uni04E8
ENCODING 1256
SWIDTH 850 0
DWIDTH 17 0
BBX 15 15 1 0
BITMAP
0FE0
1FF0
3FF8
7C7C
F83E
F01E
FFFE
FFFE
FFFE
F01E
F83E
7C7C
3FF8
1FF0
0FE0
ENDCHAR
STARTCHAR uni04E9
ENCODING 1257
SWIDTH 686 0
DWIDTH 14 0
BBX 12 11 1 0
BITMAP
1F80
3FC0
79E0
F0F0
FFF0
FFF0
F0F0
F0F0
79E0
3FC0
1F80
ENDCHAR
STARTCHAR uni0564
ENCODING 1380
SWIDTH 712 0
DWIDTH 14 0
BBX 12 15 2 -4
BITMAP
F780
FF80
F3C0
F3C0
F3C0
F3C0
F3C0
F3C0
F3C0
F3F0
F3F0
03C0
03C0
0FF0
0FF0
ENDCHAR
STARTCHAR uni0580
ENCODING 1408
SWIDTH 712 0
DWIDTH 14 0
BBX 12 15 0 -4
BITMAP
3DE0
3FF0
3CF0
3CF0
3CF0
3CF0
3CF0
3CF0
3CF0
3CF0
3CF0
3C00
3C00
FF00
FF00
ENDCHAR
STARTCHAR uni0E3F
ENCODING 3647
SWIDTH 761 0
DWIDTH 15 0
BBX 12 19 2 -2
BITMAP
0600
0600
FFE0
FFF0
FFF0
F6F0
F6F0
FFE0
FFE0
FFF0
F6F0
F6F0
F6F0
F6F0
FFE0
FFE0
FF80
0600
0600
ENDCHAR
STARTCHAR Wgrave
ENCODING 7808
SWIDTH 1128 0
DWIDTH 23 0
BBX 21 21 1 0
BITMAP
01E000
00F000
007000
003800
000000
000000
F07878
F0F878
78F8F0
78F8F0
78F8F0
79DCF0
3DDDE0
3DDDE0
3DDDE0
3D9DE0
1F8FC0
1F8FC0
1F8FC0
1F8FC0
0F0780
ENDCHAR
STARTCHAR wgrave
ENCODING 7809
SWIDTH 979 0
DWIDTH 20 0
BBX 20 17 0 0
BITMAP
01C000
00E000
006000
007000
000000
000000
F0F0F0
F8F1F0
78F1E0
79F9E0
79F9E0
3D9BC0
3D9FC0
3F9FC0
1F9F80
1F0F80
1F0F80
ENDCHAR
STARTCHAR Wacute
ENCODING 7810
SWIDTH 1128 0
DWIDTH 23 0
BBX 21 21 1 0
BITMAP
001C00
003800
007000
006000
000000
000000
F07878
F0F878
78F8F0
78F8F0
78F8F0
79DCF0
3DDDE0
3DDDE0
3DDDE0
3D9DE0
1F8FC0
1F8FC0
1F8FC0
1F8FC0
0F0780
ENDCHAR
STARTCHAR wacute
ENCODING 7811
SWIDTH 979 0
DWIDTH 20 0
BBX 20 17 0 0
BITMAP
003C00
003800
007000
00E000
000000
000000
F0F0F0
F8F1F0
78F1E0
79F9E0
79F9E0
3D9BC0
3D9FC0
3F9FC0
1F9F80
1F0F80
1F0F80
ENDCHAR
STARTCHAR Wdieresis
ENCODING 7812
SWIDTH 1128 0
DWIDTH 23 0
BBX 21 20 1 0
BITMAP
01CE00
01CE00
01CE00
000000
000000
F07878
F0F878
78F8F0
78F8F0
78F8F0
79DCF0
3DDDE0
3DDDE0
3DDDE0
3D9DE0
1F8FC0
1F8FC0
1F8FC0
1F8FC0
0F0780
ENDCHAR
STARTCHAR wdieresis
ENCODING 7813
SWIDTH 979 0
DWIDTH 20 0
BBX 20 16 0 0
BITMAP
039C00
039C00
039C00
000000
000000
F0F0F0
F8F1F0
78F1E0
79F9E0
79F9E0
3D9BC0
3D9FC0
3F9FC0
1F9F80
1F0F80
1F0F80
ENDCHAR
STARTCHAR Adotbelow
ENCODING 7840
SWIDTH 776 0
DWIDTH 16 0
BBX 16 19 0 -4
BITMAP
03C0
07E0
07E0
0FF0
0FF0
0FF0
1E78
1E78
3E7C
3FFC
3FFC
7FFE
781E
781E
F00F
0000
0380
0380
0380
ENDCHAR
STARTCHAR adotbelow
ENCODING 7841
SWIDTH 667 0
DWIDTH 13 0
BBX 10 15 1 -4
BITMAP
7F00
7F80
43C0
03C0
3FC0
7FC0
F3C0
F3C0
F3C0
FFC0
7BC0
0000
0E00
0E00
0E00
ENDCHAR
STARTCHAR Ahookabove
ENCODING 7842
SWIDTH 776 0
DWIDTH 16 0
BBX 16 21 0 0
BITMAP
01C0
0060
00C0
00C0
0000
0000
03C0
07E0
07E0
0FF0
0FF0
0FF0
1E78
1E78
3E7C
3FFC
3FFC
7FFE
781E
781E
F00F
ENDCHAR
STARTCHAR ahookabove
ENCODING 7843
SWIDTH 667 0
DWIDTH 13 0
BBX 10 17 1 0
BITMAP
0E00
0300
0600
0600
0000
0000
7F00
7F80
43C0
03C0
3FC0
7FC0
F3C0
F3C0
F3C0
FFC0
7BC0
ENDCHAR
STARTCHAR Acircumflexacute
ENCODING 7844
SWIDTH 776 0
DWIDTH 16 0
BBX 16 20 0 0
BITMAP
0786
07CE
0ECC
1C60
0000
03C0
07E0
07E0
0FF0
0FF0
0FF0
1E78
1E78
3E7C
3FFC
3FFC
7FFE
781E
781E
F00F
ENDCHAR
STARTCHAR acircumflexacute
ENCODING 7845
SWIDTH 667 0
DWIDTH 13 0
BBX 14 17 1 0
BITMAP
0E1C
1F18
1B98
31C0
0000
0000
7F00
7F80
43C0
03C0
3FC0
7FC0
F3C0
F3C0
F3C0
FFC0
7BC0
ENDCHAR
STARTCHAR Acircumflexgrave
ENCODING 7846
SWIDTH 776 0
DWIDTH 16 0
BBX 16 20 0 0
BITMAP
E3C0
63E0
6760
0E30
0000
03C0
07E0
07E0
0FF0
0FF0
0FF0
1E78
1E78
3E7C
3FFC
3FFC
7FFE
781E
781E
F00F
ENDCHAR
STARTCHAR acircumflexgrave
ENCODING 7847
SWIDTH 667 0
DWIDTH 13 0
BBX 12 17 -1 0
BITMAP
C380
E7C0
66E0
0C70
0000
0000
1FC0
1FE0
10F0
00F0
0FF0
1FF0
3CF0
3CF0
3CF0
3FF0
1EF0
ENDCHAR
STARTCHAR Acircumflexhookabove
ENCODING 7848
SWIDTH 776 0
DWIDTH 16 0
BBX 17 20 0 0
BITMAP
000700
01C180
03E300
073300
000000
03C000
07E000
07E000
0FF000
0FF000
0FF000
1E7800
1E7800
3E7C00
3FFC00
3FFC00
7FFE00
781E00
781E00
F00F00
ENDCHAR
STARTCHAR acircumflexhookabove
ENCODING 7849
SWIDTH 667 0
DWIDTH 13 0
BBX 12 19 1 0
BITMAP
00F0
0030
1C30
3E60
3700
6380
0000
0000
7F00
7F80
43C0
03C0
3FC0
7FC0
F3C0
F3C0
F3C0
FFC0
7BC0
ENDCHAR
STARTCHAR Acircumflextilde
ENCODING 7850
SWIDTH 776 0
DWIDTH 16 0
BBX 16 20 0 0
BITMAP
0730
06E0
03C0
0760
0000
03C0
07E0
07E0
0FF0
0FF0
0FF0
1E78
1E78
3E7C
3FFC
3FFC
7FFE
781E
781E
F00F
ENDCHAR
STARTCHAR acircumflextilde
ENCODING 7851
SWIDTH 667 0
DWIDTH 13 0
BBX 10 20 1 0
BITMAP
1CC0
3FC0
6380
0E00
1F00
1B80
31C0
0000
0000
7F00
7F80
43C0
03C0
3FC0
7FC0
F3C0
F3C0
F3C0
FFC0
7BC0
ENDCHAR
STARTCHAR Acircumflexdotbelow
ENCODING 7852
SWIDTH 776 0
DWIDTH 16 0
BBX 16 24 0 -4
BITMAP
03C0
03E0
0760
0E30
0000
03C0
07E0
07E0
0FF0
0FF0
0FF0
1E78
1E78
3E7C
3FFC
3FFC
7FFE
781E
781E
F00F
0000
0380
0380
0380
ENDCHAR
STARTCHAR acircumflexdotbelow
ENCODING 7853
SWIDTH 667 0
DWIDTH 13 0
BBX 10 21 1 -4
BITMAP
0E00
1F00
1B80
31C0
0000
0000
7F00
7F80
43C0
03C0
3FC0
7FC0
F3C0
F3C0
F3C0
FFC0
7BC0
0000
0E00
0E00
0E00
ENDCHAR
STARTCHAR Abreveacute
ENCODING 7854
SWIDTH 776 0
DWIDTH 16 0
BBX 16 20 0 0
BITMAP
00C0
0080
0670
03E0
0000
03C0
07E0
07E0
0FF0
0FF0
0FF0
1E78
1E78
3E7C
3FFC
3FFC
7FFE
781E
781E
F00F
ENDCHAR
STARTCHAR abreveacute
ENCODING 7855
SWIDTH 667 0
DWIDTH 13 0
BBX 10 19 1 0
BITMAP
0700
0600
0600
6180
3180
3F80
1F00
0000
7F00
7F80
43C0
03C0
3FC0
7FC0
F3C0
F3C0
F3C0
FFC0
7BC0
ENDCHAR
STARTCHAR Abrevegrave
ENCODING 7856
SWIDTH 776 0
DWIDTH 16 0
BBX 16 20 0 0
BITMAP
0300
0100
0670
03E0
0000
03C0
07E0
07E0
0FF0
0FF0
0FF0
1E78
1E78
3E7C
3FFC
3FFC
7FFE
781E
781E
F00F
ENDCHAR
STARTCHAR abrevegrave
ENCODING 7857
SWIDTH 667 0
DWIDTH 13 0
BBX 10 19 1 0
BITMAP
1800
1C00
0C00
6180
3180
3F80
1F00
0000
7F00
7F80
43C0
03C0
3FC0
7FC0
F3C0
F3C0
F3C0
FFC0
7BC0
ENDCHAR
STARTCHAR Abrevehookabove
ENCODING 7858
SWIDTH 776 0
DWIDTH 16 0
BBX 16 21 0 0
BITMAP
0180
0080
06B0
0660
03C0
0000
03C0
07E0
07E0
0FF0
0FF0
0FF0
1E78
1E78
3E7C
3FFC
3FFC
7FFE
781E
781E
F00F
ENDCHAR
STARTCHAR abrevehookabove
ENCODING 7859
SWIDTH 667 0
DWIDTH 13 0
BBX 10 20 1 0
BITMAP
1E00
0600
0600
0C00
6180
3180
3F80
1F00
0000
7F00
7F80
43C0
03C0
3FC0
7FC0
F3C0
F3C0
F3C0
FFC0
7BC0
ENDCHAR
STARTCHAR Abrevetilde
ENCODING 7860
SWIDTH 776 0
DWIDTH 16 0
BBX 16 20 0 0
BITMAP
0730
06E0
0670
03E0
0000
03C0
07E0
07E0
0FF0
0FF0
0FF0
1E78
1E78
3E7C
3FFC
3FFC
7FFE
781E
781E
F00F
ENDCHAR
STARTCHAR abrevetilde
ENCODING 7861
SWIDTH 667 0
DWIDTH 13 0
BBX 10 20 1 0
BITMAP
3CC0
7FC0
C780
0000
6180
3180
3F80
1F00
0000
7F00
7F80
43C0
03C0
3FC0
7FC0
F3C0
F3C0
F3C0
FFC0
7BC0
ENDCHAR
STARTCHAR Abrevedotbelow
ENCODING 7862
SWIDTH 776 0
DWIDTH 16 0
BBX 16 24 0 -4
BITMAP
0618
0630
07F0
03E0
0000
03C0
07E0
07E0
0FF0
0FF0
0FF0
1E78
1E78
3E7C
3FFC
3FFC
7FFE
781E
781E
F00F
0000
0380
0380
0380
ENDCHAR
STARTCHAR abrevedotbelow
ENCODING 7863
SWIDTH 667 0
DWIDTH 13 0
BBX 10 20 1 -4
BITMAP
6180
3180
3F80
1F00
0000
7F00
7F80
43C0
03C0
3FC0
7FC0
F3C0
F3C0
F3C0
FFC0
7BC0
0000
0E00
0E00
0E00
ENDCHAR
STARTCHAR Edotbelow
ENCODING 7864
SWIDTH 683 0
DWIDTH 14 0
BBX 11 19 2 -4
BITMAP
FFE0
FFE0
FFE0
F000
F000
F000
FFC0
FFC0
FFC0
F000
F000
F000
FFE0
FFE0
FFE0
0000
0700
0700
0700
ENDCHAR
STARTCHAR edotbelow
ENCODING 7865
SWIDTH 664 0
DWIDTH 13 0
BBX 11 15 1 -4
BITMAP
1F80
3FC0
71E0
F1E0
FFE0
FFE0
F000
F020
7860
3FE0
1FC0
0000
0700
0700
0700
ENDCHAR
STARTCHAR Ehookabove
ENCODING 7866
SWIDTH 683 0
DWIDTH 14 0
BBX 11 21 2 0
BITMAP
0E00
0300
0200
0600
0000
0000
FFE0
FFE0
FFE0
F000
F000
F000
FFC0
FFC0
FFC0
F000
F000
F000
FFE0
FFE0
FFE0
ENDCHAR
STARTCHAR ehookabove
ENCODING 7867
SWIDTH 664 0
DWIDTH 13 0
BBX 11 17 1 0
BITMAP
0F00
0300
0300
0600
0000
0000
1F80
3FC0
71E0
F1E0
FFE0
FFE0
F000
F020
7860
3FE0
1FC0
ENDCHAR
STARTCHAR Etilde
ENCODING 7868
SWIDTH 683 0
DWIDTH 14 0
BBX 11 20 2 0
BITMAP
3CC0
7FC0
6780
0000
0000
FFE0
FFE0
FFE0
F000
F000
F000
FFC0
FFC0
FFC0
F000
F000
F000
FFE0
FFE0
FFE0
ENDCHAR
STARTCHAR etilde
ENCODING 7869
SWIDTH 664 0
DWIDTH 13 0
BBX 11 16 1 0
BITMAP
38C0
7F80
6780
0000
0000
1F80
3FC0
71E0
F1E0
FFE0
FFE0
F000
F020
7860
3FE0
1FC0
ENDCHAR
STARTCHAR Ecircumflexacute
ENCODING 7870
SWIDTH 683 0
DWIDTH 14 0
BBX 14 21 2 0
BITMAP
0E1C
1F18
3BB0
71C0
0000
0000
FFE0
FFE0
FFE0
F000
F000
F000
FFC0
FFC0
FFC0
F000
F000
F000
FFE0
FFE0
FFE0
ENDCHAR
STARTCHAR ecircumflexacute
ENCODING 7871
SWIDTH 664 0
DWIDTH 13 0
BBX 14 17 1 0
BITMAP
070C
0F9C
1DD8
38C0
0000
0000
1F80
3FC0
71E0
F1E0
FFE0
FFE0
F000
F020
7860
3FE0
1FC0
ENDCHAR
STARTCHAR Ecircumflexgrave
ENCODING 7872
SWIDTH 683 0
DWIDTH 14 0
BBX 14 21 -1 0
BITMAP
E1C0
63E0
3770
0E38
0000
0000
1FFC
1FFC
1FFC
1E00
1E00
1E00
1FF8
1FF8
1FF8
1E00
1E00
1E00
1FFC
1FFC
1FFC
ENDCHAR
STARTCHAR ecircumflexgrave
ENCODING 7873
SWIDTH 664 0
DWIDTH 13 0
BBX 13 17 -1 0
BITMAP
E1C0
63E0
3770
0E30
0000
0000
07E0
0FF0
1C78
3C78
3FF8
3FF8
3C00
3C08
1E18
0FF8
07F0
ENDCHAR
STARTCHAR Ecircumflexhookabove
ENCODING 7874
SWIDTH 683 0
DWIDTH 14 0
BBX 14 20 2 0
BITMAP
0038
0F0C
1F8C
39D8
0000
FFE0
FFE0
FFE0
F000
F000
F000
FFC0
FFC0
FFC0
F000
F000
F000
FFE0
FFE0
FFE0
ENDCHAR
STARTCHAR ecircumflexhookabove
ENCODING 7875
SWIDTH 664 0
DWIDTH 13 0
BBX 14 19 1 0
BITMAP
0038
000C
0708
0F98
1DC0
38C0
0000
0000
1F80
3FC0
71E0
F1E0
FFE0
FFE0
F000
F020
7860
3FE0
1FC0
ENDCHAR
STARTCHAR Ecircumflextilde
ENCODING 7876
SWIDTH 683 0
DWIDTH 14 0
BBX 11 20 2 0
BITMAP
1980
3700
0E00
1B00
0000
FFE0
FFE0
FFE0
F000
F000
F000
FFC0
FFC0
FFC0
F000
F000
F000
FFE0
FFE0
FFE0
ENDCHAR
STARTCHAR ecircumflextilde
ENCODING 7877
SWIDTH 664 0
DWIDTH 13 0
BBX 11 20 1 0
BITMAP
1E60
3FC0
33C0
0700
0F80
1DC0
38C0
0000
0000
1F80
3FC0
71E0
F1E0
FFE0
FFE0
F000
F020
7860
3FE0
1FC0
ENDCHAR
STARTCHAR Ecircumflexdotbelow
ENCODING 7878
SWIDTH 683 0
DWIDTH 14 0
BBX 11 25 2 -4
BITMAP
0E00
1F00
3B80
71C0
0000
0000
FFE0
FFE0
FFE0
F000
F000
F000
FFC0
FFC0
FFC0
F000
F000
F000
FFE0
FFE0
FFE0
0000
0700
0700
0700
ENDCHAR
STARTCHAR ecircumflexdotbelow
ENCODING 7879
SWIDTH 664 0
DWIDTH 13 0
BBX 11 21 1 -4
BITMAP
0700
0F80
1DC0
38C0
0000
0000
1F80
3FC0
71E0
F1E0
FFE0
FFE0
F000
F020
7860
3FE0
1FC0
0000
0700
0700
0700
ENDCHAR
STARTCHAR Ihookabove
ENCODING 7880
SWIDTH 545 0
DWIDTH 11 0
BBX 8 21 2 0
BITMAP
3C
0C
0C
18
00
00
FF
FF
FF
3C
3C
3C
3C
3C
3C
3C
3C
3C
FF
FF
FF
ENDCHAR
STARTCHAR ihookabove
ENCODING 7881
SWIDTH 341 0
DWIDTH 7 0
BBX 5 17 2 0
BITMAP
70
18
30
30
00
00
F0
F0
F0
F0
F0
F0
F0
F0
F0
F0
F0
ENDCHAR
STARTCHAR Idotbelow
ENCODING 7882
SWIDTH 545 0
DWIDTH 11 0
BBX 8 19 2 -4
BITMAP
FF
FF
FF
3C
3C
3C
3C
3C
3C
3C
3C
3C
FF
FF
FF
00
1C
1C
1C
ENDCHAR
STARTCHAR idotbelow
ENCODING 7883
SWIDTH 341 0
DWIDTH 7 0
BBX 4 20 2 -4
BITMAP
F0
F0
F0
00
00
F0
F0
F0
F0
F0
F0
F0
F0
F0
F0
F0
00
70
70
70
ENDCHAR
STARTCHAR Odotbelow
ENCODING 7884
SWIDTH 850 0
DWIDTH 17 0
BBX 15 19 1 -4
BITMAP
0FE0
1FF0
3FF8
7C7C
F83E
F01E
F01E
F01E
F01E
F01E
F83E
7C7C
3FF8
1FF0
0FE0
0000
0380
0380
0380
ENDCHAR
STARTCHAR odotbelow
ENCODING 7885
SWIDTH 686 0
DWIDTH 14 0
BBX 12 15 1 -4
BITMAP
1F80
3FC0
79E0
F0F0
F0F0
F0F0
F0F0
F0F0
79E0
3FC0
1F80
0000
0700
0700
0700
ENDCHAR
STARTCHAR Ohookabove
ENCODING 7886
SWIDTH 850 0
DWIDTH 17 0
BBX 15 21 1 0
BITMAP
0780
0180
0180
0300
0000
0000
0FE0
1FF0
3FF8
7C7C
F83E
F01E
F01E
F01E
F01E
F01E
F83E
7C7C
3FF8
1FF0
0FE0
ENDCHAR
STARTCHAR ohookabove
ENCODING 7887
SWIDTH 686 0
DWIDTH 14 0
BBX 12 17 1 0
BITMAP
0E00
0300
0300
0600
0000
0000
1F80
3FC0
79E0
F0F0
F0F0
F0F0
F0F0
F0F0
79E0
3FC0
1F80
ENDCHAR
STARTCHAR Ocircumflexacute
ENCODING 7888
SWIDTH 850 0
DWIDTH 17 0
BBX 16 21 1 0
BITMAP
03C7
07C6
06E6
0C70
0000
0000
0FE0
1FF0
3FF8
7C7C
F83E
F01E
F01E
F01E
F01E
F01E
F83E
7C7C
3FF8
1FF0
0FE0
ENDCHAR
STARTCHAR ocircumflexacute
ENCODING 7889
SWIDTH 686 0
DWIDTH 14 0
BBX 13 17 1 0
BITMAP
0E18
1F38
3BB0
7180
0000
0000
1F80
3FC0
79E0
F0F0
F0F0
F0F0
F0F0
F0F0
79E0
3FC0
1F80
ENDCHAR
STARTCHAR Ocircumflexgrave
ENCODING 7890
SWIDTH 850 0
DWIDTH 17 0
BBX 15 21 1 0
BITMAP
C3C0
E7C0
66E0
0C70
0000
0000
0FE0
1FF0
3FF8
7C7C
F83E
F01E
F01E
F01E
F01E
F01E
F83E
7C7C
3FF8
1FF0
0FE0
ENDCHAR
STARTCHAR ocircumflexgrave
ENCODING 7891
SWIDTH 686 0
DWIDTH 14 0
BBX 14 17 -1 0
BITMAP
E1C0
63E0
3770
0E30
0000
0000
07E0
0FF0
1E78
3C3C
3C3C
3C3C
3C3C
3C3C
1E78
0FF0
07E0
ENDCHAR
STARTCHAR Ocircumflexhookabove
ENCODING 7892
SWIDTH 850 0
DWIDTH 17 0
BBX 15 20 1 0
BITMAP
001E
0386
07C6
0CEC
0000
0FE0
1FF0
3FF8
7C7C
F83E
F01E
F01E
F01E
F01E
F01E
F83E
7C7C
3FF8
1FF0
0FE0
ENDCHAR
STARTCHAR ocircumflexhookabove
ENCODING 7893
SWIDTH 686 0
DWIDTH 14 0
BBX 13 19 1 0
BITMAP
0070
0018
0E10
1F30
3B80
7180
0000
0000
1F80
3FC0
79E0
F0F0
F0F0
F0F0
F0F0
F0F0
79E0
3FC0
1F80
ENDCHAR
STARTCHAR Ocircumflextilde
ENCODING 7894
SWIDTH 850 0
DWIDTH 17 0
BBX 15 20 1 0
BITMAP
0760
04E0
03C0
06E0
0000
0FE0
1FF0
3FF8
7C7C
F83E
F01E
F01E
F01E
F01E
F01E
F83E
7C7C
3FF8
1FF0
0FE0
ENDCHAR
STARTCHAR ocircumflextilde
ENCODING 7895
SWIDTH 686 0
DWIDTH 14 0
BBX 12 20 1 0
BITMAP
1E60
3FC0
33C0
0700
0F80
1DC0
38C0
0000
0000
1F80
3FC0
79E0
F0F0
F0F0
F0F0
F0F0
F0F0
79E0
3FC0
1F80
ENDCHAR
STARTCHAR Ocircumflexdotbelow
ENCODING 7896
SWIDTH 850 0
DWIDTH 17 0
BBX 15 25 1 -4
BITMAP
03C0
07C0
06E0
0C70
0000
0000
0FE0
1FF0
3FF8
7C7C
F83E
F01E
F01E
F01E
F01E
F01E
F83E
7C7C
3FF8
1FF0
0FE0
0000
0380
0380
0380
ENDCHAR
STARTCHAR ocircumflexdotbelow
ENCODING 7897
SWIDTH 686 0
DWIDTH 14 0
BBX 12 21 1 -4
BITMAP
0700
0F80
1DC0
38C0
0000
0000
1F80
3FC0
79E0
F0F0
F0F0
F0F0
F0F0
F0F0
79E0
3FC0
1F80
0000
0700
0700
0700
ENDCHAR
STARTCHAR Ohornacute
ENCODING 7898
SWIDTH 913 0
DWIDTH 18 0
BBX 18 21 1 0
BITMAP
00E000
01C000
038000
030000
000000
000000
0FE0C0
1FF0C0
3FF8C0
7C7FC0
F83F80
F01E00
F01E00
F01E00
F01E00
F01E00
F83E00
7C7C00
3FF800
1FF000
0FE000
ENDCHAR
STARTCHAR ohornacute
ENCODING 7899
SWIDTH 686 0
DWIDTH 14 0
BBX 13 17 1 0
BITMAP
0380
0780
0700
0E18
0018
0018
1FF8
3FF0
79E0
F0F0
F0F0
F0F0
F0F0
F0F0
79E0
3FC0
1F80
ENDCHAR
STARTCHAR Ohorngrave
ENCODING 7900
SWIDTH 913 0
DWIDTH 18 0
BBX 18 21 1 0
BITMAP
070000
038000
018000
01C000
000000
000000
0FE0C0
1FF0C0
3FF8C0
7C7FC0
F83F80
F01E00
F01E00
F01E00
F01E00
F01E00
F83E00
7C7C00
3FF800
1FF000
0FE000
ENDCHAR
STARTCHAR ohorngrave
ENCODING 7901
SWIDTH 686 0
DWIDTH 14 0
BBX 13 17 1 0
BITMAP
1E00
0E00
0700
0318
0018
0018
1FF8
3FF0
79E0
F0F0
F0F0
F0F0
F0F0
F0F0
79E0
3FC0
1F80
ENDCHAR
STARTCHAR Ohornhookabove
ENCODING 7902
SWIDTH 913 0
DWIDTH 18 0
BBX 18 21 1 0
BITMAP
078000
018000
018000
030000
000000
000000
0FE0C0
1FF0C0
3FF8C0
7C7FC0
F83F80
F01E00
F01E00
F01E00
F01E00
F01E00
F83E00
7C7C00
3FF800
1FF000
0FE000
ENDCHAR
STARTCHAR ohornhookabove
ENCODING 7903
SWIDTH 686 0
DWIDTH 14 0
BBX 13 17 1 0
BITMAP
0E00
0300
0300
0618
0018
0018
1FF8
3FF0
79E0
F0F0
F0F0
F0F0
F0F0
F0F0
79E0
3FC0
1F80
ENDCHAR
STARTCHAR Ohorntilde
ENCODING 7904
SWIDTH 913 0
DWIDTH 18 0
BBX 18 20 1 0
BITMAP
073000
0FF000
18E000
000000
000000
0FE0C0
1FF0C0
3FF8C0
7C7FC0
F83F80
F01E00
F01E00
F01E00
F01E00
F01E00
F83E00
7C7C00
3FF800
1FF000
0FE000
ENDCHAR
STARTCHAR ohorntilde
ENCODING 7905
SWIDTH 686 0
DWIDTH 14 0
BBX 13 16 1 0
BITMAP
38C0
7F80
6798
0018
0018
1FF8
3FF0
79E0
F0F0
F0F0
F0F0
F0F0
F0F0
79E0
3FC0
1F80
ENDCHAR
STARTCHAR Ohorndotbelow
ENCODING 7906
SWIDTH 913 0
DWIDTH 18 0
BBX 18 19 1 -4
BITMAP
0FE0C0
1FF0C0
3FF8C0
7C7FC0
F83F80
F01E00
F01E00
F01E00
F01E00
F01E00
F83E00
7C7C00
3FF800
1FF000
0FE000
000000
038000
038000
038000
ENDCHAR
STARTCHAR ohorndotbelow
ENCODING 7907
SWIDTH 686 0
DWIDTH 14 0
BBX 13 18 1 -4
BITMAP
0018
0018
0018
1FF8
3FF0
79E0
F0F0
F0F0
F0F0
F0F0
F0F0
79E0
3FC0
1F80
0000
0700
0700
0700
ENDCHAR
STARTCHAR Udotbelow
ENCODING 7908
SWIDTH 812 0
DWIDTH 16 0
BBX 12 19 2 -4
BITMAP
F0F0
F0F0
F0F0
F0F0
F0F0
F0F0
F0F0
F0F0
F0F0
F0F0
F0F0
F9F0
7FE0
7FE0
1F80
0000
0E00
0E00
0E00
ENDCHAR
STARTCHAR udotbelow
ENCODING 7909
SWIDTH 712 0
DWIDTH 14 0
BBX 10 15 2 -4
BITMAP
F3C0
F3C0
F3C0
F3C0
F3C0
F3C0
F3C0
F3C0
F3C0
FFC0
7BC0
0000
0E00
0E00
0E00
ENDCHAR
STARTCHAR Uhookabove
ENCODING 7910
SWIDTH 812 0
DWIDTH 16 0
BBX 12 21 2 0
BITMAP
0E00
0300
0300
0600
0000
0000
F0F0
F0F0
F0F0
F0F0
F0F0
F0F0
F0F0
F0F0
F0F0
F0F0
F0F0
F9F0
7FE0
7FE0
1F80
ENDCHAR
STARTCHAR uhookabove
ENCODING 7911
SWIDTH 712 0
DWIDTH 14 0
BBX 10 17 2 0
BITMAP
1E00
0600
0600
0E00
0000
0000
F3C0
F3C0
F3C0
F3C0
F3C0
F3C0
F3C0
F3C0
F3C0
FFC0
7BC0
ENDCHAR
STARTCHAR Uhornacute
ENCODING 7912
SWIDTH 846 0
DWIDTH 17 0
BBX 16 21 2 0
BITMAP
03C0
0380
0700
0E03
0003
0003
F07F
F07E
F078
F078
F078
F078
F078
F078
F078
F078
F078
F8F8
7FF0
3FE0
1FC0
ENDCHAR
STARTCHAR uhornacute
ENCODING 7913
SWIDTH 741 0
DWIDTH 15 0
BBX 13 17 2 0
BITMAP
0780
0700
0E00
1C18
0018
0018
F3F8
F3F0
F3C0
F3C0
F3C0
F3C0
F3C0
F3C0
F3C0
FFC0
7BC0
ENDCHAR
STARTCHAR Uhorngrave
ENCODING 7914
SWIDTH 846 0
DWIDTH 17 0
BBX 16 21 2 0
BITMAP
1E00
0E00
0700
0383
0003
0003
F07F
F07E
F078
F078
F078
F078
F078
F078
F078
F078
F078
F8F8
7FF0
3FE0
1FC0
ENDCHAR
STARTCHAR uhorngrave
ENCODING 7915
SWIDTH 741 0
DWIDTH 15 0
BBX 13 17 2 0
BITMAP
3C00
1C00
0E00
0718
0018
0018
F3F8
F3F0
F3C0
F3C0
F3C0
F3C0
F3C0
F3C0
F3C0
FFC0
7BC0
ENDCHAR
STARTCHAR Uhornhookabove
ENCODING 7916
SWIDTH 846 0
DWIDTH 17 0
BBX 16 21 2 0
BITMAP
0700
0180
0180
0303
0003
0003
F07F
F07E
F078
F078
F078
F078
F078
F078
F078
F078
F078
F8F8
7FF0
3FE0
1FC0
ENDCHAR
STARTCHAR uhornhookabove
ENCODING 7917
SWIDTH 741 0
DWIDTH 15 0
BBX 13 17 2 0
BITMAP
1E00
0600
0600
0E18
0018
0018
F3F8
F3F0
F3C0
F3C0
F3C0
F3C0
F3C0
F3C0
F3C0
FFC0
7BC0
ENDCHAR
STARTCHAR Uhorntilde
ENCODING 7918
SWIDTH 846 0
DWIDTH 17 0
BBX 16 20 2 0
BITMAP
1E60
3FE0
33C3
0003
0003
F07F
F07E
F078
F078
F078
F078
F078
F078
F078
F078
F078
F8F8
7FF0
3FE0
1FC0
ENDCHAR
STARTCHAR uhorntilde
ENCODING 7919
SWIDTH 741 0
DWIDTH 15 0
BBX 13 16 2 0
BITMAP
3CC0
7FC0
6798
0018
0018
F3F8
F3F0
F3C0
F3C0
F3C0
F3C0
F3C0
F3C0
F3C0
FFC0
7BC0
ENDCHAR
STARTCHAR Uhorndotbelow
ENCODING 7920
SWIDTH 846 0
DWIDTH 17 0
BBX 16 22 2 -4
BITMAP
0003
0003
0003
F07F
F07E
F078
F078
F078
F078
F078
F078
F078
F078
F078
F8F8
7FF0
3FE0
1FC0
0000
0700
0700
0700
ENDCHAR
STARTCHAR uhorndotbelow
ENCODING 7921
SWIDTH 741 0
DWIDTH 15 0
BBX 13 18 2 -4
BITMAP
0018
0018
0018
F3F8
F3F0
F3C0
F3C0
F3C0
F3C0
F3C0
F3C0
F3C0
FFC0
7BC0
0000
0E00
0E00
0E00
ENDCHAR
STARTCHAR Ygrave
ENCODING 7922
SWIDTH 736 0
DWIDTH 15 0
BBX 14 21 1 0
BITMAP
0E00
0700
0380
0180
0000
0000
F87C
7878
7CF8
3CF0
3FF0
1FE0
1FC0
0FC0
0780
0780
0780
0780
0780
0780
0780
ENDCHAR
STARTCHAR ygrave
ENCODING 7923
SWIDTH 650 0
DWIDTH 13 0
BBX 13 21 0 -4
BITMAP
0E00
0700
0380
0180
0000
0000
F078
78F0
78F0
78F0
3DE0
3DE0
1FC0
1FC0
1F80
0F80
0F80
0F00
1F00
1E00
1E00
ENDCHAR
STARTCHAR Ydotbelow
ENCODING 7924
SWIDTH 736 0
DWIDTH 15 0
BBX 14 19 1 -4
BITMAP
F87C
7878
7CF8
3CF0
3FF0
1FE0
1FC0
0FC0
0780
0780
0780
0780
0780
0780
0780
0000
0380
0380
0380
ENDCHAR
STARTCHAR ydotbelow
ENCODING 7925
SWIDTH 650 0
DWIDTH 13 0
BBX 13 15 0 -4
BITMAP
F078
78F0
78F0
78F0
3DE0
3DE0
1FC0
1FC0
1F80
0F80
0F80
0F00
1F70
1E70
1E70
ENDCHAR
STARTCHAR Yhookabove
ENCODING 7926
SWIDTH 736 0
DWIDTH 15 0
BBX 14 21 1 0
BITMAP
0780
0180
0180
0300
0000
0000
F87C
7878
7CF8
3CF0
3FF0
1FE0
1FC0
0FC0
0780
0780
0780
0780
0780
0780
0780
ENDCHAR
STARTCHAR yhookabove
ENCODING 7927
SWIDTH 650 0
DWIDTH 13 0
BBX 13 21 0 -4
BITMAP
0700
0180
0180
0300
0000
0000
F078
78F0
78F0
78F0
3DE0
3DE0
1FC0
1FC0
1F80
0F80
0F80
0F00
1F00
1E00
1E00
ENDCHAR
STARTCHAR Ytilde
ENCODING 7928
SWIDTH 736 0
DWIDTH 15 0
BBX 14 20 1 0
BITMAP
1E60
1FE0
31C0
0000
0000
F87C
7878
7CF8
3CF0
3FF0
1FE0
1FC0
0FC0
0780
0780
0780
0780
0780
0780
0780
ENDCHAR
STARTCHAR ytilde
ENCODING 7929
SWIDTH 650 0
DWIDTH 13 0
BBX 13 20 0 -4
BITMAP
0E60
1FE0
19C0
0000
0000
F078
78F0
78F0
78F0
3DE0
3DE0
1FC0
1FC0
1F80
0F80
0F80
0F00
1F00
1E00
1E00
ENDCHAR
STARTCHAR uni2012
ENCODING 8210
SWIDTH 710 0
DWIDTH 14 0
BBX 11 3 2 5
BITMAP
FFE0
FFE0
FFE0
ENDCHAR
STARTCHAR endash
ENCODING 8211
SWIDTH 710 0
DWIDTH 14 0
BBX 11 3 2 5
BITMAP
FFE0
FFE0
FFE0
ENDCHAR
STARTCHAR emdash
ENCODING 8212
SWIDTH 1000 0
DWIDTH 20 0
BBX 17 3 2 5
BITMAP
FFFF80
FFFF80
FFFF80
ENDCHAR
STARTCHAR afii00208
ENCODING 8213
SWIDTH 1000 0
DWIDTH 20 0
BBX 16 3 2 5
BITMAP
FFFF
FFFF
FFFF
ENDCHAR
STARTCHAR underscoredbl
ENCODING 8215
SWIDTH 710 0
DWIDTH 14 0
BBX 14 3 0 -4
BITMAP
FFFC
0000
FFFC
ENDCHAR
STARTCHAR quoteleft
ENCODING 8216
SWIDTH 332 0
DWIDTH 7 0
BBX 5 6 0 10
BITMAP
F0
70
70
30
38
18
ENDCHAR
STARTCHAR quoteright
ENCODING 8217
SWIDTH 332 0
DWIDTH 7 0
BBX 5 6 1 10
BITMAP
78
70
70
60
E0
C0
ENDCHAR
STARTCHAR quotesinglbase
ENCODING 8218
SWIDTH 332 0
DWIDTH 7 0
BBX 5 6 1 -2
BITMAP
78
70
70
60
E0
C0
ENDCHAR
STARTCHAR quotereversed
ENCODING 8219
SWIDTH 332 0
DWIDTH 7 0
BBX 5 6 0 10
BITMAP
18
38
30
70
70
F0
ENDCHAR
STARTCHAR quotedblleft
ENCODING 8220
SWIDTH 587 0
DWIDTH 12 0
BBX 10 6 0 10
BITMAP
F780
7380
7380
3180
39C0
18C0
ENDCHAR
STARTCHAR quotedblright
ENCODING 8221
SWIDTH 587 0
DWIDTH 12 0
BBX 10 6 1 10
BITMAP
7BC0
7380
7380
6300
E700
C600
ENDCHAR
STARTCHAR quotedblbase
ENCODING 8222
SWIDTH 587 0
DWIDTH 12 0
BBX 10 6 1 -2
BITMAP
7BC0
7380
7380
6300
E700
C600
ENDCHAR
STARTCHAR uni201F
ENCODING 8223
SWIDTH 587 0
DWIDTH 12 0
BBX 12 6 0 10
BITMAP
0C30
1C70
38E0
38E0
79E0
F3C0
ENDCHAR
STARTCHAR dagger
ENCODING 8224
SWIDTH 710 0
DWIDTH 14 0
BBX 10 15 2 1
BITMAP
0C00
0C00
0C00
0C00
FFC0
FFC0
0C00
0C00
0C00
0C00
0C00
0C00
0C00
0C00
0C00
ENDCHAR
STARTCHAR daggerdbl
ENCODING 8225
SWIDTH 710 0
DWIDTH 14 0
BBX 10 15 2 1
BITMAP
0C00
0C00
0C00
0C00
FFC0
FFC0
0C00
0C00
0C00
FFC0
FFC0
0C00
0C00
0C00
0C00
ENDCHAR
STARTCHAR bullet
ENCODING 8226
SWIDTH 710 0
DWIDTH 14 0
BBX 10 10 2 2
BITMAP
1E00
7F80
7F80
FFC0
FFC0
FFC0
FFC0
7F80
7F80
1E00
ENDCHAR
STARTCHAR ellipsis
ENCODING 8230
SWIDTH 1048 0
DWIDTH 21 0
BBX 17 4 2 0
BITMAP
E1C380
E1C380
E1C380
E1C380
ENDCHAR
STARTCHAR perthousand
ENCODING 8240
SWIDTH 1777 0
DWIDTH 36 0
BBX 34 15 1 0
BITMAP
3E01800000
7F03000000
E383000000
E386000000
E386000000
E38C000000
E39C7C1F00
7F18FE3F80
3E39C771C0
0031C771C0
0061C771C0
0061C771C0
00C1C771C0
00C0FE3F80
01807C1F00
ENDCHAR
STARTCHAR minute
ENCODING 8242
SWIDTH 352 0
DWIDTH 7 0
BBX 6 6 1 9
BITMAP
3C
38
78
70
60
E0
ENDCHAR
STARTCHAR second
ENCODING 8243
SWIDTH 616 0
DWIDTH 12 0
BBX 11 6 1 9
BITMAP
3DE0
39C0
7BC0
7380
6300
E700
ENDCHAR
STARTCHAR uni2034
ENCODING 8244
SWIDTH 616 0
DWIDTH 12 0
BBX 16 6 -2 9
BITMAP
3DEF
7BDE
739C
739C
E738
C630
ENDCHAR
STARTCHAR guilsinglleft
ENCODING 8249
SWIDTH 543 0
DWIDTH 11 0
BBX 6 10 2 1
BITMAP
04
0C
1C
78
F0
F0
78
1C
0C
04
ENDCHAR
STARTCHAR guilsinglright
ENCODING 8250
SWIDTH 543 0
DWIDTH 11 0
BBX 6 10 3 1
BITMAP
80
C0
E0
78
3C
3C
78
E0
C0
80
ENDCHAR
STARTCHAR exclamdbl
ENCODING 8252
SWIDTH 703 0
DWIDTH 14 0
BBX 10 15 2 0
BITMAP
F3C0
F3C0
F3C0
F3C0
F3C0
F3C0
F3C0
F3C0
F3C0
F3C0
0000
0000
F3C0
F3C0
F3C0
ENDCHAR
STARTCHAR overline
ENCODING 8254
SWIDTH 710 0
DWIDTH 14 0
BBX 14 2 0 16
BITMAP
FFFC
FFFC
ENDCHAR
STARTCHAR fraction
ENCODING 8260
SWIDTH 439 0
DWIDTH 9 0
BBX 10 15 -1 0
BITMAP
00C0
0180
0180
0300
0300
0600
0E00
0C00
1C00
1800
3000
3000
6000
6000
C000
ENDCHAR
STARTCHAR uniF006
ENCODING 8308
SWIDTH 597 0
DWIDTH 12 0
BBX 9 9 2 6
BITMAP
1E00
1E00
3E00
6E00
EE00
FF80
FF80
0E00
0E00
ENDCHAR
STARTCHAR uniF007
ENCODING 8309
SWIDTH 597 0
DWIDTH 12 0
BBX 8 9 2 6
BITMAP
7F
7F
70
7E
7F
07
87
FF
FC
ENDCHAR
STARTCHAR uniF008
ENCODING 8311
SWIDTH 597 0
DWIDTH 12 0
BBX 8 9 2 6
BITMAP
FF
FF
0F
1E
1C
3C
38
78
F0
ENDCHAR
STARTCHAR uniF009
ENCODING 8312
SWIDTH 597 0
DWIDTH 12 0
BBX 8 9 2 6
BITMAP
7E
FF
E7
F7
7C
E7
E7
FF
7E
ENDCHAR
STARTCHAR nsuperior
ENCODING 8319
SWIDTH 597 0
DWIDTH 12 0
BBX 9 9 1 6
BITMAP
EF00
FF80
E380
E380
E380
E380
E380
E380
E380
ENDCHAR
STARTCHAR uni20A0
ENCODING 8352
SWIDTH 710 0
DWIDTH 14 0
BBX 12 15 1 0
BITMAP
1E00
7F00
7100
E000
E000
E3F0
E3F0
E300
7300
3FF0
1FF0
0300
0300
03F0
03F0
ENDCHAR
STARTCHAR uni20A1
ENCODING 8353
SWIDTH 723 0
DWIDTH 14 0
BBX 13 17 0 -1
BITMAP
0198
0FF8
3FF8
7FF8
7B38
FE68
F660
F660
F4C0
FCC0
FCC0
FCC8
7D98
7FF8
3FF8
3FE0
3300
ENDCHAR
STARTCHAR uni20A2
ENCODING 8354
SWIDTH 723 0
DWIDTH 14 0
BBX 12 15 1 0
BITMAP
0FC0
3FF0
3FF0
7C30
F810
F000
F3D0
F3F0
F3C0
F3C0
FBD0
7FD0
7FF0
3FF0
0FC0
ENDCHAR
STARTCHAR franc
ENCODING 8355
SWIDTH 710 0
DWIDTH 14 0
BBX 12 15 1 0
BITMAP
3FF0
3FF0
3FF0
3C00
3C00
3FF0
3FF0
3FF0
3C00
3C00
FF80
FF80
3C00
3C00
3C00
ENDCHAR
STARTCHAR afii08941
ENCODING 8356
SWIDTH 710 0
DWIDTH 14 0
BBX 11 15 2 0
BITMAP
0FC0
1FC0
3FC0
3C40
3C00
FF80
FF80
3C00
FF80
FF80
3C00
7800
FFE0
FFE0
FFE0
ENDCHAR
STARTCHAR uni20A5
ENCODING 8357
SWIDTH 1058 0
DWIDTH 21 0
BBX 20 15 1 -2
BITMAP
000600
000C00
F3DFC0
FFFFE0
F0F0F0
F0F0F0
F0F0F0
F0F0F0
F0F0F0
F1F0F0
F1F0F0
F3F0F0
F2F0F0
060000
0C0000
ENDCHAR
STARTCHAR uni20A6
ENCODING 8358
SWIDTH 846 0
DWIDTH 17 0
BBX 15 15 1 0
BITMAP
7E3C
7F3C
7F3C
FFFE
FFFE
FFFE
7BBC
7BFC
79FC
FFFE
FFFE
FFFE
78FC
78FC
787C
ENDCHAR
STARTCHAR peseta
ENCODING 8359
SWIDTH 1343 0
DWIDTH 27 0
BBX 24 15 2 0
BITMAP
FF0000
FF8000
F3DE00
F3DE3E
F3FFFE
F3FFF2
F39EF0
FF9EF8
FF1EFE
F01E7F
F01E1F
F01E8F
F01ECF
F01EFE
F01E7C
ENDCHAR
STARTCHAR uni20A8
ENCODING 8360
SWIDTH 1339 0
DWIDTH 27 0
BBX 24 15 2 0
BITMAP
FFC000
FFE000
FFF000
F0F000
F0F0FE
F1F1FF
FFE3C3
FFC3C1
FF83FC
F7C1FE
F3E0FF
F1F20F
F1F30F
F0FBFE
F07DFC
ENDCHAR
STARTCHAR uni20A9
ENCODING 8361
SWIDTH 1128 0
DWIDTH 23 0
BBX 22 15 0 0
BITMAP
F0783C
F07C3C
787C78
FFFFFC
FFFFFC
FFFFFC
38EE70
3DEEF0
3DCEF0
FFFFFC
FFFFFC
FFFFFC
1F87E0
0F87C0
0F83C0
ENDCHAR
STARTCHAR uni20AA
ENCODING 8362
SWIDTH 914 0
DWIDTH 18 0
BBX 16 12 1 0
BITMAP
FF87
FFC7
FFE7
E067
E067
E667
E667
E607
E607
E7FF
E7FE
E7FC
ENDCHAR
STARTCHAR dong
ENCODING 8363
SWIDTH 699 0
DWIDTH 14 0
BBX 12 20 1 -4
BITMAP
01E0
0FF0
0FF0
01E0
01E0
1FE0
7FE0
79E0
F1E0
F1E0
F1E0
F1E0
F1E0
F9E0
7FE0
3DE0
0000
0000
7FE0
7FE0
ENDCHAR
STARTCHAR Euro
ENCODING 8364
SWIDTH 710 0
DWIDTH 14 0
BBX 13 15 0 0
BITMAP
07E0
1FF8
3FF8
3C18
7808
FF00
FF00
7800
FE00
FE00
7808
3C18
3FF8
1FF8
07E0
ENDCHAR
STARTCHAR uni20AD
ENCODING 8365
SWIDTH 770 0
DWIDTH 15 0
BBX 14 15 1 0
BITMAP
787C
78F8
79F0
79F0
7BE0
7FC0
FFFC
FFFC
FFFC
7FC0
7BE0
79F0
79F0
78F8
787C
ENDCHAR
STARTCHAR uni20AE
ENCODING 8366
SWIDTH 681 0
DWIDTH 14 0
BBX 14 15 0 0
BITMAP
FFFC
FFFC
FFFC
0780
07A0
07E0
07C0
07A0
0FE0
1FC0
1780
0F80
1F80
1780
0780
ENDCHAR
STARTCHAR uni20AF
ENCODING 8367
SWIDTH 1125 0
DWIDTH 22 0
BBX 23 21 0 -4
BITMAP
001800
00F000
0FFC00
1BCE00
03C700
078780
078780
078780
0F0780
0F0780
0F0780
0F07BC
0E0766
7E0FE6
9E0EE6
9E1CE6
79F0FC
0001E0
0001C0
0001C0
0001C0
ENDCHAR
STARTCHAR uni20B0
ENCODING 8368
SWIDTH 670 0
DWIDTH 13 0
BBX 14 20 -1 -4
BITMAP
00F8
03FC
03CC
03CC
03CC
03DC
01F8
01F0
01F0
09E0
09F0
1BF0
3FF0
3EF0
7678
E478
0078
0078
03F0
03E0
ENDCHAR
STARTCHAR uni20B1
ENCODING 8369
SWIDTH 732 0
DWIDTH 15 0
BBX 15 15 0 0
BITMAP
3FE0
3FF8
3FF8
3C7C
FFFE
3C3C
FFFE
3C7C
3FF8
3FF0
3FE0
3C00
3C00
3C00
3C00
ENDCHAR
STARTCHAR uni20B2
ENCODING 8370
SWIDTH 811 0
DWIDTH 16 0
BBX 13 17 1 -1
BITMAP
0300
0FE0
3FF8
7FF8
7B38
FB08
F300
F300
F378
F378
F378
FB78
7F78
7FF8
3FF8
0FE0
0300
ENDCHAR
STARTCHAR uni20B3
ENCODING 8371
SWIDTH 776 0
DWIDTH 16 0
BBX 15 15 0 0
BITMAP
0FE0
0FE0
0FE0
1FF0
1EF0
1EF0
FFFE
FFFE
FFFE
3C78
FFFE
FFFE
FFFE
783C
F01E
ENDCHAR
STARTCHAR uni20B4
ENCODING 8372
SWIDTH 710 0
DWIDTH 14 0
BBX 14 15 0 0
BITMAP
3FC0
3FF0
3FF0
30F8
0078
FFFC
FFFC
0FF0
3FC0
FFFC
FFFC
7800
7FF8
3FF8
0FF8
ENDCHAR
STARTCHAR uni20B5
ENCODING 8373
SWIDTH 723 0
DWIDTH 14 0
BBX 12 17 1 -1
BITMAP
0180
0FE0
1FF0
3FF0
7DB0
F990
F180
F180
F180
F180
F180
F990
7DB0
7FF0
3FF0
0FC0
0180
ENDCHAR
STARTCHAR afii61248
ENCODING 8453
SWIDTH 1271 0
DWIDTH 25 0
BBX 23 15 1 0
BITMAP
3F0180
7F0300
F10700
E00600
E00C00
E00C00
F118F8
7F39FC
3F338E
00638E
00638E
00C38E
01C38E
0181FC
0300F8
ENDCHAR
STARTCHAR afii61289
ENCODING 8467
SWIDTH 414 0
DWIDTH 8 0
BBX 8 15 0 0
BITMAP
0E
1F
3B
3B
3E
3E
3C
38
38
F8
78
38
39
3F
1E
ENDCHAR
STARTCHAR afii61352
ENCODING 8470
SWIDTH 1293 0
DWIDTH 26 0
BBX 23 15 2 0
BITMAP
F8F0F8
F8F1FC
FCF38E
FCF38E
FEF38E
FEF38E
F6F38E
F7F1FC
F7F0F8
F3F000
F3F000
F1F1FC
F1F1FC
F1F000
F0F000
ENDCHAR
STARTCHAR uni2120
ENCODING 8480
SWIDTH 1340 0
DWIDTH 27 0
BBX 27 11 0 4
BITMAP
1FCF83E0
7FCF83E0
F04FC7E0
F00FC7E0
FF0FEFE0
7FCF7DE0
1FEF7DE0
01EF39E0
C1EF39E0
FFCF01E0
7F0F01E0
ENDCHAR
STARTCHAR trademark
ENCODING 8482
SWIDTH 963 0
DWIDTH 19 0
BBX 16 7 1 8
BITMAP
FDC7
FDEF
31AB
31BB
3193
3183
3183
ENDCHAR
STARTCHAR Ohm
ENCODING 8486
SWIDTH 843 0
DWIDTH 17 0
BBX 17 15 0 0
BITMAP
07F000
1FFC00
3FFE00
7C1F00
780F00
780F00
780F00
780F00
3C1E00
1E3C00
077000
036000
FF7F80
FF7F80
FF7F80
ENDCHAR
STARTCHAR estimated
ENCODING 8494
SWIDTH 748 0
DWIDTH 15 0
BBX 13 13 1 0
BITMAP
0FC0
3FF0
78F0
7078
F078
FFF8
FFF8
F000
F000
7808
7C38
3FF8
0FF0
ENDCHAR
STARTCHAR oneeighth
ENCODING 8539
SWIDTH 1181 0
DWIDTH 24 0
BBX 20 15 2 0
BITMAP
381800
F81800
F83000
383000
386000
386000
38C7E0
38CFF0
398E70
038F70
0307C0
070E70
060E70
0E0FF0
0C07E0
ENDCHAR
STARTCHAR threeeighths
ENCODING 8540
SWIDTH 1181 0
DWIDTH 24 0
BBX 21 15 2 0
BITMAP
FC0E00
FE0C00
861800
3C1800
3E3000
0E3000
8F63F0
FE67F8
FCC738
00C7B0
0183E0
018778
030738
0307F8
0603E0
ENDCHAR
STARTCHAR fiveeighths
ENCODING 8541
SWIDTH 1181 0
DWIDTH 24 0
BBX 21 15 2 0
BITMAP
7F0C00
7F0C00
701800
7C1800
7E3000
0F3000
8E63F0
FE67F8
FCC738
00C7B0
0183E0
018778
030738
0307F8
0603E0
ENDCHAR
STARTCHAR seveneighths
ENCODING 8542
SWIDTH 1181 0
DWIDTH 24 0
BBX 20 15 2 0
BITMAP
FF1C00
FF1800
0E3000
1E3000
3C6000
386000
78C3E0
70CFF0
F18E70
018770
0303E0
030E70
060E70
0607F0
0C03E0
ENDCHAR
STARTCHAR partialdiff
ENCODING 8706
SWIDTH 710 0
DWIDTH 14 0
BBX 12 15 1 0
BITMAP
1F80
3FE0
21E0
00F0
00F0
1EF0
7FF0
79F0
F0F0
F0F0
F0E0
F1E0
F9C0
7F80
1F00
ENDCHAR
STARTCHAR uni2206
ENCODING 8710
SWIDTH 805 0
DWIDTH 16 0
BBX 16 15 0 0
BITMAP
03C0
07E0
07E0
0FF0
0FF0
0FF0
1E78
1E78
3E7C
3C3C
3C3C
7C3E
7FFE
7FFE
FFFF
ENDCHAR
STARTCHAR product
ENCODING 8719
SWIDTH 869 0
DWIDTH 17 0
BBX 15 17 1 -2
BITMAP
FFFE
FFFE
FFFE
3C78
3C78
3C78
3C78
3C78
3C78
3C78
3C78
3C78
3C78
3C78
3C78
3C78
3C78
ENDCHAR
STARTCHAR summation
ENCODING 8721
SWIDTH 698 0
DWIDTH 14 0
BBX 12 17 1 -2
BITMAP
FFF0
FFF0
FFF0
FC00
7E00
3F00
1F80
0F80
07C0
0FC0
1F80
3F00
7E00
7C00
FFF0
FFF0
FFF0
ENDCHAR
STARTCHAR minus
ENCODING 8722
SWIDTH 867 0
DWIDTH 17 0
BBX 13 3 2 5
BITMAP
FFF8
FFF8
FFF8
ENDCHAR
STARTCHAR fraction.dup4
ENCODING 8725
SWIDTH 439 0
DWIDTH 9 0
BBX 10 15 -1 0
BITMAP
00C0
0180
0180
0300
0300
0600
0E00
0C00
1C00
1800
3000
3000
6000
6000
C000
ENDCHAR
STARTCHAR periodcentered
ENCODING 8729
SWIDTH 361 0
DWIDTH 7 0
BBX 4 4 2 5
BITMAP
F0
F0
F0
F0
ENDCHAR
STARTCHAR radical
ENCODING 8730
SWIDTH 867 0
DWIDTH 17 0
BBX 17 20 1 -2
BITMAP
000180
000300
000300
000600
000600
000E00
000C00
001C00
F81800
F81800
3C3000
1C3000
1C6000
0E6000
0EC000
0FC000
07C000
078000
038000
030000
ENDCHAR
STARTCHAR infinity
ENCODING 8734
SWIDTH 1058 0
DWIDTH 21 0
BBX 17 11 2 1
BITMAP
1E1E00
7F7F00
7FFF00
E3E380
C1C180
C1C180
C1C180
E3E380
7FFF00
7F7F00
3C3E00
ENDCHAR
STARTCHAR integral
ENCODING 8747
SWIDTH 538 0
DWIDTH 11 0
BBX 10 20 1 -4
BITMAP
07C0
0FC0
1E00
1E00
1E00
1E00
1E00
1E00
1E00
1E00
1E00
1E00
1E00
1E00
1E00
1E00
1E00
1E00
FC00
F800
ENDCHAR
STARTCHAR approxequal
ENCODING 8776
SWIDTH 867 0
DWIDTH 17 0
BBX 13 11 2 1
BITMAP
3C38
7F38
FFF8
E7F0
E1E0
0000
3C38
7F38
FFF8
E7F0
E1E0
ENDCHAR
STARTCHAR notequal
ENCODING 8800
SWIDTH 867 0
DWIDTH 17 0
BBX 12 14 2 -1
BITMAP
00C0
0180
0180
FFF0
FFF0
FFF0
0600
0600
FFF0
FFF0
FFF0
1800
1800
3000
ENDCHAR
STARTCHAR uni2261
ENCODING 8801
SWIDTH 867 0
DWIDTH 17 0
BBX 13 15 2 -1
BITMAP
FFF8
FFF8
FFF8
0000
0000
0000
FFF8
FFF8
FFF8
0000
0000
0000
FFF8
FFF8
FFF8
ENDCHAR
STARTCHAR lessequal
ENCODING 8804
SWIDTH 867 0
DWIDTH 17 0
BBX 13 14 2 0
BITMAP
0018
00F8
07F8
3FF0
FF00
F800
FF00
3FF0
07F8
00F8
0018
FFF8
FFF8
FFF8
ENDCHAR
STARTCHAR greaterequal
ENCODING 8805
SWIDTH 867 0
DWIDTH 17 0
BBX 13 14 2 0
BITMAP
C000
F800
FF00
7FE0
07F8
00F8
07F8
7FE0
FF00
F800
C000
FFF8
FFF8
FFF8
ENDCHAR
STARTCHAR uni2500
ENCODING 9472
SWIDTH 708 0
DWIDTH 14 0
BBX 14 2 0 5
BITMAP
FFFC
FFFC
ENDCHAR
STARTCHAR uni2502
ENCODING 9474
SWIDTH 708 0
DWIDTH 14 0
BBX 2 24 6 -6
BITMAP
C0
C0
C0
C0
C0
C0
C0
C0
C0
C0
C0
C0
C0
C0
C0
C0
C0
C0
C0
C0
C0
C0
C0
C0
ENDCHAR
STARTCHAR uni250C
ENCODING 9484
SWIDTH 708 0
DWIDTH 14 0
BBX 8 13 6 -6
BITMAP
FF
FF
C0
C0
C0
C0
C0
C0
C0
C0
C0
C0
C0
ENDCHAR
STARTCHAR uni2510
ENCODING 9488
SWIDTH 708 0
DWIDTH 14 0
BBX 8 13 0 -6
BITMAP
FF
FF
03
03
03
03
03
03
03
03
03
03
03
ENDCHAR
STARTCHAR uni2514
ENCODING 9492
SWIDTH 708 0
DWIDTH 14 0
BBX 8 13 6 5
BITMAP
C0
C0
C0
C0
C0
C0
C0
C0
C0
C0
C0
FF
FF
ENDCHAR
STARTCHAR uni2518
ENCODING 9496
SWIDTH 708 0
DWIDTH 14 0
BBX 8 13 0 5
BITMAP
03
03
03
03
03
03
03
03
03
03
03
FF
FF
ENDCHAR
STARTCHAR H22073
ENCODING 9633
SWIDTH 604 0
DWIDTH 12 0
BBX 9 9 1 0
BITMAP
FF80
8080
8080
8080
8080
8080
8080
8080
FF80
ENDCHAR
STARTCHAR H18543
ENCODING 9642
SWIDTH 354 0
DWIDTH 7 0
BBX 5 5 1 4
BITMAP
F8
F8
F8
F8
F8
ENDCHAR
STARTCHAR H18551
ENCODING 9643
SWIDTH 354 0
DWIDTH 7 0
BBX 5 5 1 4
BITMAP
F8
88
88
88
F8
ENDCHAR
STARTCHAR lozenge
ENCODING 9674
SWIDTH 867 0
DWIDTH 17 0
BBX 15 15 1 -1
BITMAP
0100
0380
07C0
0FE0
1EF0
3C78
783C
F01E
783C
3C78
1EF0
0FE0
07C0
0380
0100
ENDCHAR
STARTCHAR H18533
ENCODING 9679
SWIDTH 604 0
DWIDTH 12 0
BBX 9 9 2 1
BITMAP
3E00
7F00
FF80
FF80
FF80
FF80
FF80
7F00
3E00
ENDCHAR
STARTCHAR openbullet
ENCODING 9702
SWIDTH 354 0
DWIDTH 7 0
BBX 5 5 1 4
BITMAP
70
88
88
88
70
ENDCHAR
STARTCHAR uni266A
ENCODING 9834
SWIDTH 500 0
DWIDTH 10 0
BBX 9 13 1 0
BITMAP
0E00
0F00
0980
0880
0880
0800
0800
0800
7800
F800
F800
F800
7000
ENDCHAR
STARTCHAR fi
ENCODING 64257
SWIDTH 727 0
DWIDTH 15 0
BBX 12 16 1 0
BITMAP
1EF0
3EF0
78F0
7800
7800
FFF0
FFF0
78F0
78F0
78F0
78F0
78F0
78F0
78F0
78F0
78F0
ENDCHAR
STARTCHAR fl
ENCODING 64258
SWIDTH 730 0
DWIDTH 15 0
BBX 12 16 1 0
BITMAP
1FF0
3FF0
7CF0
78F0
78F0
FEF0
FEF0
78F0
78F0
78F0
78F0
78F0
78F0
78F0
78F0
78F0
ENDCHAR
STARTCHAR yen.dup5
ENCODING 65509
SWIDTH 710 0
DWIDTH 14 0
BBX 14 15 0 0
BITMAP
F87C
7878
7CF8
3FF0
1FE0
1FE0
0FC0
0FC0
0780
3FF0
3FF0
0780
3FF0
3FF0
0780
ENDCHAR
STARTCHAR uni20A9.dup6
ENCODING 65510
SWIDTH 1128 0
DWIDTH 23 0
BBX 22 15 0 0
BITMAP
F0783C
F07C3C
787C78
FFFFFC
FFFFFC
FFFFFC
38EE70
3DEEF0
3DCEF0
FFFFFC
FFFFFC
FFFFFC
1F87E0
0F87C0
0F83C0
ENDCHAR
STARTCHAR .notdef
ENCODING -1
SWIDTH 1000 0
DWIDTH 20 0
BBX 15 15 3 0
BITMAP
FFFE
8002
8002
8002
8002
8002
8002
8002
8002
8002
8002
8002
8002
8002
FFFE
ENDCHAR
STARTCHAR .null
ENCODING -1
SWIDTH 0 0
DWIDTH 0 0
BBX 1 1 0 0
BITMAP
00
ENDCHAR
STARTCHAR nonmarkingreturn
ENCODING -1
SWIDTH 341 0
DWIDTH 7 0
BBX 1 1 0 0
BITMAP
00
ENDCHAR
STARTCHAR pi1
ENCODING -1
SWIDTH 708 0
DWIDTH 14 0
BBX 14 11 0 0
BITMAP
FFFC
FFFC
3CF0
3CF0
3CF0
3CF0
3CF0
3CF0
3CF0
3CF0
3CF0
ENDCHAR
STARTCHAR uniF004
ENCODING -1
SWIDTH 332 0
DWIDTH 7 0
BBX 5 6 2 -4
BITMAP
78
70
70
60
E0
C0
ENDCHAR
STARTCHAR uniF005
ENCODING -1
SWIDTH 710 0
DWIDTH 14 0
BBX 6 4 4 -4
BITMAP
0C
0C
FC
F0
ENDCHAR
STARTCHAR uniF00A
ENCODING -1
SWIDTH 597 0
DWIDTH 12 0
BBX 5 9 3 6
BITMAP
38
F8
F8
38
38
38
38
38
38
ENDCHAR
STARTCHAR sevennumerator
ENCODING -1
SWIDTH 0 0
DWIDTH 0 0
BBX 1 1 0 0
BITMAP
00
ENDCHAR
STARTCHAR eightnumerator
ENCODING -1
SWIDTH 0 0
DWIDTH 0 0
BBX 1 1 0 0
BITMAP
00
ENDCHAR
STARTCHAR glyph578
ENCODING -1
SWIDTH 0 0
DWIDTH 0 0
BBX 1 1 0 0
BITMAP
00
ENDCHAR
STARTCHAR glyph579
ENCODING -1
SWIDTH 0 0
DWIDTH 0 0
BBX 1 1 0 0
BITMAP
00
ENDCHAR
STARTCHAR glyph580
ENCODING -1
SWIDTH 0 0
DWIDTH 0 0
BBX 1 1 0 0
BITMAP
00
ENDCHAR
STARTCHAR glyph581
ENCODING -1
SWIDTH 0 0
DWIDTH 0 0
BBX 1 1 0 0
BITMAP
00
ENDCHAR
STARTCHAR glyph590
ENCODING -1
SWIDTH 710 0
DWIDTH 14 0
BBX 13 4 3 13
BITMAP
1C38
3E30
7760
E380
ENDCHAR
STARTCHAR glyph591
ENCODING -1
SWIDTH 710 0
DWIDTH 14 0
BBX 13 4 -1 13
BITMAP
E1C0
63E0
3770
0E38
ENDCHAR
STARTCHAR glyph592
ENCODING -1
SWIDTH 710 0
DWIDTH 14 0
BBX 12 6 3 13
BITMAP
00E0
0030
1C30
3E60
7700
E380
ENDCHAR
STARTCHAR glyph593
ENCODING -1
SWIDTH 710 0
DWIDTH 14 0
BBX 9 7 3 13
BITMAP
7980
FF80
CF00
1C00
3E00
7700
E380
ENDCHAR
STARTCHAR glyph594
ENCODING -1
SWIDTH 710 0
DWIDTH 14 0
BBX 8 7 3 12
BITMAP
0E
0C
18
C3
C7
7E
3C
ENDCHAR
STARTCHAR glyph595
ENCODING -1
SWIDTH 710 0
DWIDTH 14 0
BBX 8 7 3 12
BITMAP
70
30
18
C3
C7
7E
3C
ENDCHAR
STARTCHAR glyph596
ENCODING -1
SWIDTH 710 0
DWIDTH 14 0
BBX 8 8 3 12
BITMAP
38
0C
0C
18
C3
C7
7E
3C
ENDCHAR
STARTCHAR glyph597
ENCODING -1
SWIDTH 710 0
DWIDTH 14 0
BBX 10 8 2 12
BITMAP
78C0
FFC0
C780
0000
6180
6380
3F00
1E00
ENDCHAR
STARTCHAR glyph598
ENCODING -1
SWIDTH 710 0
DWIDTH 14 0
BBX 4 4 5 13
BITMAP
E0
30
30
60
ENDCHAR
STARTCHAR glyph599
ENCODING -1
SWIDTH 710 0
DWIDTH 14 0
BBX 7 4 3 16
BITMAP
66
DC
38
6C
ENDCHAR
STARTCHAR glyph600
ENCODING -1
SWIDTH 710 0
DWIDTH 14 0
BBX 7 4 3 16
BITMAP
0C
18
C6
7C
ENDCHAR
STARTCHAR glyph601
ENCODING -1
SWIDTH 710 0
DWIDTH 14 0
BBX 7 4 3 16
BITMAP
60
30
C6
7C
ENDCHAR
STARTCHAR glyph602
ENCODING -1
SWIDTH 710 0
DWIDTH 14 0
BBX 7 5 3 16
BITMAP
38
08
D6
C6
7C
ENDCHAR
STARTCHAR glyph603
ENCODING -1
SWIDTH 710 0
DWIDTH 14 0
BBX 7 4 3 16
BITMAP
66
DC
C6
7C
ENDCHAR
STARTCHAR glyph604
ENCODING -1
SWIDTH 710 0
DWIDTH 14 0
BBX 12 4 3 16
BITMAP
00E0
3C30
7E30
E760
ENDCHAR
STARTCHAR uniFE69
ENCODING -1
SWIDTH 597 0
DWIDTH 12 0
BBX 8 11 2 -1
BITMAP
10
3F
FF
E1
F8
7E
1F
87
FE
FC
10
ENDCHAR
STARTCHAR resh
ENCODING -1
SWIDTH 0 0
DWIDTH 0 0
BBX 1 1 0 0
BITMAP
00
ENDCHAR
STARTCHAR shin
ENCODING -1
SWIDTH 0 0
DWIDTH 0 0
BBX 1 1 0 0
BITMAP
00
ENDCHAR
STARTCHAR tav
ENCODING -1
SWIDTH 0 0
DWIDTH 0 0
BBX 1 1 0 0
BITMAP
00
ENDCHAR
STARTCHAR doublevav
ENCODING -1
SWIDTH 0 0
DWIDTH 0 0
BBX 1 1 0 0
BITMAP
00
ENDCHAR
STARTCHAR vavyod
ENCODING -1
SWIDTH 0 0
DWIDTH 0 0
BBX 1 1 0 0
BITMAP
00
ENDCHAR
STARTCHAR doubleyod
ENCODING -1
SWIDTH 0 0
DWIDTH 0 0
BBX 1 1 0 0
BITMAP
00
ENDCHAR
STARTCHAR geresh
ENCODING -1
SWIDTH 0 0
DWIDTH 0 0
BBX 1 1 0 0
BITMAP
00
ENDCHAR
STARTCHAR gershayim
ENCODING -1
SWIDTH 0 0
DWIDTH 0 0
BBX 1 1 0 0
BITMAP
00
ENDCHAR
STARTCHAR newsheqelsign
ENCODING -1
SWIDTH 0 0
DWIDTH 0 0
BBX 1 1 0 0
BITMAP
00
ENDCHAR
STARTCHAR vavshindot
ENCODING -1
SWIDTH 0 0
DWIDTH 0 0
BBX 1 1 0 0
BITMAP
00
ENDCHAR
STARTCHAR finalkafsheva
ENCODING -1
SWIDTH 0 0
DWIDTH 0 0
BBX 1 1 0 0
BITMAP
00
ENDCHAR
STARTCHAR finalkafqamats
ENCODING -1
SWIDTH 0 0
DWIDTH 0 0
BBX 1 1 0 0
BITMAP
00
ENDCHAR
STARTCHAR lamedholam
ENCODING -1
SWIDTH 0 0
DWIDTH 0 0
BBX 1 1 0 0
BITMAP
00
ENDCHAR
STARTCHAR lamedholamdagesh
ENCODING -1
SWIDTH 0 0
DWIDTH 0 0
BBX 1 1 0 0
BITMAP
00
ENDCHAR
STARTCHAR altayin
ENCODING -1
SWIDTH 0 0
DWIDTH 0 0
BBX 1 1 0 0
BITMAP
00
ENDCHAR
STARTCHAR shinshindot
ENCODING -1
SWIDTH 0 0
DWIDTH 0 0
BBX 1 1 0 0
BITMAP
00
ENDCHAR
STARTCHAR shinsindot
ENCODING -1
SWIDTH 0 0
DWIDTH 0 0
BBX 1 1 0 0
BITMAP
00
ENDCHAR
STARTCHAR shindageshshindot
ENCODING -1
SWIDTH 0 0
DWIDTH 0 0
BBX 1 1 0 0
BITMAP
00
ENDCHAR
STARTCHAR shindageshsindot
ENCODING -1
SWIDTH 0 0
DWIDTH 0 0
BBX 1 1 0 0
BITMAP
00
ENDCHAR
STARTCHAR alefpatah
ENCODING -1
SWIDTH 0 0
DWIDTH 0 0
BBX 1 1 0 0
BITMAP
00
ENDCHAR
STARTCHAR alefqamats
ENCODING -1
SWIDTH 0 0
DWIDTH 0 0
BBX 1 1 0 0
BITMAP
00
ENDCHAR
STARTCHAR alefmapiq
ENCODING -1
SWIDTH 0 0
DWIDTH 0 0
BBX 1 1 0 0
BITMAP
00
ENDCHAR
STARTCHAR betdagesh
ENCODING -1
SWIDTH 0 0
DWIDTH 0 0
BBX 1 1 0 0
BITMAP
00
ENDCHAR
STARTCHAR gimeldagesh
ENCODING -1
SWIDTH 0 0
DWIDTH 0 0
BBX 1 1 0 0
BITMAP
00
ENDCHAR
STARTCHAR daletdagesh
ENCODING -1
SWIDTH 0 0
DWIDTH 0 0
BBX 1 1 0 0
BITMAP
00
ENDCHAR
STARTCHAR hedagesh
ENCODING -1
SWIDTH 0 0
DWIDTH 0 0
BBX 1 1 0 0
BITMAP
00
ENDCHAR
STARTCHAR vavdagesh
ENCODING -1
SWIDTH 0 0
DWIDTH 0 0
BBX 1 1 0 0
BITMAP
00
ENDCHAR
STARTCHAR zayindagesh
ENCODING -1
SWIDTH 0 0
DWIDTH 0 0
BBX 1 1 0 0
BITMAP
00
ENDCHAR
STARTCHAR tetdagesh
ENCODING -1
SWIDTH 0 0
DWIDTH 0 0
BBX 1 1 0 0
BITMAP
00
ENDCHAR
STARTCHAR yoddagesh
ENCODING -1
SWIDTH 0 0
DWIDTH 0 0
BBX 1 1 0 0
BITMAP
00
ENDCHAR
STARTCHAR finalkafdagesh
ENCODING -1
SWIDTH 0 0
DWIDTH 0 0
BBX 1 1 0 0
BITMAP
00
ENDCHAR
STARTCHAR kafdagesh
ENCODING -1
SWIDTH 0 0
DWIDTH 0 0
BBX 1 1 0 0
BITMAP
00
ENDCHAR
STARTCHAR lameddagesh
ENCODING -1
SWIDTH 0 0
DWIDTH 0 0
BBX 1 1 0 0
BITMAP
00
ENDCHAR
STARTCHAR memdagesh
ENCODING -1
SWIDTH 0 0
DWIDTH 0 0
BBX 1 1 0 0
BITMAP
00
ENDCHAR
STARTCHAR nundagesh
ENCODING -1
SWIDTH 0 0
DWIDTH 0 0
BBX 1 1 0 0
BITMAP
00
ENDCHAR
STARTCHAR samekhdagesh
ENCODING -1
SWIDTH 0 0
DWIDTH 0 0
BBX 1 1 0 0
BITMAP
00
ENDCHAR
STARTCHAR finalpedagesh
ENCODING -1
SWIDTH 0 0
DWIDTH 0 0
BBX 1 1 0 0
BITMAP
00
ENDCHAR
STARTCHAR pedagesh
ENCODING -1
SWIDTH 0 0
DWIDTH 0 0
BBX 1 1 0 0
BITMAP
00
ENDCHAR
STARTCHAR tsadidagesh
ENCODING -1
SWIDTH 0 0
DWIDTH 0 0
BBX 1 1 0 0
BITMAP
00
ENDCHAR
STARTCHAR qofdagesh
ENCODING -1
SWIDTH 0 0
DWIDTH 0 0
BBX 1 1 0 0
BITMAP
00
ENDCHAR
STARTCHAR reshdagesh
ENCODING -1
SWIDTH 0 0
DWIDTH 0 0
BBX 1 1 0 0
BITMAP
00
ENDCHAR
STARTCHAR shindagesh
ENCODING -1
SWIDTH 0 0
DWIDTH 0 0
BBX 1 1 0 0
BITMAP
00
ENDCHAR
STARTCHAR tavdages
ENCODING -1
SWIDTH 0 0
DWIDTH 0 0
BBX 1 1 0 0
BITMAP
00
ENDCHAR
STARTCHAR vavholam
ENCODING -1
SWIDTH 0 0
DWIDTH 0 0
BBX 1 1 0 0
BITMAP
00
ENDCHAR
STARTCHAR betrafe
ENCODING -1
SWIDTH 0 0
DWIDTH 0 0
BBX 1 1 0 0
BITMAP
00
ENDCHAR
STARTCHAR kafrafe
ENCODING -1
SWIDTH 0 0
DWIDTH 0 0
BBX 1 1 0 0
BITMAP
00
ENDCHAR
STARTCHAR perafe
ENCODING -1
SWIDTH 0 0
DWIDTH 0 0
BBX 1 1 0 0
BITMAP
00
ENDCHAR
STARTCHAR aleflamed
ENCODING -1
SWIDTH 0 0
DWIDTH 0 0
BBX 1 1 0 0
BITMAP
00
ENDCHAR
STARTCHAR zerowidthnonjoiner
ENCODING -1
SWIDTH 0 0
DWIDTH 0 0
BBX 1 1 0 0
BITMAP
00
ENDCHAR
STARTCHAR zerowidthjoiner
ENCODING -1
SWIDTH 0 0
DWIDTH 0 0
BBX 1 1 0 0
BITMAP
00
ENDCHAR
STARTCHAR lefttorightmark
ENCODING -1
SWIDTH 0 0
DWIDTH 0 0
BBX 1 1 0 0
BITMAP
00
ENDCHAR
STARTCHAR righttoleftmark
ENCODING -1
SWIDTH 0 0
DWIDTH 0 0
BBX 1 1 0 0
BITMAP
00
ENDCHAR
STARTCHAR afii57388
ENCODING -1
SWIDTH 0 0
DWIDTH 0 0
BBX 1 1 0 0
BITMAP
00
ENDCHAR
STARTCHAR afii57403
ENCODING -1
SWIDTH 0 0
DWIDTH 0 0
BBX 1 1 0 0
BITMAP
00
ENDCHAR
STARTCHAR afii57407
ENCODING -1
SWIDTH 0 0
DWIDTH 0 0
BBX 1 1 0 0
BITMAP
00
ENDCHAR
STARTCHAR afii57409
ENCODING -1
SWIDTH 0 0
DWIDTH 0 0
BBX 1 1 0 0
BITMAP
00
ENDCHAR
STARTCHAR afii57440
ENCODING -1
SWIDTH 0 0
DWIDTH 0 0
BBX 1 1 0 0
BITMAP
00
ENDCHAR
STARTCHAR afii57451
ENCODING -1
SWIDTH 0 0
DWIDTH 0 0
BBX 1 1 0 0
BITMAP
00
ENDCHAR
STARTCHAR afii57452
ENCODING -1
SWIDTH 0 0
DWIDTH 0 0
BBX 1 1 0 0
BITMAP
00
ENDCHAR
STARTCHAR afii57453
ENCODING -1
SWIDTH 0 0
DWIDTH 0 0
BBX 1 1 0 0
BITMAP
00
ENDCHAR
STARTCHAR afii57454
ENCODING -1
SWIDTH 0 0
DWIDTH 0 0
BBX 1 1 0 0
BITMAP
00
ENDCHAR
STARTCHAR afii57455
ENCODING -1
SWIDTH 0 0
DWIDTH 0 0
BBX 1 1 0 0
BITMAP
00
ENDCHAR
STARTCHAR afii57456
ENCODING -1
SWIDTH 0 0
DWIDTH 0 0
BBX 1 1 0 0
BITMAP
00
ENDCHAR
STARTCHAR afii57457
ENCODING -1
SWIDTH 0 0
DWIDTH 0 0
BBX 1 1 0 0
BITMAP
00
ENDCHAR
STARTCHAR afii57458
ENCODING -1
SWIDTH 0 0
DWIDTH 0 0
BBX 1 1 0 0
BITMAP
00
ENDCHAR
STARTCHAR afii57392
ENCODING -1
SWIDTH 0 0
DWIDTH 0 0
BBX 1 1 0 0
BITMAP
00
ENDCHAR
STARTCHAR afii57393
ENCODING -1
SWIDTH 0 0
DWIDTH 0 0
BBX 1 1 0 0
BITMAP
00
ENDCHAR
STARTCHAR afii57394
ENCODING -1
SWIDTH 0 0
DWIDTH 0 0
BBX 1 1 0 0
BITMAP
00
ENDCHAR
STARTCHAR afii57395
ENCODING -1
SWIDTH 0 0
DWIDTH 0 0
BBX 1 1 0 0
BITMAP
00
ENDCHAR
STARTCHAR afii57396
ENCODING -1
SWIDTH 0 0
DWIDTH 0 0
BBX 1 1 0 0
BITMAP
00
ENDCHAR
STARTCHAR afii57397
ENCODING -1
SWIDTH 0 0
DWIDTH 0 0
BBX 1 1 0 0
BITMAP
00
ENDCHAR
STARTCHAR afii57398
ENCODING -1
SWIDTH 0 0
DWIDTH 0 0
BBX 1 1 0 0
BITMAP
00
ENDCHAR
STARTCHAR afii57399
ENCODING -1
SWIDTH 0 0
DWIDTH 0 0
BBX 1 1 0 0
BITMAP
00
ENDCHAR
STARTCHAR afii57400
ENCODING -1
SWIDTH 0 0
DWIDTH 0 0
BBX 1 1 0 0
BITMAP
00
ENDCHAR
STARTCHAR afii57401
ENCODING -1
SWIDTH 0 0
DWIDTH 0 0
BBX 1 1 0 0
BITMAP
00
ENDCHAR
STARTCHAR afii57381
ENCODING -1
SWIDTH 0 0
DWIDTH 0 0
BBX 1 1 0 0
BITMAP
00
ENDCHAR
STARTCHAR afii57461
ENCODING -1
SWIDTH 0 0
DWIDTH 0 0
BBX 1 1 0 0
BITMAP
00
ENDCHAR
STARTCHAR afii63167
ENCODING -1
SWIDTH 0 0
DWIDTH 0 0
BBX 1 1 0 0
BITMAP
00
ENDCHAR
STARTCHAR afii57459
ENCODING -1
SWIDTH 0 0
DWIDTH 0 0
BBX 1 1 0 0
BITMAP
00
ENDCHAR
STARTCHAR afii57543
ENCODING -1
SWIDTH 0 0
DWIDTH 0 0
BBX 1 1 0 0
BITMAP
00
ENDCHAR
STARTCHAR afii57534
ENCODING -1
SWIDTH 0 0
DWIDTH 0 0
BBX 1 1 0 0
BITMAP
00
ENDCHAR
STARTCHAR afii57494
ENCODING -1
SWIDTH 0 0
DWIDTH 0 0
BBX 1 1 0 0
BITMAP
00
ENDCHAR
STARTCHAR afii62843
ENCODING -1
SWIDTH 0 0
DWIDTH 0 0
BBX 1 1 0 0
BITMAP
00
ENDCHAR
STARTCHAR afii62844
ENCODING -1
SWIDTH 0 0
DWIDTH 0 0
BBX 1 1 0 0
BITMAP
00
ENDCHAR
STARTCHAR afii62845
ENCODING -1
SWIDTH 0 0
DWIDTH 0 0
BBX 1 1 0 0
BITMAP
00
ENDCHAR
STARTCHAR afii64240
ENCODING -1
SWIDTH 0 0
DWIDTH 0 0
BBX 1 1 0 0
BITMAP
00
ENDCHAR
STARTCHAR afii64241
ENCODING -1
SWIDTH 0 0
DWIDTH 0 0
BBX 1 1 0 0
BITMAP
00
ENDCHAR
STARTCHAR afii63954
ENCODING -1
SWIDTH 0 0
DWIDTH 0 0
BBX 1 1 0 0
BITMAP
00
ENDCHAR
STARTCHAR afii57382
ENCODING -1
SWIDTH 0 0
DWIDTH 0 0
BBX 1 1 0 0
BITMAP
00
ENDCHAR
STARTCHAR afii64242
ENCODING -1
SWIDTH 0 0
DWIDTH 0 0
BBX 1 1 0 0
BITMAP
00
ENDCHAR
STARTCHAR afii62881
ENCODING -1
SWIDTH 0 0
DWIDTH 0 0
BBX 1 1 0 0
BITMAP
00
ENDCHAR
STARTCHAR afii57504
ENCODING -1
SWIDTH 0 0
DWIDTH 0 0
BBX 1 1 0 0
BITMAP
00
ENDCHAR
STARTCHAR afii57369
ENCODING -1
SWIDTH 0 0
DWIDTH 0 0
BBX 1 1 0 0
BITMAP
00
ENDCHAR
STARTCHAR afii57370
ENCODING -1
SWIDTH 0 0
DWIDTH 0 0
BBX 1 1 0 0
BITMAP
00
ENDCHAR
STARTCHAR afii57371
ENCODING -1
SWIDTH 0 0
DWIDTH 0 0
BBX 1 1 0 0
BITMAP
00
ENDCHAR
STARTCHAR afii57372
ENCODING -1
SWIDTH 0 0
DWIDTH 0 0
BBX 1 1 0 0
BITMAP
00
ENDCHAR
STARTCHAR afii57373
ENCODING -1
SWIDTH 0 0
DWIDTH 0 0
BBX 1 1 0 0
BITMAP
00
ENDCHAR
STARTCHAR afii57374
ENCODING -1
SWIDTH 0 0
DWIDTH 0 0
BBX 1 1 0 0
BITMAP
00
ENDCHAR
STARTCHAR afii57375
ENCODING -1
SWIDTH 0 0
DWIDTH 0 0
BBX 1 1 0 0
BITMAP
00
ENDCHAR
STARTCHAR afii57391
ENCODING -1
SWIDTH 0 0
DWIDTH 0 0
BBX 1 1 0 0
BITMAP
00
ENDCHAR
STARTCHAR afii57471
ENCODING -1
SWIDTH 0 0
DWIDTH 0 0
BBX 1 1 0 0
BITMAP
00
ENDCHAR
STARTCHAR afii57460
ENCODING -1
SWIDTH 0 0
DWIDTH 0 0
BBX 1 1 0 0
BITMAP
00
ENDCHAR
STARTCHAR afii52258
ENCODING -1
SWIDTH 0 0
DWIDTH 0 0
BBX 1 1 0 0
BITMAP
00
ENDCHAR
STARTCHAR afii57506
ENCODING -1
SWIDTH 0 0
DWIDTH 0 0
BBX 1 1 0 0
BITMAP
00
ENDCHAR
STARTCHAR afii62958
ENCODING -1
SWIDTH 0 0
DWIDTH 0 0
BBX 1 1 0 0
BITMAP
00
ENDCHAR
STARTCHAR afii62956
ENCODING -1
SWIDTH 0 0
DWIDTH 0 0
BBX 1 1 0 0
BITMAP
00
ENDCHAR
STARTCHAR afii52957
ENCODING -1
SWIDTH 0 0
DWIDTH 0 0
BBX 1 1 0 0
BITMAP
00
ENDCHAR
STARTCHAR afii57505
ENCODING -1
SWIDTH 0 0
DWIDTH 0 0
BBX 1 1 0 0
BITMAP
00
ENDCHAR
STARTCHAR afii62889
ENCODING -1
SWIDTH 0 0
DWIDTH 0 0
BBX 1 1 0 0
BITMAP
00
ENDCHAR
STARTCHAR afii62887
ENCODING -1
SWIDTH 0 0
DWIDTH 0 0
BBX 1 1 0 0
BITMAP
00
ENDCHAR
STARTCHAR afii62888
ENCODING -1
SWIDTH 0 0
DWIDTH 0 0
BBX 1 1 0 0
BITMAP
00
ENDCHAR
STARTCHAR afii57507
ENCODING -1
SWIDTH 0 0
DWIDTH 0 0
BBX 1 1 0 0
BITMAP
00
ENDCHAR
STARTCHAR afii62961
ENCODING -1
SWIDTH 0 0
DWIDTH 0 0
BBX 1 1 0 0
BITMAP
00
ENDCHAR
STARTCHAR afii62959
ENCODING -1
SWIDTH 0 0
DWIDTH 0 0
BBX 1 1 0 0
BITMAP
00
ENDCHAR
STARTCHAR afii62960
ENCODING -1
SWIDTH 0 0
DWIDTH 0 0
BBX 1 1 0 0
BITMAP
00
ENDCHAR
STARTCHAR afii57508
ENCODING -1
SWIDTH 0 0
DWIDTH 0 0
BBX 1 1 0 0
BITMAP
00
ENDCHAR
STARTCHAR afii62962
ENCODING -1
SWIDTH 0 0
DWIDTH 0 0
BBX 1 1 0 0
BITMAP
00
ENDCHAR
STARTCHAR afii57567
ENCODING -1
SWIDTH 0 0
DWIDTH 0 0
BBX 1 1 0 0
BITMAP
00
ENDCHAR
STARTCHAR afii62964
ENCODING -1
SWIDTH 0 0
DWIDTH 0 0
BBX 1 1 0 0
BITMAP
00
ENDCHAR
STARTCHAR afii52305
ENCODING -1
SWIDTH 0 0
DWIDTH 0 0
BBX 1 1 0 0
BITMAP
00
ENDCHAR
STARTCHAR afii52306
ENCODING -1
SWIDTH 0 0
DWIDTH 0 0
BBX 1 1 0 0
BITMAP
00
ENDCHAR
STARTCHAR afii57509
ENCODING -1
SWIDTH 0 0
DWIDTH 0 0
BBX 1 1 0 0
BITMAP
00
ENDCHAR
STARTCHAR afii62967
ENCODING -1
SWIDTH 0 0
DWIDTH 0 0
BBX 1 1 0 0
BITMAP
00
ENDCHAR
STARTCHAR afii62965
ENCODING -1
SWIDTH 0 0
DWIDTH 0 0
BBX 1 1 0 0
BITMAP
00
ENDCHAR
STARTCHAR afii62966
ENCODING -1
SWIDTH 0 0
DWIDTH 0 0
BBX 1 1 0 0
BITMAP
00
ENDCHAR
STARTCHAR afii57555
ENCODING -1
SWIDTH 0 0
DWIDTH 0 0
BBX 1 1 0 0
BITMAP
00
ENDCHAR
STARTCHAR afii52364
ENCODING -1
SWIDTH 0 0
DWIDTH 0 0
BBX 1 1 0 0
BITMAP
00
ENDCHAR
STARTCHAR afii63753
ENCODING -1
SWIDTH 0 0
DWIDTH 0 0
BBX 1 1 0 0
BITMAP
00
ENDCHAR
STARTCHAR afii63754
ENCODING -1
SWIDTH 0 0
DWIDTH 0 0
BBX 1 1 0 0
BITMAP
00
ENDCHAR
STARTCHAR afii63759
ENCODING -1
SWIDTH 0 0
DWIDTH 0 0
BBX 1 1 0 0
BITMAP
00
ENDCHAR
STARTCHAR afii63763
ENCODING -1
SWIDTH 0 0
DWIDTH 0 0
BBX 1 1 0 0
BITMAP
00
ENDCHAR
STARTCHAR afii63795
ENCODING -1
SWIDTH 0 0
DWIDTH 0 0
BBX 1 1 0 0
BITMAP
00
ENDCHAR
STARTCHAR afii62891
ENCODING -1
SWIDTH 0 0
DWIDTH 0 0
BBX 1 1 0 0
BITMAP
00
ENDCHAR
STARTCHAR afii63808
ENCODING -1
SWIDTH 0 0
DWIDTH 0 0
BBX 1 1 0 0
BITMAP
00
ENDCHAR
STARTCHAR afii62938
ENCODING -1
SWIDTH 0 0
DWIDTH 0 0
BBX 1 1 0 0
BITMAP
00
ENDCHAR
STARTCHAR afii63810
ENCODING -1
SWIDTH 0 0
DWIDTH 0 0
BBX 1 1 0 0
BITMAP
00
ENDCHAR
STARTCHAR afii62942
ENCODING -1
SWIDTH 0 0
DWIDTH 0 0
BBX 1 1 0 0
BITMAP
00
ENDCHAR
STARTCHAR afii62947
ENCODING -1
SWIDTH 0 0
DWIDTH 0 0
BBX 1 1 0 0
BITMAP
00
ENDCHAR
STARTCHAR afii63813
ENCODING -1
SWIDTH 0 0
DWIDTH 0 0
BBX 1 1 0 0
BITMAP
00
ENDCHAR
STARTCHAR afii63823
ENCODING -1
SWIDTH 0 0
DWIDTH 0 0
BBX 1 1 0 0
BITMAP
00
ENDCHAR
STARTCHAR afii63824
ENCODING -1
SWIDTH 0 0
DWIDTH 0 0
BBX 1 1 0 0
BITMAP
00
ENDCHAR
STARTCHAR afii63833
ENCODING -1
SWIDTH 0 0
DWIDTH 0 0
BBX 1 1 0 0
BITMAP
00
ENDCHAR
STARTCHAR afii63844
ENCODING -1
SWIDTH 0 0
DWIDTH 0 0
BBX 1 1 0 0
BITMAP
00
ENDCHAR
STARTCHAR afii62882
ENCODING -1
SWIDTH 0 0
DWIDTH 0 0
BBX 1 1 0 0
BITMAP
00
ENDCHAR
STARTCHAR afii62883
ENCODING -1
SWIDTH 0 0
DWIDTH 0 0
BBX 1 1 0 0
BITMAP
00
ENDCHAR
STARTCHAR afii62884
ENCODING -1
SWIDTH 0 0
DWIDTH 0 0
BBX 1 1 0 0
BITMAP
00
ENDCHAR
STARTCHAR afii62885
ENCODING -1
SWIDTH 0 0
DWIDTH 0 0
BBX 1 1 0 0
BITMAP
00
ENDCHAR
STARTCHAR afii62886
ENCODING -1
SWIDTH 0 0
DWIDTH 0 0
BBX 1 1 0 0
BITMAP
00
ENDCHAR
STARTCHAR glyph882
ENCODING -1
SWIDTH 736 0
DWIDTH 15 0
BBX 14 21 1 0
BITMAP
0E00
0700
0700
0380
0000
0000
F87C
7878
7CF8
3CF0
3FF0
1FE0
1FC0
0FC0
0780
0780
0780
0780
0780
0780
0780
ENDCHAR
STARTCHAR glyph883
ENCODING -1
SWIDTH 650 0
DWIDTH 13 0
BBX 13 21 0 -4
BITMAP
0E00
0700
0380
0180
0000
0000
F078
78F0
78F0
78F0
3DE0
3DE0
1FC0
1FC0
1F80
0F80
0F80
0F00
1F00
1E00
1E00
ENDCHAR
STARTCHAR dottediacute
ENCODING -1
SWIDTH 341 0
DWIDTH 7 0
BBX 5 21 2 0
BITMAP
38
78
70
E0
00
F0
F0
F0
00
00
F0
F0
F0
F0
F0
F0
F0
F0
F0
F0
F0
ENDCHAR
STARTCHAR commaaccent
ENCODING -1
SWIDTH 363 0
DWIDTH 7 0
BBX 4 3 1 -4
BITMAP
70
60
C0
ENDCHAR
ENDFONT
